<svg width="452" height="237" viewBox="0 0 452 237" fill="none" xmlns="http://www.w3.org/2000/svg">
<path d="M183.269 125.097H180.609V124.023H183.269C183.784 124.023 184.201 123.941 184.52 123.777C184.839 123.613 185.071 123.385 185.217 123.094C185.367 122.802 185.442 122.469 185.442 122.096C185.442 121.754 185.367 121.433 185.217 121.132C185.071 120.831 184.839 120.59 184.52 120.407C184.201 120.22 183.784 120.127 183.269 120.127H180.917V129H179.598V119.047H183.269C184.021 119.047 184.656 119.177 185.176 119.437C185.695 119.696 186.09 120.056 186.358 120.517C186.627 120.972 186.762 121.494 186.762 122.082C186.762 122.72 186.627 123.265 186.358 123.716C186.09 124.167 185.695 124.511 185.176 124.748C184.656 124.98 184.021 125.097 183.269 125.097ZM192.518 127.735V123.928C192.518 123.636 192.458 123.383 192.34 123.169C192.226 122.95 192.053 122.782 191.82 122.663C191.588 122.545 191.301 122.485 190.959 122.485C190.64 122.485 190.36 122.54 190.118 122.649C189.881 122.759 189.694 122.902 189.558 123.08C189.425 123.258 189.359 123.449 189.359 123.654H188.095C188.095 123.39 188.163 123.128 188.3 122.868C188.437 122.608 188.632 122.374 188.888 122.164C189.147 121.95 189.457 121.781 189.817 121.658C190.182 121.531 190.588 121.467 191.034 121.467C191.572 121.467 192.046 121.558 192.456 121.74C192.871 121.923 193.194 122.198 193.427 122.567C193.664 122.932 193.782 123.39 193.782 123.941V127.387C193.782 127.633 193.803 127.895 193.844 128.173C193.889 128.451 193.955 128.69 194.042 128.891V129H192.723C192.659 128.854 192.609 128.66 192.572 128.419C192.536 128.173 192.518 127.945 192.518 127.735ZM192.736 124.516L192.75 125.404H191.472C191.112 125.404 190.79 125.434 190.508 125.493C190.225 125.548 189.988 125.632 189.797 125.746C189.605 125.86 189.46 126.004 189.359 126.177C189.259 126.345 189.209 126.544 189.209 126.771C189.209 127.004 189.261 127.216 189.366 127.407C189.471 127.599 189.628 127.751 189.838 127.865C190.052 127.975 190.314 128.029 190.624 128.029C191.011 128.029 191.353 127.947 191.649 127.783C191.946 127.619 192.18 127.419 192.354 127.182C192.531 126.945 192.627 126.715 192.641 126.491L193.181 127.1C193.149 127.291 193.062 127.503 192.921 127.735C192.78 127.968 192.59 128.191 192.354 128.405C192.121 128.615 191.843 128.79 191.52 128.932C191.201 129.068 190.84 129.137 190.439 129.137C189.938 129.137 189.498 129.039 189.12 128.843C188.746 128.647 188.455 128.385 188.245 128.057C188.04 127.724 187.938 127.353 187.938 126.942C187.938 126.546 188.015 126.197 188.17 125.896C188.325 125.591 188.548 125.338 188.84 125.138C189.132 124.933 189.482 124.778 189.893 124.673C190.303 124.568 190.761 124.516 191.267 124.516H192.736ZM200.563 121.604H201.712V128.843C201.712 129.494 201.58 130.05 201.315 130.511C201.051 130.971 200.682 131.32 200.208 131.557C199.739 131.798 199.196 131.919 198.581 131.919C198.326 131.919 198.025 131.878 197.679 131.796C197.337 131.718 197 131.584 196.667 131.393C196.339 131.206 196.063 130.953 195.84 130.634L196.503 129.882C196.813 130.256 197.136 130.515 197.474 130.661C197.815 130.807 198.153 130.88 198.485 130.88C198.886 130.88 199.233 130.805 199.524 130.654C199.816 130.504 200.042 130.281 200.201 129.984C200.365 129.693 200.447 129.333 200.447 128.904V123.23L200.563 121.604ZM195.471 125.384V125.24C195.471 124.675 195.537 124.162 195.669 123.702C195.806 123.237 195.999 122.839 196.25 122.506C196.505 122.173 196.813 121.918 197.173 121.74C197.533 121.558 197.938 121.467 198.39 121.467C198.854 121.467 199.26 121.549 199.606 121.713C199.957 121.872 200.254 122.107 200.495 122.417C200.741 122.722 200.935 123.091 201.076 123.524C201.217 123.957 201.315 124.447 201.37 124.994V125.623C201.32 126.165 201.222 126.653 201.076 127.086C200.935 127.519 200.741 127.888 200.495 128.193C200.254 128.499 199.957 128.733 199.606 128.897C199.256 129.057 198.845 129.137 198.376 129.137C197.934 129.137 197.533 129.043 197.173 128.856C196.817 128.67 196.512 128.408 196.257 128.07C196.002 127.733 195.806 127.337 195.669 126.881C195.537 126.421 195.471 125.922 195.471 125.384ZM196.735 125.24V125.384C196.735 125.753 196.772 126.099 196.845 126.423C196.922 126.746 197.038 127.031 197.193 127.277C197.353 127.523 197.556 127.717 197.802 127.858C198.048 127.995 198.342 128.063 198.684 128.063C199.103 128.063 199.449 127.975 199.723 127.797C199.996 127.619 200.213 127.384 200.372 127.093C200.536 126.801 200.664 126.484 200.755 126.143V124.495C200.705 124.244 200.627 124.003 200.522 123.771C200.422 123.534 200.29 123.324 200.126 123.142C199.966 122.955 199.768 122.807 199.531 122.697C199.294 122.588 199.016 122.533 198.697 122.533C198.351 122.533 198.052 122.606 197.802 122.752C197.556 122.893 197.353 123.089 197.193 123.34C197.038 123.586 196.922 123.873 196.845 124.201C196.772 124.525 196.735 124.871 196.735 125.24ZM206.702 129.137C206.187 129.137 205.72 129.05 205.301 128.877C204.886 128.699 204.528 128.451 204.228 128.132C203.931 127.813 203.703 127.435 203.544 126.997C203.384 126.56 203.305 126.081 203.305 125.562V125.274C203.305 124.673 203.394 124.137 203.571 123.668C203.749 123.194 203.991 122.793 204.296 122.465C204.601 122.137 204.948 121.888 205.335 121.72C205.722 121.551 206.123 121.467 206.538 121.467C207.067 121.467 207.522 121.558 207.905 121.74C208.293 121.923 208.609 122.178 208.855 122.506C209.102 122.829 209.284 123.212 209.402 123.654C209.521 124.092 209.58 124.57 209.58 125.09V125.657H204.057V124.625H208.315V124.529C208.297 124.201 208.229 123.882 208.11 123.572C207.996 123.262 207.814 123.007 207.563 122.807C207.313 122.606 206.971 122.506 206.538 122.506C206.251 122.506 205.987 122.567 205.745 122.69C205.504 122.809 205.296 122.987 205.123 123.224C204.95 123.461 204.815 123.75 204.72 124.092C204.624 124.434 204.576 124.828 204.576 125.274V125.562C204.576 125.912 204.624 126.243 204.72 126.553C204.82 126.858 204.964 127.127 205.15 127.359C205.342 127.592 205.572 127.774 205.841 127.906C206.114 128.038 206.424 128.104 206.771 128.104C207.217 128.104 207.595 128.013 207.905 127.831C208.215 127.649 208.486 127.405 208.719 127.1L209.484 127.708C209.325 127.95 209.122 128.18 208.876 128.398C208.63 128.617 208.327 128.795 207.967 128.932C207.611 129.068 207.19 129.137 206.702 129.137ZM215.794 123.183V129H214.529V121.604H215.726L215.794 123.183ZM215.493 125.021L214.967 125.001C214.971 124.495 215.047 124.028 215.192 123.6C215.338 123.167 215.543 122.791 215.808 122.472C216.072 122.153 216.386 121.907 216.751 121.733C217.12 121.556 217.528 121.467 217.975 121.467C218.339 121.467 218.667 121.517 218.959 121.617C219.251 121.713 219.499 121.868 219.704 122.082C219.914 122.296 220.073 122.574 220.183 122.916C220.292 123.253 220.347 123.666 220.347 124.153V129H219.075V124.14C219.075 123.752 219.018 123.442 218.904 123.21C218.79 122.973 218.624 122.802 218.405 122.697C218.187 122.588 217.918 122.533 217.599 122.533C217.284 122.533 216.997 122.599 216.737 122.731C216.482 122.864 216.261 123.046 216.074 123.278C215.892 123.511 215.748 123.777 215.644 124.078C215.543 124.374 215.493 124.689 215.493 125.021ZM221.933 125.384V125.227C221.933 124.693 222.01 124.199 222.165 123.743C222.32 123.283 222.543 122.884 222.835 122.547C223.127 122.205 223.48 121.941 223.895 121.754C224.309 121.562 224.774 121.467 225.289 121.467C225.809 121.467 226.276 121.562 226.69 121.754C227.11 121.941 227.465 122.205 227.757 122.547C228.053 122.884 228.279 123.283 228.434 123.743C228.589 124.199 228.666 124.693 228.666 125.227V125.384C228.666 125.917 228.589 126.411 228.434 126.867C228.279 127.323 228.053 127.722 227.757 128.063C227.465 128.401 227.112 128.665 226.697 128.856C226.287 129.043 225.822 129.137 225.303 129.137C224.783 129.137 224.316 129.043 223.901 128.856C223.487 128.665 223.131 128.401 222.835 128.063C222.543 127.722 222.32 127.323 222.165 126.867C222.01 126.411 221.933 125.917 221.933 125.384ZM223.197 125.227V125.384C223.197 125.753 223.241 126.102 223.327 126.43C223.414 126.753 223.544 127.04 223.717 127.291C223.895 127.542 224.116 127.74 224.38 127.886C224.644 128.027 224.952 128.098 225.303 128.098C225.649 128.098 225.952 128.027 226.212 127.886C226.476 127.74 226.695 127.542 226.868 127.291C227.041 127.04 227.171 126.753 227.258 126.43C227.349 126.102 227.395 125.753 227.395 125.384V125.227C227.395 124.862 227.349 124.518 227.258 124.194C227.171 123.866 227.039 123.577 226.861 123.326C226.688 123.071 226.469 122.87 226.205 122.725C225.945 122.579 225.64 122.506 225.289 122.506C224.943 122.506 224.637 122.579 224.373 122.725C224.113 122.87 223.895 123.071 223.717 123.326C223.544 123.577 223.414 123.866 223.327 124.194C223.241 124.518 223.197 124.862 223.197 125.227ZM233.349 121.604V122.574H229.35V121.604H233.349ZM230.703 119.806H231.968V127.168C231.968 127.419 232.007 127.608 232.084 127.735C232.161 127.863 232.262 127.947 232.385 127.988C232.508 128.029 232.64 128.05 232.781 128.05C232.886 128.05 232.995 128.041 233.109 128.022C233.228 128 233.317 127.981 233.376 127.968L233.383 129C233.283 129.032 233.15 129.062 232.986 129.089C232.827 129.121 232.633 129.137 232.405 129.137C232.095 129.137 231.811 129.075 231.551 128.952C231.291 128.829 231.084 128.624 230.929 128.337C230.778 128.045 230.703 127.653 230.703 127.161V119.806ZM240.191 129H238.927V120.824C238.927 120.291 239.022 119.842 239.214 119.478C239.41 119.108 239.69 118.83 240.055 118.644C240.419 118.452 240.852 118.356 241.354 118.356C241.499 118.356 241.645 118.366 241.791 118.384C241.941 118.402 242.087 118.429 242.229 118.466L242.16 119.498C242.064 119.475 241.955 119.459 241.832 119.45C241.714 119.441 241.595 119.437 241.477 119.437C241.208 119.437 240.975 119.491 240.779 119.601C240.588 119.705 240.442 119.86 240.342 120.065C240.242 120.271 240.191 120.523 240.191 120.824V129ZM241.764 121.604V122.574H237.758V121.604H241.764ZM242.837 125.384V125.227C242.837 124.693 242.914 124.199 243.069 123.743C243.224 123.283 243.448 122.884 243.739 122.547C244.031 122.205 244.384 121.941 244.799 121.754C245.214 121.562 245.678 121.467 246.193 121.467C246.713 121.467 247.18 121.562 247.595 121.754C248.014 121.941 248.369 122.205 248.661 122.547C248.957 122.884 249.183 123.283 249.338 123.743C249.493 124.199 249.57 124.693 249.57 125.227V125.384C249.57 125.917 249.493 126.411 249.338 126.867C249.183 127.323 248.957 127.722 248.661 128.063C248.369 128.401 248.016 128.665 247.602 128.856C247.191 129.043 246.727 129.137 246.207 129.137C245.688 129.137 245.22 129.043 244.806 128.856C244.391 128.665 244.035 128.401 243.739 128.063C243.448 127.722 243.224 127.323 243.069 126.867C242.914 126.411 242.837 125.917 242.837 125.384ZM244.102 125.227V125.384C244.102 125.753 244.145 126.102 244.231 126.43C244.318 126.753 244.448 127.04 244.621 127.291C244.799 127.542 245.02 127.74 245.284 127.886C245.549 128.027 245.856 128.098 246.207 128.098C246.553 128.098 246.856 128.027 247.116 127.886C247.381 127.74 247.599 127.542 247.772 127.291C247.946 127.04 248.076 126.753 248.162 126.43C248.253 126.102 248.299 125.753 248.299 125.384V125.227C248.299 124.862 248.253 124.518 248.162 124.194C248.076 123.866 247.943 123.577 247.766 123.326C247.592 123.071 247.374 122.87 247.109 122.725C246.85 122.579 246.544 122.506 246.193 122.506C245.847 122.506 245.542 122.579 245.277 122.725C245.018 122.87 244.799 123.071 244.621 123.326C244.448 123.577 244.318 123.866 244.231 124.194C244.145 124.518 244.102 124.862 244.102 125.227ZM255.682 127.291V121.604H256.953V129H255.743L255.682 127.291ZM255.921 125.732L256.447 125.719C256.447 126.211 256.395 126.667 256.29 127.086C256.19 127.501 256.026 127.861 255.798 128.166C255.57 128.471 255.271 128.711 254.902 128.884C254.533 129.052 254.084 129.137 253.556 129.137C253.196 129.137 252.865 129.084 252.564 128.979C252.268 128.875 252.013 128.713 251.799 128.494C251.585 128.275 251.418 127.991 251.3 127.64C251.186 127.289 251.129 126.867 251.129 126.375V121.604H252.394V126.389C252.394 126.721 252.43 126.997 252.503 127.216C252.58 127.43 252.683 127.601 252.811 127.729C252.943 127.852 253.089 127.938 253.248 127.988C253.412 128.038 253.581 128.063 253.754 128.063C254.292 128.063 254.718 127.961 255.032 127.756C255.347 127.546 255.572 127.266 255.709 126.915C255.85 126.56 255.921 126.165 255.921 125.732ZM260.146 123.183V129H258.881V121.604H260.077L260.146 123.183ZM259.845 125.021L259.318 125.001C259.323 124.495 259.398 124.028 259.544 123.6C259.69 123.167 259.895 122.791 260.159 122.472C260.424 122.153 260.738 121.907 261.103 121.733C261.472 121.556 261.88 121.467 262.326 121.467C262.691 121.467 263.019 121.517 263.311 121.617C263.602 121.713 263.851 121.868 264.056 122.082C264.265 122.296 264.425 122.574 264.534 122.916C264.644 123.253 264.698 123.666 264.698 124.153V129H263.427V124.14C263.427 123.752 263.37 123.442 263.256 123.21C263.142 122.973 262.976 122.802 262.757 122.697C262.538 122.588 262.269 122.533 261.95 122.533C261.636 122.533 261.349 122.599 261.089 122.731C260.834 122.864 260.613 123.046 260.426 123.278C260.243 123.511 260.1 123.777 259.995 124.078C259.895 124.374 259.845 124.689 259.845 125.021ZM271.281 127.564V118.5H272.553V129H271.391L271.281 127.564ZM266.305 125.384V125.24C266.305 124.675 266.373 124.162 266.51 123.702C266.651 123.237 266.849 122.839 267.104 122.506C267.364 122.173 267.672 121.918 268.027 121.74C268.387 121.558 268.788 121.467 269.23 121.467C269.695 121.467 270.101 121.549 270.447 121.713C270.798 121.872 271.094 122.107 271.336 122.417C271.582 122.722 271.776 123.091 271.917 123.524C272.058 123.957 272.156 124.447 272.211 124.994V125.623C272.161 126.165 272.063 126.653 271.917 127.086C271.776 127.519 271.582 127.888 271.336 128.193C271.094 128.499 270.798 128.733 270.447 128.897C270.096 129.057 269.686 129.137 269.217 129.137C268.784 129.137 268.387 129.043 268.027 128.856C267.672 128.67 267.364 128.408 267.104 128.07C266.849 127.733 266.651 127.337 266.51 126.881C266.373 126.421 266.305 125.922 266.305 125.384ZM267.576 125.24V125.384C267.576 125.753 267.613 126.099 267.686 126.423C267.763 126.746 267.882 127.031 268.041 127.277C268.201 127.523 268.403 127.717 268.649 127.858C268.896 127.995 269.189 128.063 269.531 128.063C269.951 128.063 270.295 127.975 270.563 127.797C270.837 127.619 271.056 127.384 271.22 127.093C271.384 126.801 271.511 126.484 271.603 126.143V124.495C271.548 124.244 271.468 124.003 271.363 123.771C271.263 123.534 271.131 123.324 270.967 123.142C270.807 122.955 270.609 122.807 270.372 122.697C270.14 122.588 269.864 122.533 269.545 122.533C269.199 122.533 268.9 122.606 268.649 122.752C268.403 122.893 268.201 123.089 268.041 123.34C267.882 123.586 267.763 123.873 267.686 124.201C267.613 124.525 267.576 124.871 267.576 125.24ZM23.1709 157.835H24.4834C24.415 158.464 24.235 159.027 23.9434 159.523C23.6517 160.02 23.2393 160.414 22.7061 160.706C22.1729 160.993 21.5075 161.137 20.71 161.137C20.1266 161.137 19.5957 161.027 19.1172 160.809C18.6432 160.59 18.2354 160.28 17.8936 159.879C17.5518 159.473 17.2874 158.988 17.1006 158.423C16.9183 157.853 16.8271 157.22 16.8271 156.522V155.531C16.8271 154.834 16.9183 154.203 17.1006 153.638C17.2874 153.068 17.554 152.58 17.9004 152.175C18.2513 151.769 18.6729 151.457 19.165 151.238C19.6572 151.02 20.2109 150.91 20.8262 150.91C21.5781 150.91 22.2139 151.051 22.7334 151.334C23.2529 151.617 23.6562 152.008 23.9434 152.51C24.235 153.007 24.415 153.583 24.4834 154.239H23.1709C23.1071 153.774 22.9886 153.376 22.8154 153.043C22.6423 152.706 22.3962 152.446 22.0771 152.264C21.7581 152.081 21.3411 151.99 20.8262 151.99C20.3841 151.99 19.9945 152.075 19.6572 152.243C19.3245 152.412 19.0443 152.651 18.8164 152.961C18.5931 153.271 18.4245 153.642 18.3105 154.075C18.1966 154.508 18.1396 154.989 18.1396 155.518V156.522C18.1396 157.01 18.1898 157.468 18.29 157.896C18.3949 158.325 18.5521 158.701 18.7617 159.024C18.9714 159.348 19.238 159.603 19.5615 159.79C19.8851 159.972 20.2679 160.063 20.71 160.063C21.2705 160.063 21.7171 159.975 22.0498 159.797C22.3825 159.619 22.6331 159.364 22.8018 159.031C22.9749 158.699 23.098 158.3 23.1709 157.835ZM27.3545 150.5V161H26.0898V150.5H27.3545ZM27.0537 157.021L26.5273 157.001C26.5319 156.495 26.6071 156.028 26.7529 155.6C26.8988 155.167 27.1038 154.791 27.3682 154.472C27.6325 154.153 27.9469 153.907 28.3115 153.733C28.6807 153.556 29.0885 153.467 29.5352 153.467C29.8997 153.467 30.2279 153.517 30.5195 153.617C30.8112 153.713 31.0596 153.868 31.2646 154.082C31.4743 154.296 31.6338 154.574 31.7432 154.916C31.8525 155.253 31.9072 155.666 31.9072 156.153V161H30.6357V156.14C30.6357 155.752 30.5788 155.442 30.4648 155.21C30.3509 154.973 30.1846 154.802 29.9658 154.697C29.7471 154.588 29.4782 154.533 29.1592 154.533C28.8447 154.533 28.5576 154.599 28.2979 154.731C28.0426 154.864 27.8216 155.046 27.6348 155.278C27.4525 155.511 27.3089 155.777 27.2041 156.078C27.1038 156.374 27.0537 156.689 27.0537 157.021ZM36.8701 161.137C36.3551 161.137 35.888 161.05 35.4688 160.877C35.054 160.699 34.6963 160.451 34.3955 160.132C34.0993 159.813 33.8714 159.435 33.7119 158.997C33.5524 158.56 33.4727 158.081 33.4727 157.562V157.274C33.4727 156.673 33.5615 156.137 33.7393 155.668C33.917 155.194 34.1585 154.793 34.4639 154.465C34.7692 154.137 35.1156 153.888 35.5029 153.72C35.8903 153.551 36.2913 153.467 36.7061 153.467C37.2347 153.467 37.6904 153.558 38.0732 153.74C38.4606 153.923 38.7773 154.178 39.0234 154.506C39.2695 154.829 39.4518 155.212 39.5703 155.654C39.6888 156.092 39.748 156.57 39.748 157.09V157.657H34.2246V156.625H38.4834V156.529C38.4652 156.201 38.3968 155.882 38.2783 155.572C38.1644 155.262 37.9821 155.007 37.7314 154.807C37.4808 154.606 37.139 154.506 36.7061 154.506C36.4189 154.506 36.1546 154.567 35.9131 154.69C35.6715 154.809 35.4642 154.987 35.291 155.224C35.1178 155.461 34.9834 155.75 34.8877 156.092C34.792 156.434 34.7441 156.828 34.7441 157.274V157.562C34.7441 157.912 34.792 158.243 34.8877 158.553C34.988 158.858 35.1315 159.127 35.3184 159.359C35.5098 159.592 35.7399 159.774 36.0088 159.906C36.2822 160.038 36.5921 160.104 36.9385 160.104C37.3851 160.104 37.7633 160.013 38.0732 159.831C38.3831 159.649 38.6543 159.405 38.8867 159.1L39.6523 159.708C39.4928 159.95 39.29 160.18 39.0439 160.398C38.7979 160.617 38.4948 160.795 38.1348 160.932C37.7793 161.068 37.3577 161.137 36.8701 161.137ZM44.1846 160.098C44.4854 160.098 44.7633 160.036 45.0186 159.913C45.2738 159.79 45.4834 159.621 45.6475 159.407C45.8115 159.188 45.9049 158.94 45.9277 158.662H47.1309C47.1081 159.1 46.96 159.507 46.6865 159.886C46.4176 160.259 46.0645 160.562 45.627 160.795C45.1895 161.023 44.7087 161.137 44.1846 161.137C43.6286 161.137 43.1432 161.039 42.7285 160.843C42.3184 160.647 41.9766 160.378 41.7031 160.036C41.4342 159.694 41.2314 159.302 41.0947 158.86C40.9626 158.414 40.8965 157.942 40.8965 157.445V157.158C40.8965 156.661 40.9626 156.192 41.0947 155.75C41.2314 155.303 41.4342 154.909 41.7031 154.567C41.9766 154.226 42.3184 153.957 42.7285 153.761C43.1432 153.565 43.6286 153.467 44.1846 153.467C44.7633 153.467 45.2692 153.585 45.7021 153.822C46.1351 154.055 46.4746 154.374 46.7207 154.779C46.9714 155.18 47.1081 155.636 47.1309 156.146H45.9277C45.9049 155.841 45.8184 155.565 45.668 155.319C45.5221 155.073 45.3216 154.877 45.0664 154.731C44.8158 154.581 44.5218 154.506 44.1846 154.506C43.7972 154.506 43.4714 154.583 43.207 154.738C42.9473 154.889 42.7399 155.094 42.585 155.354C42.4346 155.609 42.3252 155.894 42.2568 156.208C42.193 156.518 42.1611 156.835 42.1611 157.158V157.445C42.1611 157.769 42.193 158.088 42.2568 158.402C42.3206 158.717 42.4277 159.002 42.5781 159.257C42.7331 159.512 42.9404 159.717 43.2002 159.872C43.4645 160.022 43.7926 160.098 44.1846 160.098ZM49.8242 150.5V161H48.5527V150.5H49.8242ZM54.3428 153.604L51.1162 157.056L49.3115 158.929L49.209 157.582L50.501 156.037L52.7979 153.604H54.3428ZM53.1875 161L50.5488 157.473L51.2051 156.345L54.6777 161H53.1875ZM62.2178 153.604V154.574H58.2188V153.604H62.2178ZM59.5723 151.806H60.8369V159.168C60.8369 159.419 60.8757 159.608 60.9531 159.735C61.0306 159.863 61.1309 159.947 61.2539 159.988C61.377 160.029 61.5091 160.05 61.6504 160.05C61.7552 160.05 61.8646 160.041 61.9785 160.022C62.097 160 62.1859 159.981 62.2451 159.968L62.252 161C62.1517 161.032 62.0195 161.062 61.8555 161.089C61.696 161.121 61.5023 161.137 61.2744 161.137C60.9645 161.137 60.6797 161.075 60.4199 160.952C60.1602 160.829 59.9528 160.624 59.7979 160.337C59.6475 160.045 59.5723 159.653 59.5723 159.161V151.806ZM64.9658 150.5V161H63.7012V150.5H64.9658ZM64.665 157.021L64.1387 157.001C64.1432 156.495 64.2184 156.028 64.3643 155.6C64.5101 155.167 64.7152 154.791 64.9795 154.472C65.2438 154.153 65.5583 153.907 65.9229 153.733C66.292 153.556 66.6999 153.467 67.1465 153.467C67.5111 153.467 67.8392 153.517 68.1309 153.617C68.4225 153.713 68.6709 153.868 68.876 154.082C69.0856 154.296 69.2451 154.574 69.3545 154.916C69.4639 155.253 69.5186 155.666 69.5186 156.153V161H68.2471V156.14C68.2471 155.752 68.1901 155.442 68.0762 155.21C67.9622 154.973 67.7959 154.802 67.5771 154.697C67.3584 154.588 67.0895 154.533 66.7705 154.533C66.4561 154.533 66.1689 154.599 65.9092 154.731C65.654 154.864 65.4329 155.046 65.2461 155.278C65.0638 155.511 64.9202 155.777 64.8154 156.078C64.7152 156.374 64.665 156.689 64.665 157.021ZM74.4814 161.137C73.9665 161.137 73.4993 161.05 73.0801 160.877C72.6654 160.699 72.3076 160.451 72.0068 160.132C71.7106 159.813 71.4827 159.435 71.3232 158.997C71.1637 158.56 71.084 158.081 71.084 157.562V157.274C71.084 156.673 71.1729 156.137 71.3506 155.668C71.5283 155.194 71.7699 154.793 72.0752 154.465C72.3805 154.137 72.7269 153.888 73.1143 153.72C73.5016 153.551 73.9027 153.467 74.3174 153.467C74.846 153.467 75.3018 153.558 75.6846 153.74C76.0719 153.923 76.3887 154.178 76.6348 154.506C76.8809 154.829 77.0632 155.212 77.1816 155.654C77.3001 156.092 77.3594 156.57 77.3594 157.09V157.657H71.8359V156.625H76.0947V156.529C76.0765 156.201 76.0081 155.882 75.8896 155.572C75.7757 155.262 75.5934 155.007 75.3428 154.807C75.0921 154.606 74.7503 154.506 74.3174 154.506C74.0303 154.506 73.766 154.567 73.5244 154.69C73.2829 154.809 73.0755 154.987 72.9023 155.224C72.7292 155.461 72.5947 155.75 72.499 156.092C72.4033 156.434 72.3555 156.828 72.3555 157.274V157.562C72.3555 157.912 72.4033 158.243 72.499 158.553C72.5993 158.858 72.7428 159.127 72.9297 159.359C73.1211 159.592 73.3512 159.774 73.6201 159.906C73.8936 160.038 74.2035 160.104 74.5498 160.104C74.9964 160.104 75.3747 160.013 75.6846 159.831C75.9945 159.649 76.2656 159.405 76.498 159.1L77.2637 159.708C77.1042 159.95 76.9014 160.18 76.6553 160.398C76.4092 160.617 76.1061 160.795 75.7461 160.932C75.3906 161.068 74.9691 161.137 74.4814 161.137ZM88.1943 151.047H89.5068V157.78C89.5068 158.528 89.3405 159.15 89.0078 159.646C88.6751 160.143 88.2331 160.517 87.6816 160.768C87.1348 161.014 86.54 161.137 85.8975 161.137C85.223 161.137 84.6123 161.014 84.0654 160.768C83.5231 160.517 83.0924 160.143 82.7734 159.646C82.459 159.15 82.3018 158.528 82.3018 157.78V151.047H83.6074V157.78C83.6074 158.3 83.7031 158.728 83.8945 159.065C84.0859 159.403 84.3525 159.653 84.6943 159.817C85.0407 159.981 85.4417 160.063 85.8975 160.063C86.3577 160.063 86.7588 159.981 87.1006 159.817C87.4469 159.653 87.7158 159.403 87.9072 159.065C88.0986 158.728 88.1943 158.3 88.1943 157.78V151.047ZM91.5781 151.047H94.873C95.6204 151.047 96.2516 151.161 96.7666 151.389C97.2861 151.617 97.6803 151.954 97.9492 152.4C98.2227 152.842 98.3594 153.387 98.3594 154.034C98.3594 154.49 98.266 154.907 98.0791 155.285C97.8968 155.659 97.6325 155.978 97.2861 156.242C96.9443 156.502 96.5342 156.696 96.0557 156.823L95.6865 156.967H92.5898L92.5762 155.894H94.9141C95.388 155.894 95.7822 155.812 96.0967 155.647C96.4111 155.479 96.6481 155.253 96.8076 154.971C96.9671 154.688 97.0469 154.376 97.0469 154.034C97.0469 153.651 96.9717 153.316 96.8213 153.029C96.6709 152.742 96.4339 152.521 96.1104 152.366C95.7913 152.207 95.3789 152.127 94.873 152.127H92.8975V161H91.5781V151.047ZM97.3955 161L94.9756 156.488L96.3496 156.481L98.8037 160.918V161H97.3955ZM106.241 159.927V161H101.265V159.927H106.241ZM101.524 151.047V161H100.205V151.047H101.524ZM110.698 157.384V157.227C110.698 156.693 110.776 156.199 110.931 155.743C111.086 155.283 111.309 154.884 111.601 154.547C111.892 154.205 112.245 153.941 112.66 153.754C113.075 153.562 113.54 153.467 114.055 153.467C114.574 153.467 115.041 153.562 115.456 153.754C115.875 153.941 116.231 154.205 116.522 154.547C116.819 154.884 117.044 155.283 117.199 155.743C117.354 156.199 117.432 156.693 117.432 157.227V157.384C117.432 157.917 117.354 158.411 117.199 158.867C117.044 159.323 116.819 159.722 116.522 160.063C116.231 160.401 115.878 160.665 115.463 160.856C115.053 161.043 114.588 161.137 114.068 161.137C113.549 161.137 113.082 161.043 112.667 160.856C112.252 160.665 111.897 160.401 111.601 160.063C111.309 159.722 111.086 159.323 110.931 158.867C110.776 158.411 110.698 157.917 110.698 157.384ZM111.963 157.227V157.384C111.963 157.753 112.006 158.102 112.093 158.43C112.179 158.753 112.309 159.04 112.482 159.291C112.66 159.542 112.881 159.74 113.146 159.886C113.41 160.027 113.717 160.098 114.068 160.098C114.415 160.098 114.718 160.027 114.978 159.886C115.242 159.74 115.461 159.542 115.634 159.291C115.807 159.04 115.937 158.753 116.023 158.43C116.115 158.102 116.16 157.753 116.16 157.384V157.227C116.16 156.862 116.115 156.518 116.023 156.194C115.937 155.866 115.805 155.577 115.627 155.326C115.454 155.071 115.235 154.87 114.971 154.725C114.711 154.579 114.406 154.506 114.055 154.506C113.708 154.506 113.403 154.579 113.139 154.725C112.879 154.87 112.66 155.071 112.482 155.326C112.309 155.577 112.179 155.866 112.093 156.194C112.006 156.518 111.963 156.862 111.963 157.227ZM120.282 154.766V161H119.018V153.604H120.248L120.282 154.766ZM122.593 153.562L122.586 154.738C122.481 154.715 122.381 154.702 122.285 154.697C122.194 154.688 122.089 154.684 121.971 154.684C121.679 154.684 121.422 154.729 121.198 154.82C120.975 154.911 120.786 155.039 120.631 155.203C120.476 155.367 120.353 155.563 120.262 155.791C120.175 156.014 120.118 156.26 120.091 156.529L119.735 156.734C119.735 156.288 119.779 155.868 119.865 155.477C119.956 155.085 120.095 154.738 120.282 154.438C120.469 154.132 120.706 153.895 120.993 153.727C121.285 153.553 121.631 153.467 122.032 153.467C122.123 153.467 122.228 153.478 122.347 153.501C122.465 153.519 122.547 153.54 122.593 153.562ZM130.194 160.098C130.495 160.098 130.773 160.036 131.028 159.913C131.284 159.79 131.493 159.621 131.657 159.407C131.821 159.188 131.915 158.94 131.938 158.662H133.141C133.118 159.1 132.97 159.507 132.696 159.886C132.427 160.259 132.074 160.562 131.637 160.795C131.199 161.023 130.718 161.137 130.194 161.137C129.638 161.137 129.153 161.039 128.738 160.843C128.328 160.647 127.986 160.378 127.713 160.036C127.444 159.694 127.241 159.302 127.104 158.86C126.972 158.414 126.906 157.942 126.906 157.445V157.158C126.906 156.661 126.972 156.192 127.104 155.75C127.241 155.303 127.444 154.909 127.713 154.567C127.986 154.226 128.328 153.957 128.738 153.761C129.153 153.565 129.638 153.467 130.194 153.467C130.773 153.467 131.279 153.585 131.712 153.822C132.145 154.055 132.484 154.374 132.73 154.779C132.981 155.18 133.118 155.636 133.141 156.146H131.938C131.915 155.841 131.828 155.565 131.678 155.319C131.532 155.073 131.331 154.877 131.076 154.731C130.826 154.581 130.532 154.506 130.194 154.506C129.807 154.506 129.481 154.583 129.217 154.738C128.957 154.889 128.75 155.094 128.595 155.354C128.444 155.609 128.335 155.894 128.267 156.208C128.203 156.518 128.171 156.835 128.171 157.158V157.445C128.171 157.769 128.203 158.088 128.267 158.402C128.33 158.717 128.438 159.002 128.588 159.257C128.743 159.512 128.95 159.717 129.21 159.872C129.474 160.022 129.802 160.098 130.194 160.098ZM134.228 157.384V157.227C134.228 156.693 134.305 156.199 134.46 155.743C134.615 155.283 134.838 154.884 135.13 154.547C135.422 154.205 135.775 153.941 136.189 153.754C136.604 153.562 137.069 153.467 137.584 153.467C138.104 153.467 138.571 153.562 138.985 153.754C139.405 153.941 139.76 154.205 140.052 154.547C140.348 154.884 140.574 155.283 140.729 155.743C140.883 156.199 140.961 156.693 140.961 157.227V157.384C140.961 157.917 140.883 158.411 140.729 158.867C140.574 159.323 140.348 159.722 140.052 160.063C139.76 160.401 139.407 160.665 138.992 160.856C138.582 161.043 138.117 161.137 137.598 161.137C137.078 161.137 136.611 161.043 136.196 160.856C135.782 160.665 135.426 160.401 135.13 160.063C134.838 159.722 134.615 159.323 134.46 158.867C134.305 158.411 134.228 157.917 134.228 157.384ZM135.492 157.227V157.384C135.492 157.753 135.535 158.102 135.622 158.43C135.709 158.753 135.839 159.04 136.012 159.291C136.189 159.542 136.41 159.74 136.675 159.886C136.939 160.027 137.247 160.098 137.598 160.098C137.944 160.098 138.247 160.027 138.507 159.886C138.771 159.74 138.99 159.542 139.163 159.291C139.336 159.04 139.466 158.753 139.553 158.43C139.644 158.102 139.689 157.753 139.689 157.384V157.227C139.689 156.862 139.644 156.518 139.553 156.194C139.466 155.866 139.334 155.577 139.156 155.326C138.983 155.071 138.764 154.87 138.5 154.725C138.24 154.579 137.935 154.506 137.584 154.506C137.238 154.506 136.932 154.579 136.668 154.725C136.408 154.87 136.189 155.071 136.012 155.326C135.839 155.577 135.709 155.866 135.622 156.194C135.535 156.518 135.492 156.862 135.492 157.227ZM143.812 155.183V161H142.547V153.604H143.743L143.812 155.183ZM143.511 157.021L142.984 157.001C142.989 156.495 143.064 156.028 143.21 155.6C143.356 155.167 143.561 154.791 143.825 154.472C144.09 154.153 144.404 153.907 144.769 153.733C145.138 153.556 145.546 153.467 145.992 153.467C146.357 153.467 146.685 153.517 146.977 153.617C147.268 153.713 147.517 153.868 147.722 154.082C147.931 154.296 148.091 154.574 148.2 154.916C148.31 155.253 148.364 155.666 148.364 156.153V161H147.093V156.14C147.093 155.752 147.036 155.442 146.922 155.21C146.808 154.973 146.642 154.802 146.423 154.697C146.204 154.588 145.935 154.533 145.616 154.533C145.302 154.533 145.015 154.599 144.755 154.731C144.5 154.864 144.279 155.046 144.092 155.278C143.91 155.511 143.766 155.777 143.661 156.078C143.561 156.374 143.511 156.689 143.511 157.021ZM153.382 153.604V154.574H149.383V153.604H153.382ZM150.736 151.806H152.001V159.168C152.001 159.419 152.04 159.608 152.117 159.735C152.195 159.863 152.295 159.947 152.418 159.988C152.541 160.029 152.673 160.05 152.814 160.05C152.919 160.05 153.029 160.041 153.143 160.022C153.261 160 153.35 159.981 153.409 159.968L153.416 161C153.316 161.032 153.184 161.062 153.02 161.089C152.86 161.121 152.666 161.137 152.438 161.137C152.129 161.137 151.844 161.075 151.584 160.952C151.324 160.829 151.117 160.624 150.962 160.337C150.812 160.045 150.736 159.653 150.736 159.161V151.806ZM159.227 159.735V155.928C159.227 155.636 159.167 155.383 159.049 155.169C158.935 154.95 158.762 154.782 158.529 154.663C158.297 154.545 158.01 154.485 157.668 154.485C157.349 154.485 157.069 154.54 156.827 154.649C156.59 154.759 156.403 154.902 156.267 155.08C156.134 155.258 156.068 155.449 156.068 155.654H154.804C154.804 155.39 154.872 155.128 155.009 154.868C155.146 154.608 155.341 154.374 155.597 154.164C155.856 153.95 156.166 153.781 156.526 153.658C156.891 153.531 157.297 153.467 157.743 153.467C158.281 153.467 158.755 153.558 159.165 153.74C159.58 153.923 159.903 154.198 160.136 154.567C160.373 154.932 160.491 155.39 160.491 155.941V159.387C160.491 159.633 160.512 159.895 160.553 160.173C160.598 160.451 160.664 160.69 160.751 160.891V161H159.432C159.368 160.854 159.318 160.66 159.281 160.419C159.245 160.173 159.227 159.945 159.227 159.735ZM159.445 156.516L159.459 157.404H158.181C157.821 157.404 157.499 157.434 157.217 157.493C156.934 157.548 156.697 157.632 156.506 157.746C156.314 157.86 156.169 158.004 156.068 158.177C155.968 158.345 155.918 158.544 155.918 158.771C155.918 159.004 155.97 159.216 156.075 159.407C156.18 159.599 156.337 159.751 156.547 159.865C156.761 159.975 157.023 160.029 157.333 160.029C157.72 160.029 158.062 159.947 158.358 159.783C158.655 159.619 158.889 159.419 159.062 159.182C159.24 158.945 159.336 158.715 159.35 158.491L159.89 159.1C159.858 159.291 159.771 159.503 159.63 159.735C159.489 159.968 159.299 160.191 159.062 160.405C158.83 160.615 158.552 160.79 158.229 160.932C157.91 161.068 157.549 161.137 157.148 161.137C156.647 161.137 156.207 161.039 155.829 160.843C155.455 160.647 155.164 160.385 154.954 160.057C154.749 159.724 154.646 159.353 154.646 158.942C154.646 158.546 154.724 158.197 154.879 157.896C155.034 157.591 155.257 157.338 155.549 157.138C155.84 156.933 156.191 156.778 156.602 156.673C157.012 156.568 157.47 156.516 157.976 156.516H159.445ZM165.44 160.098C165.741 160.098 166.019 160.036 166.274 159.913C166.53 159.79 166.739 159.621 166.903 159.407C167.067 159.188 167.161 158.94 167.184 158.662H168.387C168.364 159.1 168.216 159.507 167.942 159.886C167.674 160.259 167.32 160.562 166.883 160.795C166.445 161.023 165.965 161.137 165.44 161.137C164.884 161.137 164.399 161.039 163.984 160.843C163.574 160.647 163.232 160.378 162.959 160.036C162.69 159.694 162.487 159.302 162.351 158.86C162.218 158.414 162.152 157.942 162.152 157.445V157.158C162.152 156.661 162.218 156.192 162.351 155.75C162.487 155.303 162.69 154.909 162.959 154.567C163.232 154.226 163.574 153.957 163.984 153.761C164.399 153.565 164.884 153.467 165.44 153.467C166.019 153.467 166.525 153.585 166.958 153.822C167.391 154.055 167.73 154.374 167.977 154.779C168.227 155.18 168.364 155.636 168.387 156.146H167.184C167.161 155.841 167.074 155.565 166.924 155.319C166.778 155.073 166.577 154.877 166.322 154.731C166.072 154.581 165.778 154.506 165.44 154.506C165.053 154.506 164.727 154.583 164.463 154.738C164.203 154.889 163.996 155.094 163.841 155.354C163.69 155.609 163.581 155.894 163.513 156.208C163.449 156.518 163.417 156.835 163.417 157.158V157.445C163.417 157.769 163.449 158.088 163.513 158.402C163.576 158.717 163.684 159.002 163.834 159.257C163.989 159.512 164.196 159.717 164.456 159.872C164.72 160.022 165.049 160.098 165.44 160.098ZM172.905 153.604V154.574H168.906V153.604H172.905ZM170.26 151.806H171.524V159.168C171.524 159.419 171.563 159.608 171.641 159.735C171.718 159.863 171.818 159.947 171.941 159.988C172.064 160.029 172.197 160.05 172.338 160.05C172.443 160.05 172.552 160.041 172.666 160.022C172.785 160 172.873 159.981 172.933 159.968L172.939 161C172.839 161.032 172.707 161.062 172.543 161.089C172.383 161.121 172.19 161.137 171.962 161.137C171.652 161.137 171.367 161.075 171.107 160.952C170.848 160.829 170.64 160.624 170.485 160.337C170.335 160.045 170.26 159.653 170.26 159.161V151.806ZM179.939 160.234L181.997 153.604H183.351L180.384 162.142C180.315 162.324 180.224 162.52 180.11 162.729C180.001 162.944 179.86 163.146 179.687 163.338C179.513 163.529 179.304 163.684 179.058 163.803C178.816 163.926 178.527 163.987 178.189 163.987C178.089 163.987 177.962 163.974 177.807 163.946C177.652 163.919 177.542 163.896 177.479 163.878L177.472 162.853C177.508 162.857 177.565 162.862 177.643 162.866C177.725 162.875 177.782 162.88 177.813 162.88C178.101 162.88 178.344 162.841 178.545 162.764C178.745 162.691 178.914 162.565 179.051 162.388C179.192 162.215 179.313 161.975 179.413 161.67L179.939 160.234ZM178.429 153.604L180.35 159.346L180.678 160.679L179.769 161.144L177.048 153.604H178.429ZM184.048 157.384V157.227C184.048 156.693 184.125 156.199 184.28 155.743C184.435 155.283 184.659 154.884 184.95 154.547C185.242 154.205 185.595 153.941 186.01 153.754C186.424 153.562 186.889 153.467 187.404 153.467C187.924 153.467 188.391 153.562 188.806 153.754C189.225 153.941 189.58 154.205 189.872 154.547C190.168 154.884 190.394 155.283 190.549 155.743C190.704 156.199 190.781 156.693 190.781 157.227V157.384C190.781 157.917 190.704 158.411 190.549 158.867C190.394 159.323 190.168 159.722 189.872 160.063C189.58 160.401 189.227 160.665 188.812 160.856C188.402 161.043 187.938 161.137 187.418 161.137C186.898 161.137 186.431 161.043 186.017 160.856C185.602 160.665 185.246 160.401 184.95 160.063C184.659 159.722 184.435 159.323 184.28 158.867C184.125 158.411 184.048 157.917 184.048 157.384ZM185.312 157.227V157.384C185.312 157.753 185.356 158.102 185.442 158.43C185.529 158.753 185.659 159.04 185.832 159.291C186.01 159.542 186.231 159.74 186.495 159.886C186.759 160.027 187.067 160.098 187.418 160.098C187.764 160.098 188.067 160.027 188.327 159.886C188.591 159.74 188.81 159.542 188.983 159.291C189.157 159.04 189.286 158.753 189.373 158.43C189.464 158.102 189.51 157.753 189.51 157.384V157.227C189.51 156.862 189.464 156.518 189.373 156.194C189.286 155.866 189.154 155.577 188.977 155.326C188.803 155.071 188.585 154.87 188.32 154.725C188.061 154.579 187.755 154.506 187.404 154.506C187.058 154.506 186.753 154.579 186.488 154.725C186.229 154.87 186.01 155.071 185.832 155.326C185.659 155.577 185.529 155.866 185.442 156.194C185.356 156.518 185.312 156.862 185.312 157.227ZM196.893 159.291V153.604H198.164V161H196.954L196.893 159.291ZM197.132 157.732L197.658 157.719C197.658 158.211 197.606 158.667 197.501 159.086C197.401 159.501 197.237 159.861 197.009 160.166C196.781 160.471 196.482 160.711 196.113 160.884C195.744 161.052 195.295 161.137 194.767 161.137C194.407 161.137 194.076 161.084 193.775 160.979C193.479 160.875 193.224 160.713 193.01 160.494C192.796 160.275 192.629 159.991 192.511 159.64C192.397 159.289 192.34 158.867 192.34 158.375V153.604H193.604V158.389C193.604 158.721 193.641 158.997 193.714 159.216C193.791 159.43 193.894 159.601 194.021 159.729C194.154 159.852 194.299 159.938 194.459 159.988C194.623 160.038 194.792 160.063 194.965 160.063C195.503 160.063 195.929 159.961 196.243 159.756C196.558 159.546 196.783 159.266 196.92 158.915C197.061 158.56 197.132 158.165 197.132 157.732ZM201.356 154.766V161H200.092V153.604H201.322L201.356 154.766ZM203.667 153.562L203.66 154.738C203.555 154.715 203.455 154.702 203.359 154.697C203.268 154.688 203.163 154.684 203.045 154.684C202.753 154.684 202.496 154.729 202.272 154.82C202.049 154.911 201.86 155.039 201.705 155.203C201.55 155.367 201.427 155.563 201.336 155.791C201.249 156.014 201.192 156.26 201.165 156.529L200.81 156.734C200.81 156.288 200.853 155.868 200.939 155.477C201.031 155.085 201.17 154.738 201.356 154.438C201.543 154.132 201.78 153.895 202.067 153.727C202.359 153.553 202.705 153.467 203.106 153.467C203.198 153.467 203.302 153.478 203.421 153.501C203.539 153.519 203.621 153.54 203.667 153.562ZM212.67 159.735V155.928C212.67 155.636 212.611 155.383 212.492 155.169C212.378 154.95 212.205 154.782 211.973 154.663C211.74 154.545 211.453 154.485 211.111 154.485C210.792 154.485 210.512 154.54 210.271 154.649C210.034 154.759 209.847 154.902 209.71 155.08C209.578 155.258 209.512 155.449 209.512 155.654H208.247C208.247 155.39 208.315 155.128 208.452 154.868C208.589 154.608 208.785 154.374 209.04 154.164C209.3 153.95 209.61 153.781 209.97 153.658C210.334 153.531 210.74 153.467 211.187 153.467C211.724 153.467 212.198 153.558 212.608 153.74C213.023 153.923 213.347 154.198 213.579 154.567C213.816 154.932 213.935 155.39 213.935 155.941V159.387C213.935 159.633 213.955 159.895 213.996 160.173C214.042 160.451 214.108 160.69 214.194 160.891V161H212.875C212.811 160.854 212.761 160.66 212.725 160.419C212.688 160.173 212.67 159.945 212.67 159.735ZM212.889 156.516L212.902 157.404H211.624C211.264 157.404 210.943 157.434 210.66 157.493C210.378 157.548 210.141 157.632 209.949 157.746C209.758 157.86 209.612 158.004 209.512 158.177C209.411 158.345 209.361 158.544 209.361 158.771C209.361 159.004 209.414 159.216 209.519 159.407C209.623 159.599 209.781 159.751 209.99 159.865C210.204 159.975 210.466 160.029 210.776 160.029C211.164 160.029 211.506 159.947 211.802 159.783C212.098 159.619 212.333 159.419 212.506 159.182C212.684 158.945 212.779 158.715 212.793 158.491L213.333 159.1C213.301 159.291 213.215 159.503 213.073 159.735C212.932 159.968 212.743 160.191 212.506 160.405C212.273 160.615 211.995 160.79 211.672 160.932C211.353 161.068 210.993 161.137 210.592 161.137C210.09 161.137 209.651 161.039 209.272 160.843C208.899 160.647 208.607 160.385 208.397 160.057C208.192 159.724 208.09 159.353 208.09 158.942C208.09 158.546 208.167 158.197 208.322 157.896C208.477 157.591 208.701 157.338 208.992 157.138C209.284 156.933 209.635 156.778 210.045 156.673C210.455 156.568 210.913 156.516 211.419 156.516H212.889ZM220.586 159.564V150.5H221.857V161H220.695L220.586 159.564ZM215.609 157.384V157.24C215.609 156.675 215.678 156.162 215.814 155.702C215.956 155.237 216.154 154.839 216.409 154.506C216.669 154.173 216.977 153.918 217.332 153.74C217.692 153.558 218.093 153.467 218.535 153.467C219 153.467 219.406 153.549 219.752 153.713C220.103 153.872 220.399 154.107 220.641 154.417C220.887 154.722 221.08 155.091 221.222 155.524C221.363 155.957 221.461 156.447 221.516 156.994V157.623C221.465 158.165 221.368 158.653 221.222 159.086C221.08 159.519 220.887 159.888 220.641 160.193C220.399 160.499 220.103 160.733 219.752 160.897C219.401 161.057 218.991 161.137 218.521 161.137C218.089 161.137 217.692 161.043 217.332 160.856C216.977 160.67 216.669 160.408 216.409 160.07C216.154 159.733 215.956 159.337 215.814 158.881C215.678 158.421 215.609 157.922 215.609 157.384ZM216.881 157.24V157.384C216.881 157.753 216.917 158.099 216.99 158.423C217.068 158.746 217.186 159.031 217.346 159.277C217.505 159.523 217.708 159.717 217.954 159.858C218.2 159.995 218.494 160.063 218.836 160.063C219.255 160.063 219.599 159.975 219.868 159.797C220.142 159.619 220.36 159.384 220.524 159.093C220.688 158.801 220.816 158.484 220.907 158.143V156.495C220.853 156.244 220.773 156.003 220.668 155.771C220.568 155.534 220.436 155.324 220.271 155.142C220.112 154.955 219.914 154.807 219.677 154.697C219.444 154.588 219.169 154.533 218.85 154.533C218.503 154.533 218.205 154.606 217.954 154.752C217.708 154.893 217.505 155.089 217.346 155.34C217.186 155.586 217.068 155.873 216.99 156.201C216.917 156.525 216.881 156.871 216.881 157.24ZM225.084 155.073V161H223.812V153.604H225.016L225.084 155.073ZM224.824 157.021L224.236 157.001C224.241 156.495 224.307 156.028 224.435 155.6C224.562 155.167 224.751 154.791 225.002 154.472C225.253 154.153 225.565 153.907 225.938 153.733C226.312 153.556 226.745 153.467 227.237 153.467C227.584 153.467 227.903 153.517 228.194 153.617C228.486 153.713 228.739 153.866 228.953 154.075C229.167 154.285 229.334 154.554 229.452 154.882C229.571 155.21 229.63 155.606 229.63 156.071V161H228.365V156.133C228.365 155.745 228.299 155.436 228.167 155.203C228.039 154.971 227.857 154.802 227.62 154.697C227.383 154.588 227.105 154.533 226.786 154.533C226.412 154.533 226.1 154.599 225.85 154.731C225.599 154.864 225.398 155.046 225.248 155.278C225.098 155.511 224.988 155.777 224.92 156.078C224.856 156.374 224.824 156.689 224.824 157.021ZM229.616 156.324L228.769 156.584C228.773 156.178 228.839 155.789 228.967 155.415C229.099 155.041 229.288 154.709 229.534 154.417C229.785 154.125 230.092 153.895 230.457 153.727C230.822 153.553 231.239 153.467 231.708 153.467C232.104 153.467 232.455 153.519 232.761 153.624C233.071 153.729 233.33 153.891 233.54 154.109C233.754 154.324 233.916 154.599 234.025 154.937C234.135 155.274 234.189 155.675 234.189 156.14V161H232.918V156.126C232.918 155.711 232.852 155.39 232.72 155.162C232.592 154.93 232.41 154.768 232.173 154.677C231.94 154.581 231.662 154.533 231.339 154.533C231.061 154.533 230.815 154.581 230.601 154.677C230.386 154.772 230.206 154.905 230.061 155.073C229.915 155.237 229.803 155.426 229.726 155.641C229.653 155.855 229.616 156.083 229.616 156.324ZM237.478 153.604V161H236.206V153.604H237.478ZM236.11 151.642C236.11 151.437 236.172 151.263 236.295 151.122C236.423 150.981 236.609 150.91 236.855 150.91C237.097 150.91 237.282 150.981 237.409 151.122C237.541 151.263 237.607 151.437 237.607 151.642C237.607 151.838 237.541 152.006 237.409 152.147C237.282 152.284 237.097 152.353 236.855 152.353C236.609 152.353 236.423 152.284 236.295 152.147C236.172 152.006 236.11 151.838 236.11 151.642ZM240.772 155.183V161H239.508V153.604H240.704L240.772 155.183ZM240.472 157.021L239.945 157.001C239.95 156.495 240.025 156.028 240.171 155.6C240.317 155.167 240.522 154.791 240.786 154.472C241.05 154.153 241.365 153.907 241.729 153.733C242.099 153.556 242.507 153.467 242.953 153.467C243.318 153.467 243.646 153.517 243.938 153.617C244.229 153.713 244.478 153.868 244.683 154.082C244.892 154.296 245.052 154.574 245.161 154.916C245.271 155.253 245.325 155.666 245.325 156.153V161H244.054V156.14C244.054 155.752 243.997 155.442 243.883 155.21C243.769 154.973 243.603 154.802 243.384 154.697C243.165 154.588 242.896 154.533 242.577 154.533C242.263 154.533 241.976 154.599 241.716 154.731C241.461 154.864 241.24 155.046 241.053 155.278C240.87 155.511 240.727 155.777 240.622 156.078C240.522 156.374 240.472 156.689 240.472 157.021ZM252.605 161H251.341V152.824C251.341 152.291 251.437 151.842 251.628 151.478C251.824 151.108 252.104 150.83 252.469 150.644C252.833 150.452 253.266 150.356 253.768 150.356C253.913 150.356 254.059 150.366 254.205 150.384C254.355 150.402 254.501 150.429 254.643 150.466L254.574 151.498C254.479 151.475 254.369 151.459 254.246 151.45C254.128 151.441 254.009 151.437 253.891 151.437C253.622 151.437 253.389 151.491 253.193 151.601C253.002 151.705 252.856 151.86 252.756 152.065C252.656 152.271 252.605 152.523 252.605 152.824V161ZM254.178 153.604V154.574H250.172V153.604H254.178ZM255.251 157.384V157.227C255.251 156.693 255.328 156.199 255.483 155.743C255.638 155.283 255.862 154.884 256.153 154.547C256.445 154.205 256.798 153.941 257.213 153.754C257.628 153.562 258.092 153.467 258.607 153.467C259.127 153.467 259.594 153.562 260.009 153.754C260.428 153.941 260.784 154.205 261.075 154.547C261.371 154.884 261.597 155.283 261.752 155.743C261.907 156.199 261.984 156.693 261.984 157.227V157.384C261.984 157.917 261.907 158.411 261.752 158.867C261.597 159.323 261.371 159.722 261.075 160.063C260.784 160.401 260.43 160.665 260.016 160.856C259.605 161.043 259.141 161.137 258.621 161.137C258.102 161.137 257.634 161.043 257.22 160.856C256.805 160.665 256.45 160.401 256.153 160.063C255.862 159.722 255.638 159.323 255.483 158.867C255.328 158.411 255.251 157.917 255.251 157.384ZM256.516 157.227V157.384C256.516 157.753 256.559 158.102 256.646 158.43C256.732 158.753 256.862 159.04 257.035 159.291C257.213 159.542 257.434 159.74 257.698 159.886C257.963 160.027 258.27 160.098 258.621 160.098C258.967 160.098 259.271 160.027 259.53 159.886C259.795 159.74 260.013 159.542 260.187 159.291C260.36 159.04 260.49 158.753 260.576 158.43C260.667 158.102 260.713 157.753 260.713 157.384V157.227C260.713 156.862 260.667 156.518 260.576 156.194C260.49 155.866 260.357 155.577 260.18 155.326C260.007 155.071 259.788 154.87 259.523 154.725C259.264 154.579 258.958 154.506 258.607 154.506C258.261 154.506 257.956 154.579 257.691 154.725C257.432 154.87 257.213 155.071 257.035 155.326C256.862 155.577 256.732 155.866 256.646 156.194C256.559 156.518 256.516 156.862 256.516 157.227ZM264.835 154.766V161H263.57V153.604H264.801L264.835 154.766ZM267.146 153.562L267.139 154.738C267.034 154.715 266.934 154.702 266.838 154.697C266.747 154.688 266.642 154.684 266.523 154.684C266.232 154.684 265.974 154.729 265.751 154.82C265.528 154.911 265.339 155.039 265.184 155.203C265.029 155.367 264.906 155.563 264.814 155.791C264.728 156.014 264.671 156.26 264.644 156.529L264.288 156.734C264.288 156.288 264.331 155.868 264.418 155.477C264.509 155.085 264.648 154.738 264.835 154.438C265.022 154.132 265.259 153.895 265.546 153.727C265.838 153.553 266.184 153.467 266.585 153.467C266.676 153.467 266.781 153.478 266.899 153.501C267.018 153.519 267.1 153.54 267.146 153.562ZM273.052 150.5V161H271.787V150.5H273.052ZM272.751 157.021L272.225 157.001C272.229 156.495 272.304 156.028 272.45 155.6C272.596 155.167 272.801 154.791 273.065 154.472C273.33 154.153 273.644 153.907 274.009 153.733C274.378 153.556 274.786 153.467 275.232 153.467C275.597 153.467 275.925 153.517 276.217 153.617C276.508 153.713 276.757 153.868 276.962 154.082C277.172 154.296 277.331 154.574 277.44 154.916C277.55 155.253 277.604 155.666 277.604 156.153V161H276.333V156.14C276.333 155.752 276.276 155.442 276.162 155.21C276.048 154.973 275.882 154.802 275.663 154.697C275.444 154.588 275.175 154.533 274.856 154.533C274.542 154.533 274.255 154.599 273.995 154.731C273.74 154.864 273.519 155.046 273.332 155.278C273.15 155.511 273.006 155.777 272.901 156.078C272.801 156.374 272.751 156.689 272.751 157.021ZM282.567 161.137C282.052 161.137 281.585 161.05 281.166 160.877C280.751 160.699 280.394 160.451 280.093 160.132C279.797 159.813 279.569 159.435 279.409 158.997C279.25 158.56 279.17 158.081 279.17 157.562V157.274C279.17 156.673 279.259 156.137 279.437 155.668C279.614 155.194 279.856 154.793 280.161 154.465C280.466 154.137 280.813 153.888 281.2 153.72C281.588 153.551 281.989 153.467 282.403 153.467C282.932 153.467 283.388 153.558 283.771 153.74C284.158 153.923 284.475 154.178 284.721 154.506C284.967 154.829 285.149 155.212 285.268 155.654C285.386 156.092 285.445 156.57 285.445 157.09V157.657H279.922V156.625H284.181V156.529C284.162 156.201 284.094 155.882 283.976 155.572C283.862 155.262 283.679 155.007 283.429 154.807C283.178 154.606 282.836 154.506 282.403 154.506C282.116 154.506 281.852 154.567 281.61 154.69C281.369 154.809 281.161 154.987 280.988 155.224C280.815 155.461 280.681 155.75 280.585 156.092C280.489 156.434 280.441 156.828 280.441 157.274V157.562C280.441 157.912 280.489 158.243 280.585 158.553C280.685 158.858 280.829 159.127 281.016 159.359C281.207 159.592 281.437 159.774 281.706 159.906C281.979 160.038 282.289 160.104 282.636 160.104C283.082 160.104 283.461 160.013 283.771 159.831C284.08 159.649 284.352 159.405 284.584 159.1L285.35 159.708C285.19 159.95 284.987 160.18 284.741 160.398C284.495 160.617 284.192 160.795 283.832 160.932C283.477 161.068 283.055 161.137 282.567 161.137ZM288.296 150.5V161H287.024V150.5H288.296ZM291.591 155.025V163.844H290.319V153.604H291.481L291.591 155.025ZM296.574 157.24V157.384C296.574 157.922 296.51 158.421 296.383 158.881C296.255 159.337 296.068 159.733 295.822 160.07C295.581 160.408 295.282 160.67 294.927 160.856C294.571 161.043 294.163 161.137 293.703 161.137C293.234 161.137 292.819 161.059 292.459 160.904C292.099 160.749 291.794 160.524 291.543 160.228C291.292 159.931 291.092 159.576 290.941 159.161C290.796 158.746 290.695 158.279 290.641 157.76V156.994C290.695 156.447 290.798 155.957 290.948 155.524C291.099 155.091 291.297 154.722 291.543 154.417C291.794 154.107 292.097 153.872 292.452 153.713C292.808 153.549 293.218 153.467 293.683 153.467C294.147 153.467 294.56 153.558 294.92 153.74C295.28 153.918 295.583 154.173 295.829 154.506C296.075 154.839 296.26 155.237 296.383 155.702C296.51 156.162 296.574 156.675 296.574 157.24ZM295.303 157.384V157.24C295.303 156.871 295.264 156.525 295.187 156.201C295.109 155.873 294.988 155.586 294.824 155.34C294.665 155.089 294.46 154.893 294.209 154.752C293.958 154.606 293.66 154.533 293.313 154.533C292.994 154.533 292.716 154.588 292.479 154.697C292.247 154.807 292.049 154.955 291.885 155.142C291.721 155.324 291.586 155.534 291.481 155.771C291.381 156.003 291.306 156.244 291.256 156.495V158.266C291.347 158.585 291.475 158.885 291.639 159.168C291.803 159.446 292.021 159.672 292.295 159.845C292.568 160.013 292.912 160.098 293.327 160.098C293.669 160.098 293.963 160.027 294.209 159.886C294.46 159.74 294.665 159.542 294.824 159.291C294.988 159.04 295.109 158.753 295.187 158.43C295.264 158.102 295.303 157.753 295.303 157.384ZM303.349 161H302.084V152.961C302.084 152.4 302.193 151.926 302.412 151.539C302.631 151.152 302.943 150.858 303.349 150.657C303.754 150.457 304.235 150.356 304.791 150.356C305.119 150.356 305.44 150.397 305.755 150.479C306.069 150.557 306.393 150.655 306.726 150.773L306.514 151.84C306.304 151.758 306.06 151.68 305.782 151.607C305.509 151.53 305.208 151.491 304.88 151.491C304.338 151.491 303.946 151.614 303.704 151.86C303.467 152.102 303.349 152.469 303.349 152.961V161ZM304.859 153.604V154.574H300.915V153.604H304.859ZM307.348 153.604V161H306.083V153.604H307.348ZM310.69 155.183V161H309.426V153.604H310.622L310.69 155.183ZM310.39 157.021L309.863 157.001C309.868 156.495 309.943 156.028 310.089 155.6C310.235 155.167 310.44 154.791 310.704 154.472C310.968 154.153 311.283 153.907 311.647 153.733C312.017 153.556 312.424 153.467 312.871 153.467C313.236 153.467 313.564 153.517 313.855 153.617C314.147 153.713 314.396 153.868 314.601 154.082C314.81 154.296 314.97 154.574 315.079 154.916C315.188 155.253 315.243 155.666 315.243 156.153V161H313.972V156.14C313.972 155.752 313.915 155.442 313.801 155.21C313.687 154.973 313.521 154.802 313.302 154.697C313.083 154.588 312.814 154.533 312.495 154.533C312.181 154.533 311.894 154.599 311.634 154.731C311.379 154.864 311.158 155.046 310.971 155.278C310.788 155.511 310.645 155.777 310.54 156.078C310.44 156.374 310.39 156.689 310.39 157.021ZM321.826 159.564V150.5H323.098V161H321.936L321.826 159.564ZM316.85 157.384V157.24C316.85 156.675 316.918 156.162 317.055 155.702C317.196 155.237 317.394 154.839 317.649 154.506C317.909 154.173 318.217 153.918 318.572 153.74C318.932 153.558 319.333 153.467 319.775 153.467C320.24 153.467 320.646 153.549 320.992 153.713C321.343 153.872 321.639 154.107 321.881 154.417C322.127 154.722 322.321 155.091 322.462 155.524C322.603 155.957 322.701 156.447 322.756 156.994V157.623C322.706 158.165 322.608 158.653 322.462 159.086C322.321 159.519 322.127 159.888 321.881 160.193C321.639 160.499 321.343 160.733 320.992 160.897C320.641 161.057 320.231 161.137 319.762 161.137C319.329 161.137 318.932 161.043 318.572 160.856C318.217 160.67 317.909 160.408 317.649 160.07C317.394 159.733 317.196 159.337 317.055 158.881C316.918 158.421 316.85 157.922 316.85 157.384ZM318.121 157.24V157.384C318.121 157.753 318.158 158.099 318.23 158.423C318.308 158.746 318.426 159.031 318.586 159.277C318.745 159.523 318.948 159.717 319.194 159.858C319.44 159.995 319.734 160.063 320.076 160.063C320.495 160.063 320.84 159.975 321.108 159.797C321.382 159.619 321.601 159.384 321.765 159.093C321.929 158.801 322.056 158.484 322.147 158.143V156.495C322.093 156.244 322.013 156.003 321.908 155.771C321.808 155.534 321.676 155.324 321.512 155.142C321.352 154.955 321.154 154.807 320.917 154.697C320.685 154.588 320.409 154.533 320.09 154.533C319.743 154.533 319.445 154.606 319.194 154.752C318.948 154.893 318.745 155.089 318.586 155.34C318.426 155.586 318.308 155.873 318.23 156.201C318.158 156.525 318.121 156.871 318.121 157.24ZM326.44 153.604V161H325.169V153.604H326.44ZM325.073 151.642C325.073 151.437 325.135 151.263 325.258 151.122C325.385 150.981 325.572 150.91 325.818 150.91C326.06 150.91 326.244 150.981 326.372 151.122C326.504 151.263 326.57 151.437 326.57 151.642C326.57 151.838 326.504 152.006 326.372 152.147C326.244 152.284 326.06 152.353 325.818 152.353C325.572 152.353 325.385 152.284 325.258 152.147C325.135 152.006 325.073 151.838 325.073 151.642ZM329.735 155.183V161H328.471V153.604H329.667L329.735 155.183ZM329.435 157.021L328.908 157.001C328.913 156.495 328.988 156.028 329.134 155.6C329.28 155.167 329.485 154.791 329.749 154.472C330.013 154.153 330.328 153.907 330.692 153.733C331.062 153.556 331.469 153.467 331.916 153.467C332.281 153.467 332.609 153.517 332.9 153.617C333.192 153.713 333.44 153.868 333.646 154.082C333.855 154.296 334.015 154.574 334.124 154.916C334.233 155.253 334.288 155.666 334.288 156.153V161H333.017V156.14C333.017 155.752 332.96 155.442 332.846 155.21C332.732 154.973 332.565 154.802 332.347 154.697C332.128 154.588 331.859 154.533 331.54 154.533C331.226 154.533 330.938 154.599 330.679 154.731C330.424 154.864 330.202 155.046 330.016 155.278C329.833 155.511 329.69 155.777 329.585 156.078C329.485 156.374 329.435 156.689 329.435 157.021ZM341.001 153.604H342.149V160.843C342.149 161.494 342.017 162.05 341.753 162.511C341.489 162.971 341.119 163.32 340.646 163.557C340.176 163.798 339.634 163.919 339.019 163.919C338.763 163.919 338.463 163.878 338.116 163.796C337.774 163.718 337.437 163.584 337.104 163.393C336.776 163.206 336.501 162.953 336.277 162.634L336.94 161.882C337.25 162.256 337.574 162.515 337.911 162.661C338.253 162.807 338.59 162.88 338.923 162.88C339.324 162.88 339.67 162.805 339.962 162.654C340.254 162.504 340.479 162.281 340.639 161.984C340.803 161.693 340.885 161.333 340.885 160.904V155.23L341.001 153.604ZM335.908 157.384V157.24C335.908 156.675 335.974 156.162 336.106 155.702C336.243 155.237 336.437 154.839 336.688 154.506C336.943 154.173 337.25 153.918 337.61 153.74C337.97 153.558 338.376 153.467 338.827 153.467C339.292 153.467 339.698 153.549 340.044 153.713C340.395 153.872 340.691 154.107 340.933 154.417C341.179 154.722 341.372 155.091 341.514 155.524C341.655 155.957 341.753 156.447 341.808 156.994V157.623C341.757 158.165 341.66 158.653 341.514 159.086C341.372 159.519 341.179 159.888 340.933 160.193C340.691 160.499 340.395 160.733 340.044 160.897C339.693 161.057 339.283 161.137 338.813 161.137C338.371 161.137 337.97 161.043 337.61 160.856C337.255 160.67 336.95 160.408 336.694 160.07C336.439 159.733 336.243 159.337 336.106 158.881C335.974 158.421 335.908 157.922 335.908 157.384ZM337.173 157.24V157.384C337.173 157.753 337.209 158.099 337.282 158.423C337.36 158.746 337.476 159.031 337.631 159.277C337.79 159.523 337.993 159.717 338.239 159.858C338.485 159.995 338.779 160.063 339.121 160.063C339.54 160.063 339.887 159.975 340.16 159.797C340.434 159.619 340.65 159.384 340.81 159.093C340.974 158.801 341.101 158.484 341.192 158.143V156.495C341.142 156.244 341.065 156.003 340.96 155.771C340.86 155.534 340.728 155.324 340.563 155.142C340.404 154.955 340.206 154.807 339.969 154.697C339.732 154.588 339.454 154.533 339.135 154.533C338.788 154.533 338.49 154.606 338.239 154.752C337.993 154.893 337.79 155.089 337.631 155.34C337.476 155.586 337.36 155.873 337.282 156.201C337.209 156.525 337.173 156.871 337.173 157.24ZM350.64 153.604V154.574H346.641V153.604H350.64ZM347.994 151.806H349.259V159.168C349.259 159.419 349.298 159.608 349.375 159.735C349.452 159.863 349.553 159.947 349.676 159.988C349.799 160.029 349.931 160.05 350.072 160.05C350.177 160.05 350.286 160.041 350.4 160.022C350.519 160 350.608 159.981 350.667 159.968L350.674 161C350.574 161.032 350.441 161.062 350.277 161.089C350.118 161.121 349.924 161.137 349.696 161.137C349.386 161.137 349.102 161.075 348.842 160.952C348.582 160.829 348.375 160.624 348.22 160.337C348.069 160.045 347.994 159.653 347.994 159.161V151.806ZM353.388 150.5V161H352.123V150.5H353.388ZM353.087 157.021L352.561 157.001C352.565 156.495 352.64 156.028 352.786 155.6C352.932 155.167 353.137 154.791 353.401 154.472C353.666 154.153 353.98 153.907 354.345 153.733C354.714 153.556 355.122 153.467 355.568 153.467C355.933 153.467 356.261 153.517 356.553 153.617C356.844 153.713 357.093 153.868 357.298 154.082C357.507 154.296 357.667 154.574 357.776 154.916C357.886 155.253 357.94 155.666 357.94 156.153V161H356.669V156.14C356.669 155.752 356.612 155.442 356.498 155.21C356.384 154.973 356.218 154.802 355.999 154.697C355.78 154.588 355.511 154.533 355.192 154.533C354.878 154.533 354.591 154.599 354.331 154.731C354.076 154.864 353.855 155.046 353.668 155.278C353.486 155.511 353.342 155.777 353.237 156.078C353.137 156.374 353.087 156.689 353.087 157.021ZM362.903 161.137C362.388 161.137 361.921 161.05 361.502 160.877C361.087 160.699 360.729 160.451 360.429 160.132C360.132 159.813 359.905 159.435 359.745 158.997C359.586 158.56 359.506 158.081 359.506 157.562V157.274C359.506 156.673 359.595 156.137 359.772 155.668C359.95 155.194 360.192 154.793 360.497 154.465C360.802 154.137 361.149 153.888 361.536 153.72C361.924 153.551 362.325 153.467 362.739 153.467C363.268 153.467 363.724 153.558 364.106 153.74C364.494 153.923 364.811 154.178 365.057 154.506C365.303 154.829 365.485 155.212 365.604 155.654C365.722 156.092 365.781 156.57 365.781 157.09V157.657H360.258V156.625H364.517V156.529C364.498 156.201 364.43 155.882 364.312 155.572C364.198 155.262 364.015 155.007 363.765 154.807C363.514 154.606 363.172 154.506 362.739 154.506C362.452 154.506 362.188 154.567 361.946 154.69C361.705 154.809 361.497 154.987 361.324 155.224C361.151 155.461 361.017 155.75 360.921 156.092C360.825 156.434 360.777 156.828 360.777 157.274V157.562C360.777 157.912 360.825 158.243 360.921 158.553C361.021 158.858 361.165 159.127 361.352 159.359C361.543 159.592 361.773 159.774 362.042 159.906C362.315 160.038 362.625 160.104 362.972 160.104C363.418 160.104 363.797 160.013 364.106 159.831C364.416 159.649 364.688 159.405 364.92 159.1L365.686 159.708C365.526 159.95 365.323 160.18 365.077 160.398C364.831 160.617 364.528 160.795 364.168 160.932C363.812 161.068 363.391 161.137 362.903 161.137ZM371.995 154.766V161H370.73V153.604H371.961L371.995 154.766ZM374.306 153.562L374.299 154.738C374.194 154.715 374.094 154.702 373.998 154.697C373.907 154.688 373.802 154.684 373.684 154.684C373.392 154.684 373.134 154.729 372.911 154.82C372.688 154.911 372.499 155.039 372.344 155.203C372.189 155.367 372.066 155.563 371.975 155.791C371.888 156.014 371.831 156.26 371.804 156.529L371.448 156.734C371.448 156.288 371.492 155.868 371.578 155.477C371.669 155.085 371.808 154.738 371.995 154.438C372.182 154.132 372.419 153.895 372.706 153.727C372.998 153.553 373.344 153.467 373.745 153.467C373.836 153.467 373.941 153.478 374.06 153.501C374.178 153.519 374.26 153.54 374.306 153.562ZM376.849 153.604V161H375.577V153.604H376.849ZM375.481 151.642C375.481 151.437 375.543 151.263 375.666 151.122C375.794 150.981 375.98 150.91 376.227 150.91C376.468 150.91 376.653 150.981 376.78 151.122C376.912 151.263 376.979 151.437 376.979 151.642C376.979 151.838 376.912 152.006 376.78 152.147C376.653 152.284 376.468 152.353 376.227 152.353C375.98 152.353 375.794 152.284 375.666 152.147C375.543 152.006 375.481 151.838 375.481 151.642ZM383.671 153.604H384.819V160.843C384.819 161.494 384.687 162.05 384.423 162.511C384.159 162.971 383.789 163.32 383.315 163.557C382.846 163.798 382.304 163.919 381.688 163.919C381.433 163.919 381.132 163.878 380.786 163.796C380.444 163.718 380.107 163.584 379.774 163.393C379.446 163.206 379.171 162.953 378.947 162.634L379.61 161.882C379.92 162.256 380.244 162.515 380.581 162.661C380.923 162.807 381.26 162.88 381.593 162.88C381.994 162.88 382.34 162.805 382.632 162.654C382.924 162.504 383.149 162.281 383.309 161.984C383.473 161.693 383.555 161.333 383.555 160.904V155.23L383.671 153.604ZM378.578 157.384V157.24C378.578 156.675 378.644 156.162 378.776 155.702C378.913 155.237 379.107 154.839 379.357 154.506C379.613 154.173 379.92 153.918 380.28 153.74C380.64 153.558 381.046 153.467 381.497 153.467C381.962 153.467 382.368 153.549 382.714 153.713C383.065 153.872 383.361 154.107 383.603 154.417C383.849 154.722 384.042 155.091 384.184 155.524C384.325 155.957 384.423 156.447 384.478 156.994V157.623C384.427 158.165 384.329 158.653 384.184 159.086C384.042 159.519 383.849 159.888 383.603 160.193C383.361 160.499 383.065 160.733 382.714 160.897C382.363 161.057 381.953 161.137 381.483 161.137C381.041 161.137 380.64 161.043 380.28 160.856C379.925 160.67 379.619 160.408 379.364 160.07C379.109 159.733 378.913 159.337 378.776 158.881C378.644 158.421 378.578 157.922 378.578 157.384ZM379.843 157.24V157.384C379.843 157.753 379.879 158.099 379.952 158.423C380.03 158.746 380.146 159.031 380.301 159.277C380.46 159.523 380.663 159.717 380.909 159.858C381.155 159.995 381.449 160.063 381.791 160.063C382.21 160.063 382.557 159.975 382.83 159.797C383.104 159.619 383.32 159.384 383.479 159.093C383.644 158.801 383.771 158.484 383.862 158.143V156.495C383.812 156.244 383.735 156.003 383.63 155.771C383.53 155.534 383.397 155.324 383.233 155.142C383.074 154.955 382.876 154.807 382.639 154.697C382.402 154.588 382.124 154.533 381.805 154.533C381.458 154.533 381.16 154.606 380.909 154.752C380.663 154.893 380.46 155.089 380.301 155.34C380.146 155.586 380.03 155.873 379.952 156.201C379.879 156.525 379.843 156.871 379.843 157.24ZM388.005 150.5V161H386.74V150.5H388.005ZM387.704 157.021L387.178 157.001C387.182 156.495 387.257 156.028 387.403 155.6C387.549 155.167 387.754 154.791 388.019 154.472C388.283 154.153 388.597 153.907 388.962 153.733C389.331 153.556 389.739 153.467 390.186 153.467C390.55 153.467 390.878 153.517 391.17 153.617C391.462 153.713 391.71 153.868 391.915 154.082C392.125 154.296 392.284 154.574 392.394 154.916C392.503 155.253 392.558 155.666 392.558 156.153V161H391.286V156.14C391.286 155.752 391.229 155.442 391.115 155.21C391.001 154.973 390.835 154.802 390.616 154.697C390.397 154.588 390.129 154.533 389.81 154.533C389.495 154.533 389.208 154.599 388.948 154.731C388.693 154.864 388.472 155.046 388.285 155.278C388.103 155.511 387.959 155.777 387.854 156.078C387.754 156.374 387.704 156.689 387.704 157.021ZM397.548 153.604V154.574H393.549V153.604H397.548ZM394.902 151.806H396.167V159.168C396.167 159.419 396.206 159.608 396.283 159.735C396.361 159.863 396.461 159.947 396.584 159.988C396.707 160.029 396.839 160.05 396.98 160.05C397.085 160.05 397.195 160.041 397.309 160.022C397.427 160 397.516 159.981 397.575 159.968L397.582 161C397.482 161.032 397.35 161.062 397.186 161.089C397.026 161.121 396.832 161.137 396.604 161.137C396.295 161.137 396.01 161.075 395.75 160.952C395.49 160.829 395.283 160.624 395.128 160.337C394.978 160.045 394.902 159.653 394.902 159.161V151.806ZM403.769 155.025V163.844H402.497V153.604H403.659L403.769 155.025ZM408.752 157.24V157.384C408.752 157.922 408.688 158.421 408.561 158.881C408.433 159.337 408.246 159.733 408 160.07C407.758 160.408 407.46 160.67 407.104 160.856C406.749 161.043 406.341 161.137 405.881 161.137C405.411 161.137 404.997 161.059 404.637 160.904C404.277 160.749 403.971 160.524 403.721 160.228C403.47 159.931 403.27 159.576 403.119 159.161C402.973 158.746 402.873 158.279 402.818 157.76V156.994C402.873 156.447 402.976 155.957 403.126 155.524C403.276 155.091 403.475 154.722 403.721 154.417C403.971 154.107 404.274 153.872 404.63 153.713C404.985 153.549 405.396 153.467 405.86 153.467C406.325 153.467 406.738 153.558 407.098 153.74C407.458 153.918 407.761 154.173 408.007 154.506C408.253 154.839 408.438 155.237 408.561 155.702C408.688 156.162 408.752 156.675 408.752 157.24ZM407.48 157.384V157.24C407.48 156.871 407.442 156.525 407.364 156.201C407.287 155.873 407.166 155.586 407.002 155.34C406.842 155.089 406.637 154.893 406.387 154.752C406.136 154.606 405.838 154.533 405.491 154.533C405.172 154.533 404.894 154.588 404.657 154.697C404.425 154.807 404.227 154.955 404.062 155.142C403.898 155.324 403.764 155.534 403.659 155.771C403.559 156.003 403.484 156.244 403.434 156.495V158.266C403.525 158.585 403.652 158.885 403.816 159.168C403.98 159.446 404.199 159.672 404.473 159.845C404.746 160.013 405.09 160.098 405.505 160.098C405.847 160.098 406.141 160.027 406.387 159.886C406.637 159.74 406.842 159.542 407.002 159.291C407.166 159.04 407.287 158.753 407.364 158.43C407.442 158.102 407.48 157.753 407.48 157.384ZM414.727 159.735V155.928C414.727 155.636 414.667 155.383 414.549 155.169C414.435 154.95 414.262 154.782 414.029 154.663C413.797 154.545 413.51 154.485 413.168 154.485C412.849 154.485 412.569 154.54 412.327 154.649C412.09 154.759 411.903 154.902 411.767 155.08C411.634 155.258 411.568 155.449 411.568 155.654H410.304C410.304 155.39 410.372 155.128 410.509 154.868C410.646 154.608 410.841 154.374 411.097 154.164C411.356 153.95 411.666 153.781 412.026 153.658C412.391 153.531 412.797 153.467 413.243 153.467C413.781 153.467 414.255 153.558 414.665 153.74C415.08 153.923 415.403 154.198 415.636 154.567C415.873 154.932 415.991 155.39 415.991 155.941V159.387C415.991 159.633 416.012 159.895 416.053 160.173C416.098 160.451 416.164 160.69 416.251 160.891V161H414.932C414.868 160.854 414.818 160.66 414.781 160.419C414.745 160.173 414.727 159.945 414.727 159.735ZM414.945 156.516L414.959 157.404H413.681C413.321 157.404 412.999 157.434 412.717 157.493C412.434 157.548 412.197 157.632 412.006 157.746C411.814 157.86 411.669 158.004 411.568 158.177C411.468 158.345 411.418 158.544 411.418 158.771C411.418 159.004 411.47 159.216 411.575 159.407C411.68 159.599 411.837 159.751 412.047 159.865C412.261 159.975 412.523 160.029 412.833 160.029C413.22 160.029 413.562 159.947 413.858 159.783C414.155 159.619 414.389 159.419 414.562 159.182C414.74 158.945 414.836 158.715 414.85 158.491L415.39 159.1C415.358 159.291 415.271 159.503 415.13 159.735C414.989 159.968 414.799 160.191 414.562 160.405C414.33 160.615 414.052 160.79 413.729 160.932C413.41 161.068 413.049 161.137 412.648 161.137C412.147 161.137 411.707 161.039 411.329 160.843C410.955 160.647 410.664 160.385 410.454 160.057C410.249 159.724 410.146 159.353 410.146 158.942C410.146 158.546 410.224 158.197 410.379 157.896C410.534 157.591 410.757 157.338 411.049 157.138C411.34 156.933 411.691 156.778 412.102 156.673C412.512 156.568 412.97 156.516 413.476 156.516H414.945ZM422.772 153.604H423.921V160.843C423.921 161.494 423.789 162.05 423.524 162.511C423.26 162.971 422.891 163.32 422.417 163.557C421.948 163.798 421.405 163.919 420.79 163.919C420.535 163.919 420.234 163.878 419.888 163.796C419.546 163.718 419.209 163.584 418.876 163.393C418.548 163.206 418.272 162.953 418.049 162.634L418.712 161.882C419.022 162.256 419.345 162.515 419.683 162.661C420.024 162.807 420.362 162.88 420.694 162.88C421.095 162.88 421.442 162.805 421.733 162.654C422.025 162.504 422.251 162.281 422.41 161.984C422.574 161.693 422.656 161.333 422.656 160.904V155.23L422.772 153.604ZM417.68 157.384V157.24C417.68 156.675 417.746 156.162 417.878 155.702C418.015 155.237 418.208 154.839 418.459 154.506C418.714 154.173 419.022 153.918 419.382 153.74C419.742 153.558 420.147 153.467 420.599 153.467C421.063 153.467 421.469 153.549 421.815 153.713C422.166 153.872 422.463 154.107 422.704 154.417C422.95 154.722 423.144 155.091 423.285 155.524C423.426 155.957 423.524 156.447 423.579 156.994V157.623C423.529 158.165 423.431 158.653 423.285 159.086C423.144 159.519 422.95 159.888 422.704 160.193C422.463 160.499 422.166 160.733 421.815 160.897C421.465 161.057 421.054 161.137 420.585 161.137C420.143 161.137 419.742 161.043 419.382 160.856C419.026 160.67 418.721 160.408 418.466 160.07C418.211 159.733 418.015 159.337 417.878 158.881C417.746 158.421 417.68 157.922 417.68 157.384ZM418.944 157.24V157.384C418.944 157.753 418.981 158.099 419.054 158.423C419.131 158.746 419.247 159.031 419.402 159.277C419.562 159.523 419.765 159.717 420.011 159.858C420.257 159.995 420.551 160.063 420.893 160.063C421.312 160.063 421.658 159.975 421.932 159.797C422.205 159.619 422.422 159.384 422.581 159.093C422.745 158.801 422.873 158.484 422.964 158.143V156.495C422.914 156.244 422.836 156.003 422.731 155.771C422.631 155.534 422.499 155.324 422.335 155.142C422.175 154.955 421.977 154.807 421.74 154.697C421.503 154.588 421.225 154.533 420.906 154.533C420.56 154.533 420.261 154.606 420.011 154.752C419.765 154.893 419.562 155.089 419.402 155.34C419.247 155.586 419.131 155.873 419.054 156.201C418.981 156.525 418.944 156.871 418.944 157.24ZM428.911 161.137C428.396 161.137 427.929 161.05 427.51 160.877C427.095 160.699 426.737 160.451 426.437 160.132C426.14 159.813 425.912 159.435 425.753 158.997C425.593 158.56 425.514 158.081 425.514 157.562V157.274C425.514 156.673 425.603 156.137 425.78 155.668C425.958 155.194 426.2 154.793 426.505 154.465C426.81 154.137 427.157 153.888 427.544 153.72C427.931 153.551 428.332 153.467 428.747 153.467C429.276 153.467 429.731 153.558 430.114 153.74C430.502 153.923 430.818 154.178 431.064 154.506C431.311 154.829 431.493 155.212 431.611 155.654C431.73 156.092 431.789 156.57 431.789 157.09V157.657H426.266V156.625H430.524V156.529C430.506 156.201 430.438 155.882 430.319 155.572C430.205 155.262 430.023 155.007 429.772 154.807C429.522 154.606 429.18 154.506 428.747 154.506C428.46 154.506 428.196 154.567 427.954 154.69C427.713 154.809 427.505 154.987 427.332 155.224C427.159 155.461 427.024 155.75 426.929 156.092C426.833 156.434 426.785 156.828 426.785 157.274V157.562C426.785 157.912 426.833 158.243 426.929 158.553C427.029 158.858 427.173 159.127 427.359 159.359C427.551 159.592 427.781 159.774 428.05 159.906C428.323 160.038 428.633 160.104 428.979 160.104C429.426 160.104 429.804 160.013 430.114 159.831C430.424 159.649 430.695 159.405 430.928 159.1L431.693 159.708C431.534 159.95 431.331 160.18 431.085 160.398C430.839 160.617 430.536 160.795 430.176 160.932C429.82 161.068 429.399 161.137 428.911 161.137ZM433.286 160.33C433.286 160.116 433.352 159.936 433.484 159.79C433.621 159.64 433.817 159.564 434.072 159.564C434.327 159.564 434.521 159.64 434.653 159.79C434.79 159.936 434.858 160.116 434.858 160.33C434.858 160.54 434.79 160.717 434.653 160.863C434.521 161.009 434.327 161.082 434.072 161.082C433.817 161.082 433.621 161.009 433.484 160.863C433.352 160.717 433.286 160.54 433.286 160.33Z" fill="#353535"/>
<path d="M226 56.375C227.422 56.375 228.625 57.5781 228.516 59C228.516 60.5312 227.422 61.625 226 61.625C224.578 61.625 223.375 60.5312 223.375 59C223.375 57.5781 224.469 56.375 226 56.375ZM226 52C225.016 52 224.25 51.2344 224.25 50.25V34.5C224.25 33.625 225.125 32.75 226 32.75C226.766 32.75 227.641 33.625 227.641 34.5V50.25C227.641 51.2344 226.875 52 226 52ZM253.125 60.5312C254.219 62.3906 254.219 64.5781 253.125 66.4375C252.031 68.4062 250.062 69.5 247.875 69.5H204.125C201.828 69.5 199.859 68.4062 198.766 66.4375C197.672 64.5781 197.672 62.3906 198.766 60.5312L220.641 23.5625C221.734 21.7031 223.703 20.5 226 20.5C228.188 20.6094 230.156 21.7031 231.25 23.5625L253.125 60.5312ZM250.062 64.6875C250.609 63.9219 250.5 63.0469 250.062 62.2812L228.188 25.3125C227.75 24.5469 226.875 24.1094 226 24C225.891 24 226 24 226 24C225.016 24 224.141 24.5469 223.703 25.3125L201.828 62.2812C201.391 63.0469 201.281 63.9219 201.828 64.6875C202.266 65.5625 203.141 66 204.125 66H247.766C248.75 66 249.625 65.5625 250.062 64.6875Z" fill="#6E6E6E"/>
<rect x="155.5" y="181.5" width="141" height="39" rx="3.5" fill="#0174C3" stroke="#016198"/>
<path d="M209.061 201.044V204.688C208.938 204.87 208.742 205.075 208.473 205.303C208.204 205.526 207.832 205.722 207.358 205.891C206.889 206.055 206.283 206.137 205.54 206.137C204.934 206.137 204.376 206.032 203.865 205.822C203.359 205.608 202.92 205.298 202.546 204.893C202.177 204.482 201.89 203.986 201.685 203.402C201.484 202.814 201.384 202.149 201.384 201.406V200.634C201.384 199.891 201.47 199.228 201.644 198.645C201.821 198.061 202.081 197.567 202.423 197.161C202.765 196.751 203.184 196.441 203.681 196.231C204.177 196.017 204.747 195.91 205.39 195.91C206.151 195.91 206.786 196.042 207.297 196.307C207.812 196.566 208.213 196.926 208.5 197.387C208.792 197.847 208.979 198.371 209.061 198.959H207.741C207.682 198.599 207.563 198.271 207.386 197.975C207.213 197.678 206.964 197.441 206.641 197.264C206.317 197.081 205.9 196.99 205.39 196.99C204.929 196.99 204.531 197.075 204.193 197.243C203.856 197.412 203.578 197.653 203.359 197.968C203.141 198.282 202.977 198.663 202.867 199.109C202.762 199.556 202.71 200.06 202.71 200.62V201.406C202.71 201.98 202.776 202.493 202.908 202.944C203.045 203.396 203.239 203.781 203.489 204.1C203.74 204.414 204.038 204.653 204.385 204.817C204.736 204.981 205.123 205.063 205.547 205.063C206.016 205.063 206.397 205.025 206.688 204.947C206.98 204.865 207.208 204.77 207.372 204.66C207.536 204.546 207.661 204.439 207.748 204.339V202.11H205.444V201.044H209.061ZM210.722 202.384V202.227C210.722 201.693 210.799 201.199 210.954 200.743C211.109 200.283 211.332 199.884 211.624 199.547C211.916 199.205 212.269 198.941 212.684 198.754C213.098 198.562 213.563 198.467 214.078 198.467C214.598 198.467 215.065 198.562 215.479 198.754C215.899 198.941 216.254 199.205 216.546 199.547C216.842 199.884 217.068 200.283 217.223 200.743C217.378 201.199 217.455 201.693 217.455 202.227V202.384C217.455 202.917 217.378 203.411 217.223 203.867C217.068 204.323 216.842 204.722 216.546 205.063C216.254 205.401 215.901 205.665 215.486 205.856C215.076 206.043 214.611 206.137 214.092 206.137C213.572 206.137 213.105 206.043 212.69 205.856C212.276 205.665 211.92 205.401 211.624 205.063C211.332 204.722 211.109 204.323 210.954 203.867C210.799 203.411 210.722 202.917 210.722 202.384ZM211.986 202.227V202.384C211.986 202.753 212.03 203.102 212.116 203.43C212.203 203.753 212.333 204.04 212.506 204.291C212.684 204.542 212.905 204.74 213.169 204.886C213.433 205.027 213.741 205.098 214.092 205.098C214.438 205.098 214.741 205.027 215.001 204.886C215.265 204.74 215.484 204.542 215.657 204.291C215.83 204.04 215.96 203.753 216.047 203.43C216.138 203.102 216.184 202.753 216.184 202.384V202.227C216.184 201.862 216.138 201.518 216.047 201.194C215.96 200.866 215.828 200.577 215.65 200.326C215.477 200.071 215.258 199.87 214.994 199.725C214.734 199.579 214.429 199.506 214.078 199.506C213.732 199.506 213.426 199.579 213.162 199.725C212.902 199.87 212.684 200.071 212.506 200.326C212.333 200.577 212.203 200.866 212.116 201.194C212.03 201.518 211.986 201.862 211.986 202.227ZM222.507 195.5H223.778V204.564L223.669 206H222.507V195.5ZM228.775 202.24V202.384C228.775 202.922 228.712 203.421 228.584 203.881C228.456 204.337 228.27 204.733 228.023 205.07C227.777 205.408 227.477 205.67 227.121 205.856C226.766 206.043 226.358 206.137 225.897 206.137C225.428 206.137 225.016 206.057 224.66 205.897C224.309 205.733 224.013 205.499 223.771 205.193C223.53 204.888 223.336 204.519 223.19 204.086C223.049 203.653 222.951 203.165 222.896 202.623V201.994C222.951 201.447 223.049 200.957 223.19 200.524C223.336 200.091 223.53 199.722 223.771 199.417C224.013 199.107 224.309 198.872 224.66 198.713C225.011 198.549 225.419 198.467 225.884 198.467C226.349 198.467 226.761 198.558 227.121 198.74C227.481 198.918 227.782 199.173 228.023 199.506C228.27 199.839 228.456 200.237 228.584 200.702C228.712 201.162 228.775 201.675 228.775 202.24ZM227.504 202.384V202.24C227.504 201.871 227.47 201.525 227.401 201.201C227.333 200.873 227.224 200.586 227.073 200.34C226.923 200.089 226.725 199.893 226.479 199.752C226.232 199.606 225.929 199.533 225.569 199.533C225.25 199.533 224.972 199.588 224.735 199.697C224.503 199.807 224.305 199.955 224.141 200.142C223.977 200.324 223.842 200.534 223.737 200.771C223.637 201.003 223.562 201.244 223.512 201.495V203.143C223.585 203.462 223.703 203.769 223.867 204.065C224.036 204.357 224.259 204.596 224.537 204.783C224.82 204.97 225.168 205.063 225.583 205.063C225.925 205.063 226.216 204.995 226.458 204.858C226.704 204.717 226.902 204.523 227.053 204.277C227.208 204.031 227.322 203.746 227.395 203.423C227.467 203.099 227.504 202.753 227.504 202.384ZM234.736 204.735V200.928C234.736 200.636 234.677 200.383 234.559 200.169C234.445 199.95 234.271 199.782 234.039 199.663C233.807 199.545 233.52 199.485 233.178 199.485C232.859 199.485 232.578 199.54 232.337 199.649C232.1 199.759 231.913 199.902 231.776 200.08C231.644 200.258 231.578 200.449 231.578 200.654H230.313C230.313 200.39 230.382 200.128 230.519 199.868C230.655 199.608 230.851 199.374 231.106 199.164C231.366 198.95 231.676 198.781 232.036 198.658C232.401 198.531 232.806 198.467 233.253 198.467C233.791 198.467 234.265 198.558 234.675 198.74C235.09 198.923 235.413 199.198 235.646 199.567C235.882 199.932 236.001 200.39 236.001 200.941V204.387C236.001 204.633 236.021 204.895 236.062 205.173C236.108 205.451 236.174 205.69 236.261 205.891V206H234.941C234.878 205.854 234.827 205.66 234.791 205.419C234.755 205.173 234.736 204.945 234.736 204.735ZM234.955 201.516L234.969 202.404H233.69C233.33 202.404 233.009 202.434 232.727 202.493C232.444 202.548 232.207 202.632 232.016 202.746C231.824 202.86 231.678 203.004 231.578 203.177C231.478 203.345 231.428 203.544 231.428 203.771C231.428 204.004 231.48 204.216 231.585 204.407C231.69 204.599 231.847 204.751 232.057 204.865C232.271 204.975 232.533 205.029 232.843 205.029C233.23 205.029 233.572 204.947 233.868 204.783C234.164 204.619 234.399 204.419 234.572 204.182C234.75 203.945 234.846 203.715 234.859 203.491L235.399 204.1C235.368 204.291 235.281 204.503 235.14 204.735C234.998 204.968 234.809 205.191 234.572 205.405C234.34 205.615 234.062 205.79 233.738 205.932C233.419 206.068 233.059 206.137 232.658 206.137C232.157 206.137 231.717 206.039 231.339 205.843C230.965 205.647 230.674 205.385 230.464 205.057C230.259 204.724 230.156 204.353 230.156 203.942C230.156 203.546 230.234 203.197 230.389 202.896C230.544 202.591 230.767 202.338 231.059 202.138C231.35 201.933 231.701 201.778 232.111 201.673C232.521 201.568 232.979 201.516 233.485 201.516H234.955ZM240.95 205.098C241.251 205.098 241.529 205.036 241.784 204.913C242.039 204.79 242.249 204.621 242.413 204.407C242.577 204.188 242.671 203.94 242.693 203.662H243.896C243.874 204.1 243.726 204.507 243.452 204.886C243.183 205.259 242.83 205.562 242.393 205.795C241.955 206.023 241.474 206.137 240.95 206.137C240.394 206.137 239.909 206.039 239.494 205.843C239.084 205.647 238.742 205.378 238.469 205.036C238.2 204.694 237.997 204.302 237.86 203.86C237.728 203.414 237.662 202.942 237.662 202.445V202.158C237.662 201.661 237.728 201.192 237.86 200.75C237.997 200.303 238.2 199.909 238.469 199.567C238.742 199.226 239.084 198.957 239.494 198.761C239.909 198.565 240.394 198.467 240.95 198.467C241.529 198.467 242.035 198.585 242.468 198.822C242.901 199.055 243.24 199.374 243.486 199.779C243.737 200.18 243.874 200.636 243.896 201.146H242.693C242.671 200.841 242.584 200.565 242.434 200.319C242.288 200.073 242.087 199.877 241.832 199.731C241.581 199.581 241.287 199.506 240.95 199.506C240.563 199.506 240.237 199.583 239.973 199.738C239.713 199.889 239.506 200.094 239.351 200.354C239.2 200.609 239.091 200.894 239.022 201.208C238.959 201.518 238.927 201.835 238.927 202.158V202.445C238.927 202.769 238.959 203.088 239.022 203.402C239.086 203.717 239.193 204.002 239.344 204.257C239.499 204.512 239.706 204.717 239.966 204.872C240.23 205.022 240.558 205.098 240.95 205.098ZM246.59 195.5V206H245.318V195.5H246.59ZM251.108 198.604L247.882 202.056L246.077 203.929L245.975 202.582L247.267 201.037L249.563 198.604H251.108ZM249.953 206L247.314 202.473L247.971 201.345L251.443 206H249.953Z" fill="white"/>
<rect x="0.5" y="0.5" width="451" height="236" stroke="#8800F2" stroke-dasharray="2 2"/>
</svg>
