<svg width="358" height="319" viewBox="0 0 358 319" fill="none" xmlns="http://www.w3.org/2000/svg">
<g filter="url(#filter0_d_1505_129)">
<rect x="4" width="350" height="311" fill="white"/>
<rect x="4.5" y="0.5" width="349" height="310" stroke="#EFEFEF"/>
</g>
<rect x="4" width="350" height="252" fill="#E0F2F1"/>
<path d="M32.7266 281.336V285.5C32.5859 285.708 32.362 285.943 32.0547 286.203C31.7474 286.458 31.3229 286.682 30.7812 286.875C30.2448 287.062 29.5521 287.156 28.7031 287.156C28.0104 287.156 27.3724 287.036 26.7891 286.797C26.2109 286.552 25.7083 286.198 25.2812 285.734C24.8594 285.266 24.5312 284.698 24.2969 284.031C24.0677 283.359 23.9531 282.599 23.9531 281.75V280.867C23.9531 280.018 24.0521 279.26 24.25 278.594C24.4531 277.927 24.75 277.362 25.1406 276.898C25.5312 276.43 26.0104 276.076 26.5781 275.836C27.1458 275.591 27.7969 275.469 28.5312 275.469C29.401 275.469 30.1276 275.62 30.7109 275.922C31.2995 276.219 31.7578 276.63 32.0859 277.156C32.4193 277.682 32.6328 278.281 32.7266 278.953H31.2188C31.151 278.542 31.0156 278.167 30.8125 277.828C30.6146 277.49 30.3307 277.219 29.9609 277.016C29.5911 276.807 29.1146 276.703 28.5312 276.703C28.0052 276.703 27.5495 276.799 27.1641 276.992C26.7786 277.185 26.4609 277.461 26.2109 277.82C25.9609 278.18 25.7734 278.615 25.6484 279.125C25.5286 279.635 25.4688 280.211 25.4688 280.852V281.75C25.4688 282.406 25.5443 282.992 25.6953 283.508C25.8516 284.023 26.0729 284.464 26.3594 284.828C26.6458 285.188 26.987 285.461 27.3828 285.648C27.7839 285.836 28.2266 285.93 28.7109 285.93C29.2474 285.93 29.6823 285.885 30.0156 285.797C30.349 285.703 30.6094 285.594 30.7969 285.469C30.9844 285.339 31.1276 285.216 31.2266 285.102V282.555H28.5938V281.336H32.7266ZM36.5781 275V287H35.125V275H36.5781ZM38.5156 282.867V282.688C38.5156 282.078 38.6042 281.513 38.7812 280.992C38.9583 280.466 39.2135 280.01 39.5469 279.625C39.8802 279.234 40.2839 278.932 40.7578 278.719C41.2318 278.5 41.763 278.391 42.3516 278.391C42.9453 278.391 43.4792 278.5 43.9531 278.719C44.4323 278.932 44.8385 279.234 45.1719 279.625C45.5104 280.01 45.7682 280.466 45.9453 280.992C46.1224 281.513 46.2109 282.078 46.2109 282.688V282.867C46.2109 283.477 46.1224 284.042 45.9453 284.562C45.7682 285.083 45.5104 285.539 45.1719 285.93C44.8385 286.315 44.4349 286.617 43.9609 286.836C43.4922 287.049 42.9609 287.156 42.3672 287.156C41.7734 287.156 41.2396 287.049 40.7656 286.836C40.2917 286.617 39.8854 286.315 39.5469 285.93C39.2135 285.539 38.9583 285.083 38.7812 284.562C38.6042 284.042 38.5156 283.477 38.5156 282.867ZM39.9609 282.688V282.867C39.9609 283.289 40.0104 283.688 40.1094 284.062C40.2083 284.432 40.3568 284.76 40.5547 285.047C40.7578 285.333 41.0104 285.56 41.3125 285.727C41.6146 285.888 41.9661 285.969 42.3672 285.969C42.763 285.969 43.1094 285.888 43.4062 285.727C43.7083 285.56 43.9583 285.333 44.1562 285.047C44.3542 284.76 44.5026 284.432 44.6016 284.062C44.7057 283.688 44.7578 283.289 44.7578 282.867V282.688C44.7578 282.271 44.7057 281.878 44.6016 281.508C44.5026 281.133 44.3516 280.802 44.1484 280.516C43.9505 280.224 43.7005 279.995 43.3984 279.828C43.1016 279.661 42.7526 279.578 42.3516 279.578C41.9557 279.578 41.6068 279.661 41.3047 279.828C41.0078 279.995 40.7578 280.224 40.5547 280.516C40.3568 280.802 40.2083 281.133 40.1094 281.508C40.0104 281.878 39.9609 282.271 39.9609 282.688ZM48.0156 275H49.4688V285.359L49.3438 287H48.0156V275ZM55.1797 282.703V282.867C55.1797 283.482 55.1068 284.052 54.9609 284.578C54.8151 285.099 54.6016 285.552 54.3203 285.938C54.0391 286.323 53.6953 286.622 53.2891 286.836C52.8828 287.049 52.4167 287.156 51.8906 287.156C51.3542 287.156 50.8828 287.065 50.4766 286.883C50.0755 286.695 49.737 286.427 49.4609 286.078C49.1849 285.729 48.9635 285.307 48.7969 284.812C48.6354 284.318 48.5234 283.76 48.4609 283.141V282.422C48.5234 281.797 48.6354 281.237 48.7969 280.742C48.9635 280.247 49.1849 279.826 49.4609 279.477C49.737 279.122 50.0755 278.854 50.4766 278.672C50.8776 278.484 51.3438 278.391 51.875 278.391C52.4062 278.391 52.8776 278.495 53.2891 278.703C53.7005 278.906 54.0443 279.198 54.3203 279.578C54.6016 279.958 54.8151 280.414 54.9609 280.945C55.1068 281.471 55.1797 282.057 55.1797 282.703ZM53.7266 282.867V282.703C53.7266 282.281 53.6875 281.885 53.6094 281.516C53.5312 281.141 53.4062 280.812 53.2344 280.531C53.0625 280.245 52.8359 280.021 52.5547 279.859C52.2734 279.693 51.9271 279.609 51.5156 279.609C51.151 279.609 50.8333 279.672 50.5625 279.797C50.2969 279.922 50.0703 280.091 49.8828 280.305C49.6953 280.513 49.5417 280.753 49.4219 281.023C49.3073 281.289 49.2214 281.565 49.1641 281.852V283.734C49.2474 284.099 49.3828 284.451 49.5703 284.789C49.763 285.122 50.0182 285.396 50.3359 285.609C50.6589 285.823 51.0573 285.93 51.5312 285.93C51.9219 285.93 52.2552 285.852 52.5312 285.695C52.8125 285.534 53.0391 285.312 53.2109 285.031C53.388 284.75 53.5182 284.424 53.6016 284.055C53.6849 283.685 53.7266 283.289 53.7266 282.867ZM61.9922 285.555V281.203C61.9922 280.87 61.9245 280.581 61.7891 280.336C61.6589 280.086 61.4609 279.893 61.1953 279.758C60.9297 279.622 60.6016 279.555 60.2109 279.555C59.8464 279.555 59.526 279.617 59.25 279.742C58.9792 279.867 58.7656 280.031 58.6094 280.234C58.4583 280.438 58.3828 280.656 58.3828 280.891H56.9375C56.9375 280.589 57.0156 280.289 57.1719 279.992C57.3281 279.695 57.5521 279.427 57.8438 279.188C58.1406 278.943 58.4948 278.75 58.9062 278.609C59.3229 278.464 59.7865 278.391 60.2969 278.391C60.9115 278.391 61.4531 278.495 61.9219 278.703C62.3958 278.911 62.7656 279.227 63.0312 279.648C63.3021 280.065 63.4375 280.589 63.4375 281.219V285.156C63.4375 285.438 63.4609 285.737 63.5078 286.055C63.5599 286.372 63.6354 286.646 63.7344 286.875V287H62.2266C62.1536 286.833 62.0964 286.612 62.0547 286.336C62.013 286.055 61.9922 285.794 61.9922 285.555ZM62.2422 281.875L62.2578 282.891H60.7969C60.3854 282.891 60.0182 282.924 59.6953 282.992C59.3724 283.055 59.1016 283.151 58.8828 283.281C58.6641 283.411 58.4974 283.576 58.3828 283.773C58.2682 283.966 58.2109 284.193 58.2109 284.453C58.2109 284.719 58.2708 284.961 58.3906 285.18C58.5104 285.398 58.6901 285.573 58.9297 285.703C59.1745 285.828 59.474 285.891 59.8281 285.891C60.2708 285.891 60.6615 285.797 61 285.609C61.3385 285.422 61.6068 285.193 61.8047 284.922C62.0078 284.651 62.1172 284.388 62.1328 284.133L62.75 284.828C62.7135 285.047 62.6146 285.289 62.4531 285.555C62.2917 285.82 62.0755 286.076 61.8047 286.32C61.5391 286.56 61.2214 286.76 60.8516 286.922C60.487 287.078 60.0755 287.156 59.6172 287.156C59.0443 287.156 58.5417 287.044 58.1094 286.82C57.6823 286.596 57.349 286.297 57.1094 285.922C56.875 285.542 56.7578 285.117 56.7578 284.648C56.7578 284.195 56.8464 283.797 57.0234 283.453C57.2005 283.104 57.4557 282.815 57.7891 282.586C58.1224 282.352 58.5234 282.174 58.9922 282.055C59.4609 281.935 59.9844 281.875 60.5625 281.875H62.2422ZM67.2812 275V287H65.8281V275H67.2812ZM78.4922 284.758C78.4922 284.549 78.4453 284.357 78.3516 284.18C78.263 283.997 78.0781 283.833 77.7969 283.688C77.5208 283.536 77.1042 283.406 76.5469 283.297C76.0781 283.198 75.6536 283.081 75.2734 282.945C74.8984 282.81 74.5781 282.646 74.3125 282.453C74.0521 282.26 73.8516 282.034 73.7109 281.773C73.5703 281.513 73.5 281.208 73.5 280.859C73.5 280.526 73.5729 280.211 73.7188 279.914C73.8698 279.617 74.0807 279.354 74.3516 279.125C74.6276 278.896 74.9583 278.716 75.3438 278.586C75.7292 278.456 76.1589 278.391 76.6328 278.391C77.3099 278.391 77.888 278.51 78.3672 278.75C78.8464 278.99 79.2135 279.31 79.4688 279.711C79.724 280.107 79.8516 280.547 79.8516 281.031H78.4062C78.4062 280.797 78.3359 280.57 78.1953 280.352C78.0599 280.128 77.8594 279.943 77.5938 279.797C77.3333 279.651 77.013 279.578 76.6328 279.578C76.2318 279.578 75.9062 279.641 75.6562 279.766C75.4115 279.885 75.2318 280.039 75.1172 280.227C75.0078 280.414 74.9531 280.612 74.9531 280.82C74.9531 280.977 74.9792 281.117 75.0312 281.242C75.0885 281.362 75.1875 281.474 75.3281 281.578C75.4688 281.677 75.6667 281.771 75.9219 281.859C76.1771 281.948 76.5026 282.036 76.8984 282.125C77.5911 282.281 78.1615 282.469 78.6094 282.688C79.0573 282.906 79.3906 283.174 79.6094 283.492C79.8281 283.81 79.9375 284.195 79.9375 284.648C79.9375 285.018 79.8594 285.357 79.7031 285.664C79.5521 285.971 79.3307 286.237 79.0391 286.461C78.7526 286.68 78.4089 286.852 78.0078 286.977C77.612 287.096 77.1667 287.156 76.6719 287.156C75.9271 287.156 75.2969 287.023 74.7812 286.758C74.2656 286.492 73.875 286.148 73.6094 285.727C73.3438 285.305 73.2109 284.859 73.2109 284.391H74.6641C74.6849 284.786 74.7995 285.102 75.0078 285.336C75.2161 285.565 75.4714 285.729 75.7734 285.828C76.0755 285.922 76.375 285.969 76.6719 285.969C77.0677 285.969 77.3984 285.917 77.6641 285.812C77.9349 285.708 78.1406 285.565 78.2812 285.383C78.4219 285.201 78.4922 284.992 78.4922 284.758ZM85.3438 287.156C84.7552 287.156 84.2214 287.057 83.7422 286.859C83.2682 286.656 82.8594 286.372 82.5156 286.008C82.1771 285.643 81.9167 285.211 81.7344 284.711C81.5521 284.211 81.4609 283.664 81.4609 283.07V282.742C81.4609 282.055 81.5625 281.443 81.7656 280.906C81.9688 280.365 82.2448 279.906 82.5938 279.531C82.9427 279.156 83.3385 278.872 83.7812 278.68C84.224 278.487 84.6823 278.391 85.1562 278.391C85.7604 278.391 86.2812 278.495 86.7188 278.703C87.1615 278.911 87.5234 279.203 87.8047 279.578C88.0859 279.948 88.2943 280.385 88.4297 280.891C88.5651 281.391 88.6328 281.938 88.6328 282.531V283.18H82.3203V282H87.1875V281.891C87.1667 281.516 87.0885 281.151 86.9531 280.797C86.8229 280.443 86.6146 280.151 86.3281 279.922C86.0417 279.693 85.651 279.578 85.1562 279.578C84.8281 279.578 84.526 279.648 84.25 279.789C83.974 279.924 83.737 280.128 83.5391 280.398C83.3411 280.669 83.1875 281 83.0781 281.391C82.9688 281.781 82.9141 282.232 82.9141 282.742V283.07C82.9141 283.471 82.9688 283.849 83.0781 284.203C83.1927 284.552 83.3568 284.859 83.5703 285.125C83.7891 285.391 84.0521 285.599 84.3594 285.75C84.6719 285.901 85.026 285.977 85.4219 285.977C85.9323 285.977 86.3646 285.872 86.7188 285.664C87.0729 285.456 87.3828 285.177 87.6484 284.828L88.5234 285.523C88.3411 285.799 88.1094 286.062 87.8281 286.312C87.5469 286.562 87.2005 286.766 86.7891 286.922C86.3828 287.078 85.901 287.156 85.3438 287.156ZM93.8594 278.547V279.656H89.2891V278.547H93.8594ZM90.8359 276.492H92.2812V284.906C92.2812 285.193 92.3255 285.409 92.4141 285.555C92.5026 285.701 92.6172 285.797 92.7578 285.844C92.8984 285.891 93.0495 285.914 93.2109 285.914C93.3307 285.914 93.4557 285.904 93.5859 285.883C93.7214 285.857 93.8229 285.836 93.8906 285.82L93.8984 287C93.7839 287.036 93.6328 287.07 93.4453 287.102C93.263 287.138 93.0417 287.156 92.7812 287.156C92.4271 287.156 92.1016 287.086 91.8047 286.945C91.5078 286.805 91.2708 286.57 91.0938 286.242C90.9219 285.909 90.8359 285.461 90.8359 284.898V276.492ZM99.0938 278.547V279.656H94.5234V278.547H99.0938ZM96.0703 276.492H97.5156V284.906C97.5156 285.193 97.5599 285.409 97.6484 285.555C97.737 285.701 97.8516 285.797 97.9922 285.844C98.1328 285.891 98.2839 285.914 98.4453 285.914C98.5651 285.914 98.6901 285.904 98.8203 285.883C98.9557 285.857 99.0573 285.836 99.125 285.82L99.1328 287C99.0182 287.036 98.8672 287.07 98.6797 287.102C98.4974 287.138 98.276 287.156 98.0156 287.156C97.6615 287.156 97.3359 287.086 97.0391 286.945C96.7422 286.805 96.5052 286.57 96.3281 286.242C96.1562 285.909 96.0703 285.461 96.0703 284.898V276.492ZM102.359 278.547V287H100.906V278.547H102.359ZM100.797 276.305C100.797 276.07 100.867 275.872 101.008 275.711C101.154 275.549 101.367 275.469 101.648 275.469C101.924 275.469 102.135 275.549 102.281 275.711C102.432 275.872 102.508 276.07 102.508 276.305C102.508 276.529 102.432 276.721 102.281 276.883C102.135 277.039 101.924 277.117 101.648 277.117C101.367 277.117 101.154 277.039 101.008 276.883C100.867 276.721 100.797 276.529 100.797 276.305ZM106.125 280.352V287H104.68V278.547H106.047L106.125 280.352ZM105.781 282.453L105.18 282.43C105.185 281.852 105.271 281.318 105.438 280.828C105.604 280.333 105.839 279.904 106.141 279.539C106.443 279.174 106.802 278.893 107.219 278.695C107.641 278.492 108.107 278.391 108.617 278.391C109.034 278.391 109.409 278.448 109.742 278.562C110.076 278.672 110.359 278.849 110.594 279.094C110.833 279.339 111.016 279.656 111.141 280.047C111.266 280.432 111.328 280.904 111.328 281.461V287H109.875V281.445C109.875 281.003 109.81 280.648 109.68 280.383C109.549 280.112 109.359 279.917 109.109 279.797C108.859 279.672 108.552 279.609 108.188 279.609C107.828 279.609 107.5 279.685 107.203 279.836C106.911 279.987 106.659 280.195 106.445 280.461C106.237 280.727 106.073 281.031 105.953 281.375C105.839 281.714 105.781 282.073 105.781 282.453ZM119 278.547H120.312V286.82C120.312 287.565 120.161 288.201 119.859 288.727C119.557 289.253 119.135 289.651 118.594 289.922C118.057 290.198 117.438 290.336 116.734 290.336C116.443 290.336 116.099 290.289 115.703 290.195C115.312 290.107 114.927 289.953 114.547 289.734C114.172 289.521 113.857 289.232 113.602 288.867L114.359 288.008C114.714 288.435 115.083 288.732 115.469 288.898C115.859 289.065 116.245 289.148 116.625 289.148C117.083 289.148 117.479 289.062 117.812 288.891C118.146 288.719 118.404 288.464 118.586 288.125C118.773 287.792 118.867 287.38 118.867 286.891V280.406L119 278.547ZM113.18 282.867V282.703C113.18 282.057 113.255 281.471 113.406 280.945C113.562 280.414 113.784 279.958 114.07 279.578C114.362 279.198 114.714 278.906 115.125 278.703C115.536 278.495 116 278.391 116.516 278.391C117.047 278.391 117.51 278.484 117.906 278.672C118.307 278.854 118.646 279.122 118.922 279.477C119.203 279.826 119.424 280.247 119.586 280.742C119.747 281.237 119.859 281.797 119.922 282.422V283.141C119.865 283.76 119.753 284.318 119.586 284.812C119.424 285.307 119.203 285.729 118.922 286.078C118.646 286.427 118.307 286.695 117.906 286.883C117.505 287.065 117.036 287.156 116.5 287.156C115.995 287.156 115.536 287.049 115.125 286.836C114.719 286.622 114.37 286.323 114.078 285.938C113.786 285.552 113.562 285.099 113.406 284.578C113.255 284.052 113.18 283.482 113.18 282.867ZM114.625 282.703V282.867C114.625 283.289 114.667 283.685 114.75 284.055C114.839 284.424 114.971 284.75 115.148 285.031C115.331 285.312 115.562 285.534 115.844 285.695C116.125 285.852 116.461 285.93 116.852 285.93C117.331 285.93 117.727 285.828 118.039 285.625C118.352 285.422 118.599 285.154 118.781 284.82C118.969 284.487 119.115 284.125 119.219 283.734V281.852C119.161 281.565 119.073 281.289 118.953 281.023C118.839 280.753 118.688 280.513 118.5 280.305C118.318 280.091 118.091 279.922 117.82 279.797C117.549 279.672 117.232 279.609 116.867 279.609C116.471 279.609 116.13 279.693 115.844 279.859C115.562 280.021 115.331 280.245 115.148 280.531C114.971 280.812 114.839 281.141 114.75 281.516C114.667 281.885 114.625 282.281 114.625 282.703ZM127.43 284.758C127.43 284.549 127.383 284.357 127.289 284.18C127.201 283.997 127.016 283.833 126.734 283.688C126.458 283.536 126.042 283.406 125.484 283.297C125.016 283.198 124.591 283.081 124.211 282.945C123.836 282.81 123.516 282.646 123.25 282.453C122.99 282.26 122.789 282.034 122.648 281.773C122.508 281.513 122.438 281.208 122.438 280.859C122.438 280.526 122.51 280.211 122.656 279.914C122.807 279.617 123.018 279.354 123.289 279.125C123.565 278.896 123.896 278.716 124.281 278.586C124.667 278.456 125.096 278.391 125.57 278.391C126.247 278.391 126.826 278.51 127.305 278.75C127.784 278.99 128.151 279.31 128.406 279.711C128.661 280.107 128.789 280.547 128.789 281.031H127.344C127.344 280.797 127.273 280.57 127.133 280.352C126.997 280.128 126.797 279.943 126.531 279.797C126.271 279.651 125.951 279.578 125.57 279.578C125.169 279.578 124.844 279.641 124.594 279.766C124.349 279.885 124.169 280.039 124.055 280.227C123.945 280.414 123.891 280.612 123.891 280.82C123.891 280.977 123.917 281.117 123.969 281.242C124.026 281.362 124.125 281.474 124.266 281.578C124.406 281.677 124.604 281.771 124.859 281.859C125.115 281.948 125.44 282.036 125.836 282.125C126.529 282.281 127.099 282.469 127.547 282.688C127.995 282.906 128.328 283.174 128.547 283.492C128.766 283.81 128.875 284.195 128.875 284.648C128.875 285.018 128.797 285.357 128.641 285.664C128.49 285.971 128.268 286.237 127.977 286.461C127.69 286.68 127.346 286.852 126.945 286.977C126.549 287.096 126.104 287.156 125.609 287.156C124.865 287.156 124.234 287.023 123.719 286.758C123.203 286.492 122.812 286.148 122.547 285.727C122.281 285.305 122.148 284.859 122.148 284.391H123.602C123.622 284.786 123.737 285.102 123.945 285.336C124.154 285.565 124.409 285.729 124.711 285.828C125.013 285.922 125.312 285.969 125.609 285.969C126.005 285.969 126.336 285.917 126.602 285.812C126.872 285.708 127.078 285.565 127.219 285.383C127.359 285.201 127.43 284.992 127.43 284.758ZM136.188 280.172V290.25H134.734V278.547H136.062L136.188 280.172ZM141.883 282.703V282.867C141.883 283.482 141.81 284.052 141.664 284.578C141.518 285.099 141.305 285.552 141.023 285.938C140.747 286.323 140.406 286.622 140 286.836C139.594 287.049 139.128 287.156 138.602 287.156C138.065 287.156 137.591 287.068 137.18 286.891C136.768 286.714 136.419 286.456 136.133 286.117C135.846 285.779 135.617 285.372 135.445 284.898C135.279 284.424 135.164 283.891 135.102 283.297V282.422C135.164 281.797 135.281 281.237 135.453 280.742C135.625 280.247 135.852 279.826 136.133 279.477C136.419 279.122 136.766 278.854 137.172 278.672C137.578 278.484 138.047 278.391 138.578 278.391C139.109 278.391 139.581 278.495 139.992 278.703C140.404 278.906 140.75 279.198 141.031 279.578C141.312 279.958 141.523 280.414 141.664 280.945C141.81 281.471 141.883 282.057 141.883 282.703ZM140.43 282.867V282.703C140.43 282.281 140.385 281.885 140.297 281.516C140.208 281.141 140.07 280.812 139.883 280.531C139.701 280.245 139.466 280.021 139.18 279.859C138.893 279.693 138.552 279.609 138.156 279.609C137.792 279.609 137.474 279.672 137.203 279.797C136.938 279.922 136.711 280.091 136.523 280.305C136.336 280.513 136.182 280.753 136.062 281.023C135.948 281.289 135.862 281.565 135.805 281.852V283.875C135.909 284.24 136.055 284.583 136.242 284.906C136.43 285.224 136.68 285.482 136.992 285.68C137.305 285.872 137.698 285.969 138.172 285.969C138.562 285.969 138.898 285.888 139.18 285.727C139.466 285.56 139.701 285.333 139.883 285.047C140.07 284.76 140.208 284.432 140.297 284.062C140.385 283.688 140.43 283.289 140.43 282.867ZM148.711 285.555V281.203C148.711 280.87 148.643 280.581 148.508 280.336C148.378 280.086 148.18 279.893 147.914 279.758C147.648 279.622 147.32 279.555 146.93 279.555C146.565 279.555 146.245 279.617 145.969 279.742C145.698 279.867 145.484 280.031 145.328 280.234C145.177 280.438 145.102 280.656 145.102 280.891H143.656C143.656 280.589 143.734 280.289 143.891 279.992C144.047 279.695 144.271 279.427 144.562 279.188C144.859 278.943 145.214 278.75 145.625 278.609C146.042 278.464 146.505 278.391 147.016 278.391C147.63 278.391 148.172 278.495 148.641 278.703C149.115 278.911 149.484 279.227 149.75 279.648C150.021 280.065 150.156 280.589 150.156 281.219V285.156C150.156 285.438 150.18 285.737 150.227 286.055C150.279 286.372 150.354 286.646 150.453 286.875V287H148.945C148.872 286.833 148.815 286.612 148.773 286.336C148.732 286.055 148.711 285.794 148.711 285.555ZM148.961 281.875L148.977 282.891H147.516C147.104 282.891 146.737 282.924 146.414 282.992C146.091 283.055 145.82 283.151 145.602 283.281C145.383 283.411 145.216 283.576 145.102 283.773C144.987 283.966 144.93 284.193 144.93 284.453C144.93 284.719 144.99 284.961 145.109 285.18C145.229 285.398 145.409 285.573 145.648 285.703C145.893 285.828 146.193 285.891 146.547 285.891C146.99 285.891 147.38 285.797 147.719 285.609C148.057 285.422 148.326 285.193 148.523 284.922C148.727 284.651 148.836 284.388 148.852 284.133L149.469 284.828C149.432 285.047 149.333 285.289 149.172 285.555C149.01 285.82 148.794 286.076 148.523 286.32C148.258 286.56 147.94 286.76 147.57 286.922C147.206 287.078 146.794 287.156 146.336 287.156C145.763 287.156 145.26 287.044 144.828 286.82C144.401 286.596 144.068 286.297 143.828 285.922C143.594 285.542 143.477 285.117 143.477 284.648C143.477 284.195 143.565 283.797 143.742 283.453C143.919 283.104 144.174 282.815 144.508 282.586C144.841 282.352 145.242 282.174 145.711 282.055C146.18 281.935 146.703 281.875 147.281 281.875H148.961ZM157.906 278.547H159.219V286.82C159.219 287.565 159.068 288.201 158.766 288.727C158.464 289.253 158.042 289.651 157.5 289.922C156.964 290.198 156.344 290.336 155.641 290.336C155.349 290.336 155.005 290.289 154.609 290.195C154.219 290.107 153.833 289.953 153.453 289.734C153.078 289.521 152.763 289.232 152.508 288.867L153.266 288.008C153.62 288.435 153.99 288.732 154.375 288.898C154.766 289.065 155.151 289.148 155.531 289.148C155.99 289.148 156.385 289.062 156.719 288.891C157.052 288.719 157.31 288.464 157.492 288.125C157.68 287.792 157.773 287.38 157.773 286.891V280.406L157.906 278.547ZM152.086 282.867V282.703C152.086 282.057 152.161 281.471 152.312 280.945C152.469 280.414 152.69 279.958 152.977 279.578C153.268 279.198 153.62 278.906 154.031 278.703C154.443 278.495 154.906 278.391 155.422 278.391C155.953 278.391 156.417 278.484 156.812 278.672C157.214 278.854 157.552 279.122 157.828 279.477C158.109 279.826 158.331 280.247 158.492 280.742C158.654 281.237 158.766 281.797 158.828 282.422V283.141C158.771 283.76 158.659 284.318 158.492 284.812C158.331 285.307 158.109 285.729 157.828 286.078C157.552 286.427 157.214 286.695 156.812 286.883C156.411 287.065 155.943 287.156 155.406 287.156C154.901 287.156 154.443 287.049 154.031 286.836C153.625 286.622 153.276 286.323 152.984 285.938C152.693 285.552 152.469 285.099 152.312 284.578C152.161 284.052 152.086 283.482 152.086 282.867ZM153.531 282.703V282.867C153.531 283.289 153.573 283.685 153.656 284.055C153.745 284.424 153.878 284.75 154.055 285.031C154.237 285.312 154.469 285.534 154.75 285.695C155.031 285.852 155.367 285.93 155.758 285.93C156.237 285.93 156.633 285.828 156.945 285.625C157.258 285.422 157.505 285.154 157.688 284.82C157.875 284.487 158.021 284.125 158.125 283.734V281.852C158.068 281.565 157.979 281.289 157.859 281.023C157.745 280.753 157.594 280.513 157.406 280.305C157.224 280.091 156.997 279.922 156.727 279.797C156.456 279.672 156.138 279.609 155.773 279.609C155.378 279.609 155.036 279.693 154.75 279.859C154.469 280.021 154.237 280.245 154.055 280.531C153.878 280.812 153.745 281.141 153.656 281.516C153.573 281.885 153.531 282.281 153.531 282.703ZM164.922 287.156C164.333 287.156 163.799 287.057 163.32 286.859C162.846 286.656 162.438 286.372 162.094 286.008C161.755 285.643 161.495 285.211 161.312 284.711C161.13 284.211 161.039 283.664 161.039 283.07V282.742C161.039 282.055 161.141 281.443 161.344 280.906C161.547 280.365 161.823 279.906 162.172 279.531C162.521 279.156 162.917 278.872 163.359 278.68C163.802 278.487 164.26 278.391 164.734 278.391C165.339 278.391 165.859 278.495 166.297 278.703C166.74 278.911 167.102 279.203 167.383 279.578C167.664 279.948 167.872 280.385 168.008 280.891C168.143 281.391 168.211 281.938 168.211 282.531V283.18H161.898V282H166.766V281.891C166.745 281.516 166.667 281.151 166.531 280.797C166.401 280.443 166.193 280.151 165.906 279.922C165.62 279.693 165.229 279.578 164.734 279.578C164.406 279.578 164.104 279.648 163.828 279.789C163.552 279.924 163.315 280.128 163.117 280.398C162.919 280.669 162.766 281 162.656 281.391C162.547 281.781 162.492 282.232 162.492 282.742V283.07C162.492 283.471 162.547 283.849 162.656 284.203C162.771 284.552 162.935 284.859 163.148 285.125C163.367 285.391 163.63 285.599 163.938 285.75C164.25 285.901 164.604 285.977 165 285.977C165.51 285.977 165.943 285.872 166.297 285.664C166.651 285.456 166.961 285.177 167.227 284.828L168.102 285.523C167.919 285.799 167.688 286.062 167.406 286.312C167.125 286.562 166.779 286.766 166.367 286.922C165.961 287.078 165.479 287.156 164.922 287.156Z" fill="black"/>
<path d="M60.1441 212.105C60.1441 212.105 45.4952 161.143 66.9254 130.715C94.568 91.4662 130.289 124.273 143.692 123.317C157.096 122.36 160.947 76.8211 200.995 72.3239C231.961 68.8464 284.261 72.1013 273.412 133.628C265.164 180.407 306.513 160.527 297.577 212.205L60.1441 212.107V212.105Z" fill="#F1F8E9"/>
<path d="M180.351 78.422L172.308 79.2492C171.638 79.3123 170.99 78.9945 170.63 78.4285C170.171 77.7041 169.68 76.9947 169.155 76.2992C168.179 75.0066 167.133 73.8103 166.007 72.7286C165.48 72.2214 165.311 71.4563 165.589 70.7855L168.743 62.9712C169.087 62.1409 168.725 61.179 167.908 60.7692L161.018 57.2874C160.235 56.8947 159.292 57.1515 158.812 57.8748L154.566 64.3729C154.167 65.0139 153.382 65.3049 152.63 65.0995C149.458 64.2328 146.151 63.8743 142.84 64.0359C142.04 64.0744 141.303 63.549 141.07 62.7883L139.694 58.2739C139.425 57.4201 138.555 56.8829 137.663 57.0456L130.133 58.4912C129.977 58.52 129.833 58.5618 129.697 58.6313C129.043 58.9352 128.634 59.6371 128.719 60.3776L129.332 66.3674L129.484 67.8269C128.228 68.5171 126.994 69.3099 125.817 70.1937C124.231 71.3836 122.785 72.6997 121.503 74.1014C121.011 74.6353 120.248 74.8226 119.575 74.5465L113.264 72.0063C112.399 71.665 111.415 72.0288 111.003 72.8559L108.331 78.1064L107.57 79.613C107.152 80.4336 107.418 81.4437 108.192 81.9423L113.637 85.484C114.272 85.8874 114.58 86.6471 114.391 87.3608C113.86 89.5094 113.555 91.7082 113.495 93.9103C113.475 94.1018 113.475 94.2784 113.473 94.4656C113.477 94.5288 113.468 94.5908 113.46 94.6518C113.384 95.3569 112.886 95.9401 112.203 96.1455L104.855 98.3893C104.77 98.4086 104.689 98.4471 104.615 98.4813C103.899 98.8205 103.484 99.6155 103.631 100.408L105.065 107.895C105.24 108.799 106.072 109.419 106.998 109.329L115.386 108.462C116.097 108.38 116.775 108.752 117.108 109.382C117.852 110.762 118.712 112.108 119.693 113.408C120.213 114.097 120.756 114.757 121.322 115.389C121.778 115.906 121.908 116.634 121.648 117.269L118.619 124.781C118.282 125.606 118.638 126.56 119.443 126.969L126.264 130.403C127.087 130.82 128.094 130.56 128.609 129.778L131.969 124.636C132.42 123.946 133.273 123.658 134.048 123.924C137.083 125.003 140.268 125.596 143.485 125.704C144.245 125.717 144.917 126.226 145.14 126.96L147.165 133.563C147.437 134.449 148.337 134.984 149.25 134.817L156.733 133.397C157.633 133.227 158.249 132.392 158.149 131.498L158.117 131.148L157.401 124.19C157.323 123.444 157.712 122.746 158.384 122.407L158.391 122.401C159.999 121.591 161.559 120.63 163.053 119.509C163.849 118.912 164.6 118.283 165.329 117.625C165.83 117.161 166.548 117.03 167.18 117.282L173.587 119.861C174.462 120.216 175.467 119.836 175.888 119.004L179.322 112.234C179.419 112.04 179.474 111.835 179.502 111.637C179.575 110.987 179.278 110.319 178.709 109.943L174.352 107.126C173.822 106.775 173.518 106.167 173.548 105.55C173.559 105.388 173.588 105.222 173.642 105.061C175.012 101.171 175.582 97.0572 175.334 92.9398C175.281 92.2422 175.675 91.5937 176.287 91.2781C176.375 91.2342 176.468 91.1968 176.567 91.1668L182.519 89.3542C183.381 89.0921 183.908 88.2243 183.744 87.3351L183.711 87.1607L182.319 79.8623C182.135 78.9442 181.29 78.3236 180.357 78.4178L180.351 78.422ZM128.744 100.688C128.295 99.5385 127.936 98.3005 127.688 96.978C127.22 94.4571 127.768 90.4895 128.931 88.1976C129.054 87.9515 129.182 87.7118 129.311 87.4721C137.307 72.9982 157.885 76.082 161.125 92.5268C161.545 94.6775 161.241 97.7997 160.45 100.187C160.259 100.738 160.053 101.255 159.821 101.693C158.752 103.772 157.435 105.509 155.938 106.918C147.399 114.942 133.286 112.158 128.744 100.687V100.688Z" fill="#AFCDFB"/>
<path d="M134.802 162.74H137.734V146.441H134.802V162.74Z" fill="#82B378"/>
<path d="M137.74 162.737H140.672V145.438H137.74V162.737Z" fill="#A53D38"/>
<path d="M140.669 162.733H143.602V147.488H140.669V162.733Z" fill="#82B378"/>
<path d="M142.138 150.87C142.736 150.87 143.221 150.386 143.221 149.79V148.133H141.055V149.79C141.055 150.386 141.54 150.87 142.138 150.87Z" fill="#A53D38"/>
<path d="M137.984 161.753H140.453V161.225H137.984V161.753Z" fill="#35488B"/>
<path d="M139.216 160.752C139.807 160.752 140.284 160.276 140.284 159.688C140.284 159.099 139.807 158.623 139.216 158.623C138.626 158.623 138.148 159.099 138.148 159.688C138.148 160.276 138.627 160.752 139.216 160.752Z" fill="#35488B"/>
<path d="M210.734 159.864V156.94H193.381V159.864H210.734Z" fill="#A53D38"/>
<path d="M209.742 159.618V157.157H209.213V159.618H209.742Z" fill="#35488B"/>
<path d="M208.737 158.388C208.737 157.799 208.26 157.323 207.67 157.323C207.079 157.323 206.602 157.799 206.602 158.388C206.602 158.976 207.079 159.453 207.67 159.453C208.26 159.453 208.737 158.976 208.737 158.388Z" fill="#35488B"/>
<path d="M207.516 162.787V159.863H191.166V162.787H207.516Z" fill="#35488B"/>
<path d="M170.495 102.298C170.495 102.298 166.872 107.241 167.231 110.879C167.231 110.879 167.691 108.516 168.59 107.099C168.59 107.099 167.052 110.737 167.767 112.698C168.483 114.66 161.517 121.691 166.24 126.114C170.963 130.536 183.181 120.763 183.181 120.763C183.181 120.763 179.397 114.48 180.541 109.666C181.685 104.852 170.496 102.298 170.496 102.298H170.495Z" fill="#233862"/>
<path d="M170.969 99.7142C171.427 98.335 172.433 97.5421 173.44 97.0863C174.782 96.4785 176.31 96.4154 177.718 96.8509C181.828 98.121 181.977 100.542 181.977 100.542L174.41 110.54C174.41 110.54 173.72 108.95 172.809 109.447C171.827 109.982 170.212 108.651 169.595 106.419C168.851 102.357 169.894 102.96 170.969 99.7153V99.7142Z" fill="#233862"/>
<path d="M193.591 136.738C197.758 133.795 200.082 124.705 200.082 124.705L198.348 124.079C197.611 126.177 193.062 131.05 193.062 131.05C192.534 129.589 191.987 128.283 191.431 127.115C187.658 119.18 184.923 117.491 183.849 117.217C183.675 117.172 182.177 117.312 182.177 117.312C182.177 117.312 182.196 117.373 182.235 117.487C182.316 117.734 181.82 118.582 182.057 119.263C183.814 124.33 190.109 139.198 193.591 136.738Z" fill="#D9935C"/>
<path d="M166.293 147.789C168.661 142.496 169.793 140.999 169.833 139.334C169.864 138.017 169.213 136.596 167.948 133.112C167.65 132.291 167.445 131.447 167.318 130.593C166.318 123.876 170.214 116.615 172.635 116.121C173.309 115.943 174.451 113.517 174.438 109.607L174.741 109.667L179.841 110.674C179.841 110.674 179.725 112.274 179.722 113.781C179.718 115.038 179.793 116.228 180.079 116.378C180.446 116.412 180.663 116.433 180.663 116.433C180.663 116.433 184.914 122.319 185.273 127.794C185.63 133.269 181.868 135.647 185.301 146.588C188.806 157.762 164.987 150.716 166.294 147.79L166.293 147.789Z" fill="#D9935C"/>
<path d="M179.842 110.673C179.842 110.673 179.726 112.272 179.722 113.78C176.868 113.7 175.36 111.105 174.742 109.667L179.842 110.674V110.673Z" fill="#CB7D45"/>
<path d="M174.211 109.114C174.211 109.114 172.716 106.758 172.356 104.744C172.1 103.306 172.835 97.9759 178.207 98.7431C178.207 98.7431 179.768 98.8961 181.235 99.8837C182.402 100.669 184.085 102.365 182.202 107.016L181.713 108.588L174.21 109.114H174.211Z" fill="#233862"/>
<path d="M180.792 112.1C180.792 112.1 174.041 112.211 174.037 108.019C174.032 103.827 173.158 101.017 177.468 100.769C181.779 100.521 182.618 102.12 182.96 103.519C183.304 104.917 182.549 111.963 180.792 112.1Z" fill="#D9935C"/>
<path d="M180.542 100.667C180.542 100.667 178.694 105.586 175.857 106.312C173.02 107.04 171.789 106.282 171.789 106.282C171.789 106.282 172.91 104.045 173.36 101.037C173.36 101.037 179.148 98.3268 180.542 100.667Z" fill="#233862"/>
<path d="M180.086 101.066C180.086 101.066 181.466 102.163 181.803 103.231C182.14 104.299 182.292 106.497 182.933 106.422C182.933 106.422 184.326 103.079 182.761 101.188C181.101 99.1824 180.086 101.066 180.086 101.066Z" fill="#233862"/>
<path d="M172.275 198.58C173.973 205.315 176.53 210.479 176.53 210.479L178.756 210.325C178.756 210.325 177.665 205.147 177.727 198.151C177.771 193.26 178.378 187.479 180.316 181.959C186.978 162.992 185.902 149.189 185.902 149.189L173.374 150.65L172.79 150.718C172.737 156.454 172.589 164.241 172.459 170.331C172.344 175.807 172.243 179.909 172.243 179.909C169.835 185.08 170.71 192.379 172.274 198.579L172.275 198.58Z" fill="#4A75CB"/>
<path d="M178.131 206.175C178.418 208.755 178.749 210.325 178.749 210.325L176.523 210.479C176.523 210.479 175.812 209.042 174.891 206.697C176.05 206.774 177.455 206.389 178.131 206.175Z" fill="#D9935C"/>
<path d="M157.516 153.411L159.542 154.017C159.542 154.017 166.228 142.957 166.836 140.08C167.035 139.144 167.521 137.268 168.088 135.168C169.262 130.818 170.778 125.495 170.778 125.495L171.277 123.34L172.979 115.992C172.979 115.992 169.721 116.324 167.814 117.119C167.183 117.381 166.701 117.695 166.534 118.063C165.133 121.132 163.736 128.879 162.752 134.405C162.205 137.484 161.787 139.876 161.569 140.382C160.961 141.795 159.103 149.572 157.516 153.409V153.411Z" fill="#D9935C"/>
<path d="M165.943 197.505C166.663 205.169 168.422 210.373 168.422 210.373L170.04 210.895C170.04 210.895 171.047 205.496 171.759 199.073C172.438 192.967 173.368 186.507 174.421 184.535C178.6 176.714 179.856 147.191 179.856 147.191L167.155 146.562C165.877 148.704 165.32 152.214 165.188 156.207C164.854 166.284 167.23 179.422 167.585 181.323C167.585 181.324 167.585 181.325 167.585 181.327C167.613 181.473 167.57 181.618 167.501 181.752C164.975 186.739 165.467 192.444 165.942 197.506L165.943 197.505Z" fill="#699DEE"/>
<path d="M180.342 101.233C180.342 101.233 179.025 106.384 175.445 108.033C175.445 108.033 179.025 104.868 179.329 101.468C179.632 98.068 180.342 101.233 180.342 101.233Z" fill="#233862"/>
<path d="M170.868 205.987C170.424 209.043 170.061 211.106 170.061 211.106L168.424 210.372C168.424 210.372 167.862 208.707 167.242 205.874C168.987 206.276 170.194 206.148 170.868 205.987Z" fill="#D9935C"/>
<path d="M157.654 153.075C157.654 153.075 157.038 154.523 156.396 154.926C155.754 155.33 155.144 156.299 155.011 157.081C154.767 158.515 155.869 159.404 156.679 159.404C157.49 159.404 158.265 158.302 158.741 155.672C158.767 155.528 159.536 154.019 159.536 154.019L157.654 153.076V153.075Z" fill="#D9935C"/>
<path d="M164.698 151.61C164.676 152.037 164.699 152.379 164.777 152.623C165.047 153.47 165.976 153.856 168.219 153.625C169.59 153.483 170.201 151.192 170.474 149.237C171.297 152.034 172.451 153.603 173.942 153.932C176.117 154.415 187.09 155.745 187.808 150.545C188.598 144.825 186.233 134.698 186.103 129.239C186.425 127.303 186.535 125.622 186.501 124.179C186.41 120.289 185.264 118.109 184.384 117.231C184.135 117.041 183.885 116.921 182.884 116.75C182.372 116.663 181.663 116.562 180.659 116.431C180.659 116.431 180.249 116.385 180.258 116.4C180.444 116.73 182.929 120.482 182.736 121.447C182.533 122.457 173.719 121.548 173.111 120.992C172.504 120.437 171.542 116.183 171.542 116.183C171.542 116.183 168.421 116.523 166.894 117.629C166.894 117.629 166.9 117.637 166.91 117.649C166.726 117.78 166.587 117.92 166.509 118.069C164.88 121.16 163.254 128.963 162.109 134.528C164.882 136.051 167.304 135.598 168.057 135.397C167.075 141.806 164.845 148.688 164.699 151.608L164.698 151.61Z" fill="#B64C41"/>
<path d="M198.35 124.079C198.295 123.879 197.342 121.021 197.696 120.272C198.049 119.523 198.873 118.372 199.214 118.309C199.554 118.246 201.322 119.621 201.287 121.047C201.253 122.473 200.084 124.705 200.084 124.705L198.35 124.079Z" fill="#D9935C"/>
<path d="M175.244 212.341H176.665C177.14 212.266 177.492 212.129 177.981 212.065C178.722 211.968 179.064 212.271 179.131 212.341C179.14 212.35 179.144 212.355 179.144 212.355H185.182C185.333 212.139 185.188 211.638 185.045 211.269C184.949 211.019 184.739 210.828 184.48 210.754C183.839 210.569 182.577 210.404 181.421 209.361C180.77 208.776 178.28 207.207 178.28 207.207L178.267 207.204C178.213 207.204 177.952 207.284 176.819 208.239C176.234 208.73 175.236 207.543 175.236 207.543C175.236 207.543 175.048 207.697 174.909 207.985C174.796 208.212 174.715 208.524 174.779 208.91C174.869 209.452 174.578 210.46 174.346 211.142C174.206 211.555 174.087 211.848 174.087 211.848C174.087 211.848 174.019 212.188 175.242 212.34L175.244 212.341Z" fill="#233862"/>
<path d="M167.658 212.341H169.079C169.555 212.266 169.906 212.129 170.395 212.065C171.136 211.968 171.478 212.271 171.545 212.341C171.554 212.35 171.558 212.355 171.558 212.355H177.596C177.748 212.139 177.602 211.638 177.459 211.269C177.363 211.019 177.154 210.828 176.894 210.754C176.253 210.569 174.991 210.404 173.835 209.361C173.184 208.776 170.694 207.207 170.694 207.207L170.681 207.204C170.627 207.204 170.367 207.284 169.233 208.239C168.647 208.73 167.65 207.543 167.65 207.543C167.65 207.543 167.462 207.697 167.323 207.985C167.21 208.212 167.129 208.524 167.193 208.91C167.283 209.452 166.992 210.46 166.76 211.142C166.62 211.555 166.501 211.848 166.501 211.848C166.501 211.848 166.433 212.188 167.656 212.34L167.658 212.341Z" fill="#233862"/>
<path d="M164.703 151.61C166.21 151.109 168.144 149.773 170.467 146.781C176.616 138.859 170.989 129.548 170.235 129.375C169.481 129.201 168.061 135.398 168.061 135.398C167.078 141.807 164.849 148.689 164.703 151.609V151.61Z" fill="#A53934"/>
<path d="M192.164 127.533L187.757 132.53L184.429 126.931L182.883 116.751C182.883 116.751 187.541 116.766 192.164 127.533Z" fill="#B64C41"/>
<path d="M187.759 132.53L186.123 129.778C186.123 129.778 185.814 123.239 185.102 121.203C185.102 121.203 188.926 127.448 187.759 132.53Z" fill="#A53934"/>
<path d="M117.815 162.634H178.714C179.459 162.634 180.069 163.242 180.069 163.984V166.373C180.069 167.116 179.459 167.724 178.714 167.724H149.604V206.633C156.365 206.901 162.039 209.189 164.391 212.34L132.139 212.371C134.474 209.208 140.153 206.906 146.925 206.634V167.724H117.815C117.071 167.724 116.461 167.116 116.461 166.373V163.984C116.461 163.242 117.071 162.634 117.815 162.634Z" fill="#2D427C"/>
<path d="M260.872 183.735H260.879C261.176 183.73 261.413 183.515 261.408 183.253C261.107 164.578 268.351 150.219 268.424 150.076C268.546 149.837 268.523 149.303 267.742 149.236C267.06 149.177 266.637 149.324 266.514 149.564C266.496 149.6 264.88 153.017 263.085 158.957C261.43 164.433 260.174 173.399 260.334 183.267C260.338 183.527 260.578 183.736 260.871 183.736L260.872 183.735Z" fill="#EE9849"/>
<path d="M244.717 183.735H244.724C245.021 183.73 245.258 183.515 245.253 183.253C244.952 164.578 252.196 150.219 252.269 150.076C252.391 149.837 252.367 149.303 251.587 149.236C250.904 149.177 250.481 149.324 250.358 149.564C250.34 149.6 248.723 153.017 246.929 158.957C245.274 164.433 244.018 173.399 244.178 183.267C244.182 183.527 244.421 183.736 244.714 183.736L244.717 183.735Z" fill="#EE9849"/>
<path d="M265.657 155.811C265.915 155.811 266.141 155.647 266.186 155.416C266.236 155.157 266.039 154.912 265.747 154.868C265.282 154.798 254.295 153.163 249.377 154.527C249.094 154.605 248.936 154.871 249.025 155.122C249.114 155.372 249.416 155.512 249.699 155.433C254.37 154.137 265.454 155.787 265.566 155.804C265.596 155.809 265.627 155.811 265.657 155.811Z" fill="#EE9849"/>
<path d="M264.399 158.956C264.656 158.956 264.884 158.793 264.929 158.562C264.979 158.303 264.782 158.058 264.49 158.014C264.024 157.943 253.037 156.308 248.119 157.672C247.836 157.751 247.678 158.017 247.767 158.267C247.856 158.518 248.158 158.657 248.441 158.578C253.114 157.281 264.197 158.932 264.308 158.949C264.339 158.953 264.369 158.956 264.399 158.956Z" fill="#EE9849"/>
<path d="M261.514 183.734H228.406C228.406 183.734 229.177 180.546 248.352 181.021C261.921 181.357 261.514 183.734 261.514 183.734Z" fill="#EE9849"/>
<path d="M264.213 212.37C260.375 195.337 261.362 184.885 261.367 184.753C261.377 184.491 260.825 184.253 260.529 184.244C260.228 184.24 258.904 184.167 258.75 184.391C258.549 184.685 257.777 197.562 263.498 212.37H264.213Z" fill="#E58638"/>
<path d="M236.103 212.37C239.942 195.337 238.954 184.885 238.949 184.753C238.939 184.491 239.491 184.253 239.787 184.244C240.088 184.24 241.412 184.167 241.566 184.391C241.767 184.685 242.539 197.562 236.819 212.37H236.102H236.103Z" fill="#E58638"/>
<path d="M227.173 212.37C231.011 195.337 230.025 184.885 230.019 184.753C230.01 184.491 230.561 184.253 230.858 184.244C231.158 184.24 232.483 184.167 232.636 184.391C232.837 184.685 233.611 197.562 227.889 212.37H227.172H227.173Z" fill="#CE6D25"/>
<path d="M254.495 212.37C250.656 195.337 251.643 184.885 251.648 184.753C251.658 184.491 251.106 184.253 250.81 184.244C250.51 184.24 249.185 184.167 249.032 184.391C248.831 184.685 248.057 197.562 253.779 212.37H254.496H254.495Z" fill="#CE6D25"/>
<path d="M228.222 184.753H261.665C261.946 184.753 262.176 184.524 262.176 184.244C262.176 183.963 261.946 183.734 261.665 183.734H228.222C227.941 183.734 227.711 183.963 227.711 184.244C227.711 184.524 227.941 184.753 228.222 184.753Z" fill="#E58638"/>
<path d="M172.94 162.634H233.839C234.584 162.634 235.194 163.242 235.194 163.984V166.373C235.194 167.116 234.584 167.724 233.839 167.724H204.729V206.633C211.49 206.901 217.164 209.189 219.516 212.34L187.264 212.371C189.599 209.208 195.278 206.906 202.05 206.634V167.724H172.94C172.196 167.724 171.586 167.116 171.586 166.373V163.984C171.586 163.242 172.196 162.634 172.94 162.634Z" fill="#365DA4"/>
<path d="M214.727 204.75C214.727 204.75 211.103 208.358 210.205 209.243C209.307 210.128 205.935 209.738 205.008 212.347H214.194C214.194 212.347 216.47 210.692 220.01 210.772C220.01 210.772 220.684 208.278 220.01 207.313C219.336 206.348 219.088 204.75 219.088 204.75H214.727Z" fill="#A53934"/>
<path d="M220.005 210.772L219.542 212.347H216.297V211.014C216.297 211.014 218.109 210.451 220.005 210.772Z" fill="#A53934"/>
<path d="M220.307 178.082C220.307 178.082 220.476 195.198 219.086 204.75H214.725L211.648 186.715L220.308 178.082H220.307Z" fill="#233862"/>
<path d="M201.812 204.75H206.173C206.173 204.75 206.175 204.749 206.177 204.748C206.385 204.532 219.754 190.717 221.842 182.039C221.842 182.039 223.091 181.927 224.594 181.992C225.031 182.012 225.491 182.047 225.95 182.103C227.972 182.356 254.478 183.322 255.869 181.936C257.259 180.55 256.702 172.567 256.702 172.567L254.096 171.191L251.343 169.737C251.343 169.737 220.774 170.217 217.588 172.611C214.403 175.006 206.933 190.949 201.814 204.752L201.812 204.75Z" fill="#2D427C"/>
<path d="M201.813 204.75C201.813 204.75 198.189 208.37 197.291 209.257C196.392 210.145 193.021 209.753 192.094 212.371H201.28C201.28 212.371 203.556 210.71 207.096 210.79C207.096 210.79 207.77 208.288 207.096 207.32C206.422 206.352 206.174 204.75 206.174 204.75H201.813Z" fill="#B64C41"/>
<path d="M207.099 210.772L206.635 212.347H203.391V211.014C203.391 211.014 205.202 210.451 207.099 210.772Z" fill="#B64C41"/>
<path d="M224.594 181.992C225.031 182.012 225.491 182.047 225.949 182.103C227.972 182.356 254.477 183.322 255.869 181.936C257.259 180.55 256.701 172.567 256.701 172.567L254.095 171.191L249.716 173.043C249.716 173.043 250.364 181.283 224.594 181.993V181.992Z" fill="#233862"/>
<path d="M224.258 159.517C224.828 157.818 226.401 157.747 226.401 157.747C226.401 157.747 227.91 157.637 228.997 157.955C230.083 158.272 231.891 157.643 231.891 157.643C231.891 157.643 238.515 155.347 240.064 154.386C243.387 152.324 249.397 138.96 251.443 140.59C251.443 140.59 254.086 143.077 252.635 147.355C251.183 151.633 245.444 157.522 241.96 158.472C239.386 159.175 232.661 159.549 231.768 159.596C230.658 159.738 229.151 160.379 228.748 160.41C228.302 160.446 227.309 159.785 226.621 159.883C224.112 160.236 224.259 159.515 224.259 159.515L224.258 159.517Z" fill="#EA8E50"/>
<path d="M250.258 140.747C253.002 140.787 256.045 140.502 258.646 140.159C258.167 139.359 257.595 137.059 257.433 133.881V133.869L256.466 133.92L251.889 134.163C251.889 134.163 251.895 134.23 251.903 134.346C251.946 134.962 252.082 136.975 252.06 138.11C252.051 138.546 251.824 139.487 251.754 139.533C251.255 139.961 250.753 140.358 250.258 140.746V140.747Z" fill="#FFB07B"/>
<path d="M258.389 121.476C258.457 121.214 259.296 118.409 263.682 119.223C263.682 119.223 261.485 119.004 260.907 119.86C260.907 119.86 262.622 119.024 263.726 119.658C264.831 120.294 265.067 122.52 264.922 123.204C264.777 123.888 263.63 125.94 262.835 125.96C262.534 125.968 262.209 125.877 261.922 125.76C262.053 126.117 262.173 126.504 262.275 126.93C263.222 130.868 260.658 133.947 259.273 133.239C258.385 132.784 257.761 134.33 257.761 134.33L250.242 124.91C250.242 124.91 255.152 118.71 258.39 121.476H258.389Z" fill="#2C3A64"/>
<path d="M252.063 138.109C254.836 137.782 256.607 135.353 257.436 133.88C257.446 133.861 257.456 133.844 257.466 133.826L256.469 133.919L251.906 134.345C251.949 134.96 252.085 136.974 252.063 138.108V138.109Z" fill="#EA8E50"/>
<path d="M251.665 135.987C251.665 135.987 258.155 135.927 258.055 131.899C257.956 127.87 258.726 125.149 254.578 125.018C250.429 124.886 249.663 126.443 249.368 127.795C249.073 129.148 249.973 135.899 251.665 135.987Z" fill="#FFB07B"/>
<path d="M249.509 125.55C250.481 124.312 251.245 124.559 251.68 124.913C255.175 122.878 258.649 124.772 258.649 124.772C259.157 127.652 260.177 130.174 260.177 130.174C260.177 130.174 259.014 130.932 256.269 130.303C255.431 130.112 254.672 129.54 254.022 128.841C255.172 130.655 256.708 131.946 256.708 131.946C253.413 130.529 251.989 126.048 251.846 125.574C251.46 125.939 250.699 126.728 250.48 127.49C250.182 128.525 250.092 130.64 249.473 130.584C249.473 130.584 248.052 127.406 249.508 125.55H249.509Z" fill="#2C3A64"/>
<path d="M245.278 148.215C245.278 148.215 241.106 153.591 240.159 153.675C239.211 153.76 239.653 157.338 240.159 158.258C240.664 159.178 243.911 161.15 245.986 159.029C248.059 156.91 245.278 148.215 245.278 148.215Z" fill="#82B378"/>
<path d="M240.153 170.521C243.25 170.962 248.656 171.34 249.714 173.042C250.772 174.743 257.504 173.546 258.057 172.475C258.611 171.403 256.904 162.696 257.789 161.22C258.454 160.113 260.753 154.011 261.945 150.499C262.339 149.338 262.611 148.459 262.664 148.14C262.874 146.852 263.67 142.23 260.475 140.874C260.475 140.874 258.927 140.212 258.8 139.666C258.77 139.538 258.766 139.336 258.763 139.109C258.757 138.37 258.777 137.36 258.057 137.649C257.115 138.027 256.119 138.951 254.51 138.867C252.901 138.783 251.51 138.069 251.299 138.532C251.089 138.993 251.674 139.611 251.299 139.914C250.926 140.218 246.221 143.061 244.767 147.214C244.767 147.214 243.586 150.211 243.586 152.72C243.586 152.914 243.589 153.111 243.594 153.31C243.627 154.808 243.764 156.401 243.613 157.779C243.606 157.853 243.597 157.927 243.586 158C243.351 159.748 243.095 161.401 242.832 162.679C242.572 163.94 242.307 164.835 242.049 165.094C240.785 166.363 237.056 170.081 240.153 170.522V170.521Z" fill="#A8D29F"/>
<path d="M223.564 159.62C223.647 159.367 223.87 158.989 224.081 158.612C224.291 158.233 225.892 156.595 226.525 156.427C227.157 156.259 230.251 157.12 230.251 157.12C230.251 157.12 242.427 157.279 244.369 156.091C246.897 154.541 253.039 148.127 257.312 144.855C259.349 143.295 260.961 142.447 261.559 143.18C261.559 143.18 263.186 144.737 261.138 148.584C261.026 148.799 260.899 149.021 260.761 149.251C258.146 153.586 248.103 161.938 244.067 162.213C240.031 162.488 229.797 159.071 229.797 159.071C229.797 159.071 228.731 158.781 228.184 159.2C227.636 159.621 225.521 159.542 225.219 159.829C224.656 160.367 223.428 160.039 223.565 159.62H223.564Z" fill="#FFB07B"/>
<path d="M249.718 173.042C250.777 174.743 257.509 173.546 258.061 172.475C258.615 171.404 256.909 162.696 257.793 161.22C258.458 160.113 260.758 154.011 261.949 150.499C261.752 150.103 261.47 149.922 261.081 150.029C258.358 150.775 245.454 160.659 242.837 162.679C242.577 163.94 242.312 164.835 242.055 165.094C242.055 165.094 250.115 168.317 249.719 173.043L249.718 173.042Z" fill="#82B378"/>
<path d="M243.617 157.778C247.576 156.1 257.399 146.606 257.539 146.47C257.427 146.51 254.258 145.099 246.583 152.064C245.694 152.871 244.442 154.501 244.154 155.209C243.806 156.06 243.689 157.119 243.617 157.778Z" fill="#82B378"/>
<path d="M260.697 142.913C260.697 142.913 258.759 143.193 256.862 144.664C254.965 146.134 245.493 155.358 243.909 155.746C242.324 156.133 238.913 155.95 238.953 156.945C238.995 157.939 239.753 162.813 240.765 163.695C241.776 164.577 247.128 164.997 249.446 163.527C251.764 162.056 263.269 148.235 262.552 145.252C261.836 142.269 260.697 142.913 260.697 142.913Z" fill="#A8D29F"/>
<path d="M256.241 140.874C257.252 140.624 260.476 140.874 260.476 140.874C260.476 140.874 258.927 140.212 258.8 139.666C258.77 139.537 258.766 139.335 258.764 139.108C258.601 139.771 258.105 140.085 256.778 140.148C255.451 140.212 255.229 141.125 256.241 140.874Z" fill="#82B378"/>
<path d="M213.606 150.688C213.812 150.613 214.042 150.72 214.116 150.926L218.098 161.841H229.735C229.954 161.841 230.133 162.019 230.133 162.238C230.133 162.456 229.954 162.635 229.735 162.635H217.805C217.805 162.635 217.802 162.635 217.8 162.635H217.798C217.598 162.631 217.434 162.477 217.412 162.282L213.368 151.198C213.293 150.993 213.4 150.765 213.606 150.69V150.688Z" fill="#CE6D25"/>
<path d="M156.091 145.26L150.867 153.591L162.603 160.905L167.827 152.574L156.091 145.26Z" fill="#2D427C"/>
<path d="M156.123 145.688L151.266 153.434L162.459 160.409L167.316 152.664L156.123 145.688Z" fill="#DDEBFD"/>
<path d="M165.192 152.204L161.227 158.528L161.59 158.755L165.555 152.431L165.192 152.204Z" fill="#A8C3F7"/>
<path d="M163.169 150.948L159.203 157.272L159.37 157.376L163.335 151.052L163.169 150.948Z" fill="#A8C3F7"/>
<path d="M162.778 150.704L158.812 157.028L158.979 157.132L162.945 150.808L162.778 150.704Z" fill="#A8C3F7"/>
<path d="M162.387 150.461L158.422 156.785L158.588 156.889L162.554 150.565L162.387 150.461Z" fill="#A8C3F7"/>
<path d="M161.997 150.216L158.031 156.54L158.198 156.644L162.163 150.32L161.997 150.216Z" fill="#A8C3F7"/>
<path d="M161.606 149.973L157.641 156.297L157.807 156.401L161.773 150.077L161.606 149.973Z" fill="#A8C3F7"/>
<path d="M161.216 149.731L157.25 156.055L157.417 156.158L161.382 149.835L161.216 149.731Z" fill="#A8C3F7"/>
<path d="M156.297 152.88C156.027 152.712 155.67 152.794 155.502 153.063C155.333 153.333 155.415 153.688 155.685 153.856C155.956 154.024 156.312 153.943 156.481 153.673C156.649 153.404 156.568 153.048 156.297 152.88Z" fill="#A8C3F7"/>
<path d="M157.106 150.543C157.106 150.543 157.105 150.547 157.104 150.548C157.098 150.563 157.104 150.579 157.12 150.585C157.15 150.597 157.853 150.88 158.288 150.665C158.319 150.65 158.321 150.629 158.319 150.618C158.312 150.571 158.23 150.553 157.91 150.499C157.782 150.478 157.632 150.453 157.546 150.429C157.618 150.422 157.737 150.419 157.832 150.416C158.127 150.407 158.178 150.402 158.195 150.374C158.201 150.365 158.202 150.352 158.197 150.342C158.185 150.314 158.142 150.304 158.014 150.277C157.965 150.267 157.89 150.251 157.853 150.237C157.883 150.229 157.94 150.223 157.975 150.22C158.067 150.212 158.113 150.205 158.126 150.174C158.129 150.168 158.133 150.151 158.118 150.131C158.112 150.124 158.104 150.116 158.095 150.109C158.072 150.09 158.046 150.067 158.049 150.027C158.052 149.944 158.164 149.771 158.675 149.409C158.688 149.399 158.691 149.382 158.682 149.368C158.672 149.356 158.655 149.352 158.641 149.362C158.21 149.668 157.996 149.884 157.99 150.024C157.986 150.093 158.029 150.13 158.056 150.152C158.032 150.156 157.995 150.16 157.968 150.162C157.866 150.172 157.802 150.182 157.782 150.218C157.777 150.23 157.776 150.243 157.782 150.253C157.798 150.287 157.862 150.304 158.001 150.333C158.024 150.337 158.05 150.342 158.073 150.348C158.006 150.353 157.907 150.355 157.827 150.357C157.497 150.367 157.445 150.373 157.434 150.411C157.431 150.416 157.428 150.435 157.45 150.451C157.502 150.489 157.661 150.517 157.897 150.555C158.017 150.574 158.174 150.601 158.237 150.623C157.823 150.808 157.146 150.534 157.138 150.53C157.125 150.525 157.11 150.53 157.103 150.542L157.106 150.543Z" fill="#A8C3F7"/>
<path d="M166.274 155.509L165.658 156.491C165.73 156.505 165.801 156.533 165.867 156.574C166.16 156.757 166.249 157.141 166.066 157.433C165.882 157.725 165.497 157.814 165.204 157.631C165.137 157.59 165.083 157.538 165.038 157.48L164.421 158.462C164.372 158.541 164.268 158.565 164.189 158.516L163.79 158.267C163.711 158.218 163.687 158.113 163.737 158.035L165.588 155.082C165.638 155.003 165.743 154.979 165.821 155.029L166.219 155.277C166.299 155.326 166.322 155.431 166.273 155.509H166.274ZM165.339 156.981C165.272 157.089 165.305 157.232 165.412 157.298C165.521 157.365 165.663 157.332 165.73 157.225C165.797 157.117 165.764 156.976 165.657 156.909C165.548 156.841 165.407 156.874 165.339 156.981Z" fill="#F99746"/>
<path d="M163.735 158.036L165.587 155.083C165.636 155.004 165.742 154.98 165.82 155.03L166.218 155.278L163.734 158.037L163.735 158.036Z" fill="#ED7D2B"/>
<path d="M188.211 123.821L197.273 127.682L202.713 114.994L193.65 111.133L188.211 123.821Z" fill="#2D427C"/>
<path d="M196.724 112.004L197.793 112.46C197.796 112.387 197.812 112.312 197.842 112.242C197.978 111.925 198.346 111.779 198.663 111.913C198.981 112.049 199.128 112.415 198.993 112.732C198.962 112.804 198.92 112.866 198.868 112.919L199.938 113.375C200.023 113.411 200.063 113.511 200.027 113.596L199.842 114.027C199.806 114.112 199.706 114.152 199.62 114.115L196.407 112.746C196.321 112.709 196.282 112.61 196.318 112.524L196.503 112.094C196.539 112.009 196.639 111.969 196.725 112.005L196.724 112.004ZM198.326 112.698C198.443 112.748 198.58 112.693 198.629 112.577C198.68 112.46 198.625 112.324 198.508 112.275C198.391 112.225 198.255 112.279 198.205 112.396C198.156 112.513 198.209 112.648 198.326 112.698Z" fill="#F99746"/>
<path d="M199.62 114.114L196.407 112.744C196.321 112.708 196.282 112.609 196.318 112.523L196.503 112.093L199.62 114.114Z" fill="#ED7D2B"/>
<path d="M157.654 153.075C157.654 153.075 157.038 154.523 156.396 154.926C155.754 155.33 155.144 156.299 155.011 157.081C154.767 158.515 155.869 159.404 156.679 159.404C157.49 159.404 158.265 158.302 158.741 155.672C158.767 155.528 159.536 154.019 159.536 154.019L157.654 153.076V153.075Z" fill="#D9935C"/>
<path d="M164.136 145.99C162.053 149.868 159.542 154.018 159.542 154.018L157.516 153.412C158.512 151.005 159.614 147.047 160.447 144.082L164.136 145.99Z" fill="#D9935C"/>
<path d="M157.841 158.245L157.886 158.416C157.923 158.56 158.117 158.589 158.195 158.462L158.428 158.086C158.595 157.816 158.688 157.506 158.694 157.189L158.732 155.367L157.516 156.39L157.842 158.244L157.841 158.245Z" fill="#D9935C"/>
<path d="M201.001 119.96C201.001 119.96 199.542 116.42 197.785 118.852C197.102 119.797 198.324 122.777 199.202 122.913C200.08 123.049 200.085 123.527 200.085 123.527L201.001 119.96Z" fill="#D9935C"/>
<path d="M181.706 109.752C181.706 109.752 181.141 109.419 179.648 109.527C179.648 109.527 180.71 110.586 181.706 109.752Z" fill="white"/>
<path d="M105.677 193.745C105.677 193.745 108.675 190.259 105.862 188.044C105.862 188.044 103.808 186.804 102.132 186.905C102.132 186.905 104.505 190.872 103.738 191.267C102.969 191.662 101.413 186.655 101.413 186.655C101.413 186.655 96.7376 186.204 95.2339 186.924C95.2339 186.924 99.231 190.184 98.3884 190.379C97.5469 190.573 93.23 187.372 93.23 187.372C93.23 187.372 88.8787 188.111 89.1105 190.757C89.3423 193.403 90.8418 194.22 91.5008 194.15C92.1599 194.079 96.0142 192.612 96.099 193.15C96.1827 193.688 93.8622 195.448 92.2371 195.53C92.2371 195.53 95.3047 198.903 97.3441 197.929C99.3834 196.955 99.5573 195.412 100.828 194.833C102.099 194.255 103.184 194.257 102.659 194.846C102.134 195.437 99.8342 196.01 99.1075 197.292C98.3809 198.574 97.7283 199.439 99.8385 199.122C101.948 198.805 105.377 197.267 105.527 195.504L105.677 193.742V193.745Z" fill="#82B378"/>
<path d="M91.25 190.831C91.25 190.831 103.068 190.377 105.679 193.747C105.679 193.747 107.204 196.062 107.982 197.456L107.598 198.082C107.598 198.082 106.21 195.612 105.477 195.481C105.477 195.481 106.674 191.333 91.25 190.83V190.831Z" fill="#82B378"/>
<path d="M106.135 195.236C106.135 195.236 108.672 197.107 108.849 200.448L108.388 200.489C108.388 200.489 107.578 197.034 106.114 195.682C104.65 194.331 106.135 195.236 106.135 195.236Z" fill="#82B378"/>
<path d="M116.158 189.362C116.158 189.362 111.389 186.7 113.615 183.088C113.615 183.088 115.395 180.87 117.302 180.299C117.302 180.299 116.285 185.687 117.302 185.813C118.32 185.94 118.002 179.729 118.002 179.729C118.002 179.729 123.024 177.32 124.995 177.511C124.995 177.511 121.88 182.771 122.897 182.645C123.914 182.519 127.41 177.194 127.41 177.194C127.41 177.194 132.56 176.244 133.386 179.286C134.213 182.328 132.878 183.85 132.114 184.039C131.351 184.229 126.456 184.165 126.583 184.8C126.711 185.433 130.017 186.448 131.86 185.877C131.86 185.877 129.825 190.884 127.156 190.63C124.485 190.377 123.659 188.729 122.006 188.603C120.353 188.476 119.145 188.919 119.972 189.363C120.798 189.807 123.595 189.509 124.931 190.64C126.266 191.772 127.347 192.468 124.867 192.976C122.388 193.483 117.938 193.166 117.047 191.265L116.157 189.363L116.158 189.362Z" fill="#A8D29F"/>
<path d="M131.039 180.236C131.039 180.236 117.688 184.546 116.163 189.362C116.163 189.362 116.226 191.517 114.891 193.989V194.94C114.891 194.94 116.289 191.708 117.052 191.264C117.052 191.264 114.064 187.081 131.039 180.236Z" fill="#82B378"/>
<path d="M114.887 193.989C114.887 193.989 112.829 197.106 114.002 200.9L114.532 200.757C114.532 200.757 114.018 196.578 115.096 194.477C116.173 192.375 114.887 193.988 114.887 193.988V193.989Z" fill="#82B378"/>
<path d="M108.572 185.691C108.572 185.691 114.858 182.182 111.924 177.42C111.924 177.42 109.578 174.495 107.063 173.744C107.063 173.744 108.404 180.846 107.063 181.013C105.722 181.179 106.141 172.992 106.141 172.992C106.141 172.992 99.5207 169.817 96.9221 170.068C96.9221 170.068 101.029 177.002 99.6881 176.834C98.3475 176.667 93.7376 169.649 93.7376 169.649C93.7376 169.649 86.9487 168.396 85.8593 172.407C84.7699 176.417 86.5301 178.422 87.5358 178.672C88.5415 178.923 94.9944 178.839 94.827 179.675C94.6595 180.511 90.3018 181.847 87.8707 181.095C87.8707 181.095 90.553 187.695 94.0724 187.361C97.5919 187.027 98.6813 184.855 100.861 184.687C103.04 184.52 104.633 185.104 103.544 185.69C102.454 186.274 98.7661 185.881 97.0069 187.373C95.2467 188.864 93.8224 189.783 97.0907 190.452C100.359 191.121 106.226 190.702 107.399 188.197L108.572 185.691Z" fill="#A8D29F"/>
<path d="M88.9609 173.66C88.9609 173.66 106.56 179.341 108.572 185.69C108.572 185.69 108.488 188.531 110.248 191.789V193.042C110.248 193.042 108.404 188.781 107.399 188.196C107.399 188.196 111.338 182.682 88.9609 173.659V173.66Z" fill="#82B378"/>
<path d="M110.247 191.789C110.247 191.789 112.962 195.898 111.414 200.899L110.715 200.712C110.715 200.712 111.392 195.204 109.973 192.432C108.553 189.662 110.247 191.788 110.247 191.788V191.789Z" fill="#82B378"/>
<path d="M108.781 211.745C101.981 211.745 96.4688 206.249 96.4688 199.471H121.093C121.093 206.249 115.581 211.745 108.781 211.745Z" fill="#BC3F3F"/>
<path d="M105.751 211.652C106.252 211.715 106.762 211.747 107.281 211.747C114.08 211.747 119.592 206.251 119.592 199.473H116.533C116.533 205.735 111.828 210.901 105.75 211.652H105.751Z" fill="#E58F8F"/>
<path d="M96.3047 212.37H121.269C121.269 211.533 120.589 210.855 119.751 210.855H97.8245C96.9863 210.855 96.3058 211.534 96.3058 212.37H96.3047Z" fill="#BC3F3F"/>
<path d="M96.1908 199.848H121.5V199.471H96.1908V199.848Z" fill="#912F2F"/>
<g opacity="0.6">
<path d="M289.917 197.212L288.255 196.444C288.118 196.378 288.028 196.241 288.023 196.09C288.018 195.896 288.005 195.701 287.984 195.504C287.944 195.139 287.88 194.786 287.786 194.445C287.742 194.285 287.799 194.116 287.931 194.018L289.454 192.861C289.617 192.739 289.659 192.51 289.547 192.336L288.612 190.861C288.505 190.695 288.292 190.636 288.114 190.721L286.531 191.496C286.379 191.574 286.192 191.541 286.07 191.414C285.554 190.879 284.951 190.426 284.287 190.075C284.127 189.99 284.044 189.802 284.087 189.628L284.345 188.59C284.392 188.392 284.285 188.188 284.093 188.116L282.458 187.527C282.425 187.515 282.392 187.506 282.357 187.504C282.194 187.488 282.033 187.577 281.963 187.731L281.386 188.968L281.246 189.269C280.921 189.259 280.588 189.269 280.257 189.306C279.809 189.354 279.374 189.443 278.962 189.568C278.804 189.615 278.634 189.564 278.535 189.432L277.601 188.208C277.472 188.041 277.238 187.998 277.062 188.112L275.931 188.825L275.608 189.031C275.431 189.142 275.366 189.37 275.458 189.556L276.106 190.875C276.183 191.027 276.154 191.211 276.034 191.328C275.681 191.684 275.366 192.078 275.098 192.5C275.071 192.535 275.051 192.569 275.03 192.606C275.023 192.618 275.015 192.629 275.005 192.64C274.908 192.768 274.743 192.825 274.586 192.785L272.895 192.372C272.876 192.366 272.856 192.365 272.837 192.363C272.657 192.346 272.485 192.453 272.42 192.624L271.829 194.247C271.758 194.443 271.847 194.66 272.038 194.75L273.772 195.55C273.92 195.617 274.009 195.767 273.999 195.928C273.983 196.282 273.995 196.644 274.035 197.011C274.056 197.204 274.085 197.396 274.122 197.584C274.151 197.737 274.09 197.895 273.966 197.988L272.503 199.1C272.341 199.222 272.3 199.449 272.408 199.622L273.337 201.079C273.449 201.255 273.675 201.321 273.866 201.229L275.119 200.617C275.287 200.534 275.487 200.577 275.606 200.718C276.071 201.279 276.622 201.763 277.236 202.155C277.383 202.245 277.454 202.423 277.412 202.591L277.039 204.11C276.988 204.315 277.102 204.522 277.299 204.595L278.921 205.183C279.116 205.254 279.334 205.163 279.417 204.978L279.452 204.906L280.121 203.469C280.193 203.315 280.35 203.224 280.521 203.236H280.523C280.93 203.264 281.345 203.257 281.767 203.211C281.991 203.187 282.211 203.152 282.429 203.108C282.58 203.076 282.735 203.132 282.829 203.255L283.777 204.498C283.906 204.668 284.146 204.71 284.325 204.597L285.781 203.676C285.822 203.649 285.857 203.616 285.885 203.581C285.975 203.463 285.996 203.298 285.928 203.159L285.408 202.107C285.345 201.978 285.357 201.824 285.434 201.707C285.455 201.677 285.481 201.648 285.51 201.622C286.229 201.023 286.818 200.288 287.248 199.458C287.319 199.316 287.472 199.235 287.627 199.245C287.65 199.246 287.672 199.25 287.695 199.256L289.064 199.591C289.263 199.64 289.466 199.531 289.538 199.339L289.552 199.302L290.129 197.72C290.2 197.52 290.108 197.302 289.915 197.212H289.917ZM277.279 195.581C277.325 195.305 277.4 195.023 277.505 194.737C277.706 194.192 278.275 193.483 278.768 193.172C278.821 193.137 278.873 193.106 278.927 193.074C282.167 191.18 285.814 194.16 284.533 197.736C284.364 198.204 283.943 198.776 283.51 199.15C283.409 199.235 283.308 199.312 283.213 199.37C282.763 199.652 282.305 199.837 281.848 199.938C279.253 200.514 276.828 198.34 277.279 195.581Z" fill="#D2E4FF"/>
</g>
<path d="M107.76 136.823L104.442 136.558C104.166 136.533 103.928 136.357 103.824 136.1C103.693 135.773 103.547 135.448 103.387 135.127C103.089 134.531 102.755 133.969 102.381 133.446C102.206 133.201 102.196 132.879 102.358 132.629L104.222 129.7C104.424 129.39 104.35 128.974 104.049 128.746L101.522 126.822C101.234 126.605 100.834 126.638 100.585 126.895L98.3768 129.209C98.1665 129.439 97.8273 129.498 97.5386 129.358C96.3193 128.771 95.0077 128.378 93.6553 128.196C93.329 128.152 93.0692 127.885 93.0327 127.558L92.8148 125.628C92.7698 125.262 92.4585 124.979 92.085 124.979L88.9272 125.002C88.8617 125.002 88.8006 125.008 88.7405 125.026C88.4528 125.099 88.2349 125.353 88.2135 125.66L88.0117 128.131L87.9634 128.733C87.4031 128.918 86.8439 129.147 86.3008 129.417C85.5698 129.78 84.885 130.205 84.2604 130.677C84.021 130.857 83.6979 130.875 83.4468 130.714L81.0822 129.215C80.7581 129.011 80.332 129.085 80.1023 129.39L78.6264 131.316L78.2046 131.869C77.9739 132.17 78.005 132.599 78.2808 132.859L80.2193 134.699C80.4468 134.91 80.5144 135.241 80.3835 135.516C80.0067 136.346 79.718 137.214 79.5291 138.101C79.5066 138.177 79.4937 138.249 79.4787 138.325C79.4754 138.35 79.4669 138.375 79.4593 138.399C79.3767 138.68 79.1309 138.878 78.8379 138.91L75.6941 139.269C75.6587 139.27 75.6222 139.281 75.59 139.289C75.2744 139.372 75.0469 139.663 75.0469 139.996L75.0651 143.134C75.0683 143.513 75.3581 143.826 75.7402 143.859L79.2007 144.134C79.4948 144.154 79.7416 144.354 79.8286 144.634C80.0261 145.249 80.2729 145.857 80.5735 146.457C80.7323 146.774 80.9019 147.082 81.0833 147.38C81.2293 147.623 81.2271 147.928 81.0736 148.165L79.2822 150.98C79.0837 151.29 79.1567 151.703 79.4518 151.927L81.9548 153.827C82.2565 154.057 82.6836 154.027 82.9509 153.749L84.6983 151.918C84.9323 151.672 85.2994 151.619 85.5934 151.785C86.7408 152.449 87.9859 152.927 89.2803 153.21C89.5873 153.272 89.8202 153.528 89.8557 153.843L90.1798 156.668C90.2227 157.046 90.548 157.33 90.929 157.331L94.0653 157.314C94.442 157.314 94.7543 157.02 94.7812 156.651L94.7941 156.507L95.027 153.636C95.0517 153.328 95.262 153.074 95.5593 152.988H95.5626C96.2742 152.778 96.9783 152.505 97.6674 152.163C98.0345 151.98 98.3854 151.782 98.731 151.57C98.9683 151.42 99.2688 151.42 99.506 151.57L101.906 153.093C102.233 153.302 102.669 153.223 102.902 152.917L104.801 150.433C104.854 150.362 104.892 150.282 104.918 150.205C104.996 149.947 104.926 149.654 104.723 149.46L103.171 147.994C102.984 147.812 102.905 147.544 102.964 147.295C102.98 147.231 103.005 147.166 103.039 147.104C103.886 145.632 104.426 144.008 104.634 142.323C104.666 142.036 104.874 141.804 105.145 141.722C105.184 141.71 105.225 141.703 105.267 141.698L107.813 141.408C108.182 141.367 108.46 141.054 108.46 140.682V140.609L108.445 137.55C108.439 137.165 108.144 136.85 107.759 136.818L107.76 136.823ZM85.1931 141.984C85.0976 141.485 85.045 140.957 85.0439 140.404C85.0439 139.347 85.5645 137.783 86.2074 136.941C86.2761 136.85 86.3459 136.763 86.4156 136.676C90.7401 131.413 98.8405 134.199 98.9157 141.098C98.9242 142 98.5668 143.241 98.0667 144.149C97.9475 144.357 97.8262 144.551 97.6985 144.711C97.1092 145.473 96.4459 146.078 95.7332 146.537C91.6739 149.148 86.1688 146.967 85.192 141.983L85.1931 141.984Z" fill="#F99746"/>
<path d="M36.67 212.204H317.334C317.514 212.204 317.66 212.35 317.66 212.529V212.658C317.66 212.838 317.514 212.983 317.334 212.983H36.67C36.4897 212.983 36.3438 212.838 36.3438 212.658V212.529C36.3438 212.35 36.4897 212.204 36.67 212.204Z" fill="#2E3552"/>
<path d="M260.56 88.573L257.386 86.6663C257.123 86.5047 256.974 86.2104 256.997 85.9044C257.03 85.5139 257.046 85.118 257.046 84.7189C257.046 83.9774 256.993 83.2519 256.88 82.5468C256.828 82.2161 256.977 81.8898 257.265 81.7207L260.58 79.7252C260.935 79.5155 261.07 79.0639 260.883 78.6894L259.322 75.5211C259.144 75.1627 258.728 74.9968 258.352 75.1306L255 76.344C254.677 76.4692 254.309 76.36 254.09 76.0775C253.168 74.8888 252.056 73.8487 250.798 72.9981C250.495 72.7926 250.37 72.3978 250.495 72.0554L251.239 70.0235C251.376 69.6361 251.207 69.2007 250.834 69.0155L247.677 67.4758C247.612 67.4437 247.547 67.4191 247.478 67.4073C247.155 67.3389 246.811 67.4844 246.636 67.7786L245.206 70.1401L244.858 70.7168C244.206 70.6238 243.536 70.5756 242.86 70.5756C241.95 70.5756 241.057 70.6601 240.2 70.8217C239.872 70.8816 239.541 70.7415 239.371 70.4547L237.762 67.7904C237.54 67.4277 237.078 67.2907 236.698 67.4801L234.268 68.6689L233.573 69.0113C233.193 69.1964 233.01 69.6404 233.156 70.0353L234.171 72.828C234.292 73.15 234.195 73.5128 233.928 73.7225C233.139 74.3634 232.42 75.0846 231.789 75.8753C231.729 75.9395 231.68 76.0048 231.627 76.0733C231.611 76.0979 231.59 76.1171 231.57 76.1375C231.348 76.375 231.004 76.452 230.696 76.3386L227.385 75.1413C227.349 75.1252 227.308 75.1167 227.271 75.1092C226.916 75.0364 226.544 75.2141 226.377 75.5447L224.833 78.6809C224.647 79.0596 224.78 79.5155 225.144 79.7369L228.455 81.7239C228.739 81.8887 228.884 82.2119 228.831 82.5339C228.721 83.2433 228.665 83.9731 228.665 84.7189C228.665 85.1137 228.681 85.5053 228.713 85.8916C228.738 86.2062 228.583 86.5079 228.313 86.6695L225.127 88.588C224.775 88.7977 224.642 89.245 224.823 89.6163L226.372 92.7481C226.558 93.1269 226.999 93.3088 227.403 93.1633L230.056 92.2035C230.412 92.074 230.804 92.2035 231.014 92.5138C231.827 93.7432 232.829 94.8357 233.978 95.7581C234.252 95.9721 234.358 96.3423 234.236 96.6729L233.153 99.6475C233.007 100.047 233.19 100.49 233.57 100.679L236.704 102.214C237.08 102.4 237.537 102.263 237.747 101.908L237.832 101.771L239.493 99.0269C239.672 98.7327 240.006 98.5839 240.347 98.6438H240.351C241.164 98.7894 242.001 98.8653 242.858 98.8653C243.316 98.8653 243.764 98.8407 244.213 98.8011C244.524 98.769 244.824 98.9178 244.986 99.1842L246.619 101.889C246.841 102.26 247.315 102.397 247.699 102.208L250.829 100.673C250.918 100.629 250.994 100.568 251.06 100.504C251.266 100.286 251.343 99.9589 251.238 99.6646L250.421 97.4358C250.324 97.1619 250.38 96.8559 250.563 96.6376C250.611 96.5809 250.668 96.5285 250.732 96.4846C252.309 95.4371 253.656 94.0867 254.703 92.5106C254.876 92.241 255.2 92.1115 255.511 92.1639C255.555 92.1725 255.6 92.1843 255.644 92.2003L258.325 93.1719C258.714 93.3131 259.146 93.1398 259.332 92.7685L259.368 92.6957L260.876 89.6409C261.062 89.2535 260.925 88.7945 260.557 88.573H260.56ZM235.504 82.5468C235.657 82.0021 235.868 81.45 236.142 80.8979C236.668 79.8461 237.966 78.5439 239.025 78.0239C239.138 77.9672 239.252 77.9147 239.365 77.8623C246.295 74.7582 252.979 81.542 249.618 88.4553C249.177 89.3584 248.202 90.4188 247.253 91.0757C247.03 91.2245 246.812 91.3582 246.605 91.4545C245.639 91.9221 244.677 92.196 243.738 92.3009C238.393 92.8937 233.994 87.9963 235.503 82.5468H235.504Z" fill="#9FC1F4"/>
<defs>
<filter id="filter0_d_1505_129" x="0" y="0" width="358" height="319" filterUnits="userSpaceOnUse" color-interpolation-filters="sRGB">
<feFlood flood-opacity="0" result="BackgroundImageFix"/>
<feColorMatrix in="SourceAlpha" type="matrix" values="0 0 0 0 0 0 0 0 0 0 0 0 0 0 0 0 0 0 127 0" result="hardAlpha"/>
<feOffset dy="4"/>
<feGaussianBlur stdDeviation="2"/>
<feComposite in2="hardAlpha" operator="out"/>
<feColorMatrix type="matrix" values="0 0 0 0 0 0 0 0 0 0 0 0 0 0 0 0 0 0 0.25 0"/>
<feBlend mode="normal" in2="BackgroundImageFix" result="effect1_dropShadow_1505_129"/>
<feBlend mode="normal" in="SourceGraphic" in2="effect1_dropShadow_1505_129" result="shape"/>
</filter>
</defs>
</svg>
