<svg width="358" height="319" viewBox="0 0 358 319" fill="none" xmlns="http://www.w3.org/2000/svg">
<g filter="url(#filter0_d_312_1632)">
<rect x="4" width="350" height="311" fill="white"/>
<rect x="4.5" y="0.5" width="349" height="310" stroke="#EFEFEF"/>
</g>
<rect x="4" width="350" height="252" fill="url(#paint0_linear_312_1632)"/>
<g clip-path="url(#clip0_312_1632)">
<path opacity="0.34" d="M270.528 31.2178H325.638C328.598 31.2178 331.002 33.6203 331.002 36.5768V57.6944C331.002 60.6509 328.598 63.0534 325.638 63.0534H270.528C267.569 63.0534 265.164 60.6509 265.164 57.6944V36.5817C265.164 33.6252 267.569 31.2227 270.528 31.2227V31.2178Z" fill="url(#paint1_linear_312_1632)"/>
<path opacity="0.34" d="M83.0985 149.906H35.8902C31.9166 149.906 28.6953 153.124 28.6953 157.094V204.257C28.6953 208.227 31.9166 211.445 35.8902 211.445H83.0985C87.0721 211.445 90.2933 208.227 90.2933 204.257V157.094C90.2933 153.124 87.0721 149.906 83.0985 149.906Z" fill="url(#paint2_linear_312_1632)"/>
<path d="M290.313 76.6495V46.3877C290.313 44.0391 288.404 42.1318 286.053 42.1318H192.078" stroke="#F7FBFE" stroke-width="4" stroke-miterlimit="10" stroke-linecap="round"/>
<path d="M52.0469 52.6738H278.376V189.749C278.376 190.98 277.375 191.98 276.143 191.98H54.2799C53.0481 191.98 52.0469 190.98 52.0469 189.749V52.6738Z" fill="url(#paint3_linear_312_1632)"/>
<path d="M54.3683 48.2119H276.148C277.379 48.2119 278.381 49.2121 278.381 50.4428V52.6737H52.0469V50.5262C52.0469 49.2465 53.0873 48.2119 54.3634 48.2119H54.3683Z" fill="#4088FF"/>
<path d="M306.765 107.726H246.752C245.741 107.726 244.922 108.544 244.922 109.554V214.171C244.922 215.181 245.741 216 246.752 216H306.765C307.776 216 308.596 215.181 308.596 214.171V109.554C308.596 108.544 307.776 107.726 306.765 107.726Z" fill="white"/>
<path d="M306.765 139.571H246.752C245.741 139.571 244.922 140.39 244.922 141.4V174.344C244.922 175.354 245.741 176.173 246.752 176.173H306.765C307.776 176.173 308.596 175.354 308.596 174.344V141.4C308.596 140.39 307.776 139.571 306.765 139.571Z" fill="#AED3FF"/>
<g filter="url(#filter1_d_312_1632)">
<path d="M234.56 144.327H122.338C121.238 143.224 120.62 142.611 119.516 141.508V78.1552C119.516 76.6009 120.777 75.3359 122.338 75.3359H234.56C236.116 75.3359 237.382 76.596 237.382 78.1552V141.508C237.382 143.062 236.12 144.327 234.56 144.327Z" fill="#EAEAEA"/>
</g>
<g filter="url(#filter2_d_312_1632)">
<path d="M234.56 144.327H122.338C121.238 143.224 120.62 142.611 119.516 141.508V78.1552C119.516 76.6009 120.777 75.3359 122.338 75.3359H234.56C236.116 75.3359 237.382 76.596 237.382 78.1552V141.508C237.382 143.062 236.12 144.327 234.56 144.327Z" fill="#F7FBFE"/>
<path d="M234.56 144.327H122.338C121.238 143.224 120.62 142.611 119.516 141.508V78.1552C119.516 76.6009 120.777 75.3359 122.338 75.3359H234.56C236.116 75.3359 237.382 76.596 237.382 78.1552V141.508C237.382 143.062 236.12 144.327 234.56 144.327Z" stroke="#F4F4F4" stroke-width="0.5" stroke-miterlimit="10"/>
</g>
<g filter="url(#filter3_d_312_1632)">
<path d="M135.146 151.907H67.241L65.5625 150.23V137.325C65.5625 136.399 66.3134 135.648 67.241 135.648H135.15C136.078 135.648 136.829 136.399 136.829 137.325V150.23C136.829 151.157 136.078 151.907 135.15 151.907H135.146Z" fill="#EAEAEA"/>
</g>
<g filter="url(#filter4_d_312_1632)">
<path d="M67.241 135.648H135.15C136.073 135.648 136.824 136.399 136.824 137.32V150.225C136.824 151.152 136.073 151.902 135.146 151.902H67.241C66.3134 151.902 65.5625 151.152 65.5625 150.225V137.32C65.5625 136.394 66.3134 135.644 67.241 135.644V135.648Z" fill="url(#paint4_linear_312_1632)"/>
</g>
<g filter="url(#filter5_d_312_1632)">
<path d="M135.146 174.956H67.241L65.5625 173.279V160.374C65.5625 159.447 66.3134 158.697 67.241 158.697H135.15C136.078 158.697 136.829 159.447 136.829 160.374V173.279C136.829 174.206 136.078 174.956 135.15 174.956H135.146Z" fill="#EAEAEA"/>
</g>
<g filter="url(#filter6_d_312_1632)">
<path d="M67.241 158.702H135.15C136.073 158.702 136.824 159.452 136.824 160.374V173.279C136.824 174.206 136.073 174.956 135.146 174.956H67.241C66.3134 174.956 65.5625 174.206 65.5625 173.279V160.374C65.5625 159.447 66.3134 158.697 67.241 158.697V158.702Z" fill="#F7FBFE"/>
<path d="M67.241 158.702H135.15C136.073 158.702 136.824 159.452 136.824 160.374V173.279C136.824 174.206 136.073 174.956 135.146 174.956H67.241C66.3134 174.956 65.5625 174.206 65.5625 173.279V160.374C65.5625 159.447 66.3134 158.697 67.241 158.697V158.702Z" stroke="#F4F4F4" stroke-width="0.5" stroke-miterlimit="10"/>
</g>
<g filter="url(#filter7_d_312_1632)">
<path d="M159.898 119.581C159.898 121.096 158.666 122.326 157.149 122.326H131.688C129.881 122.326 128.414 120.865 128.414 119.056V113.677V87.7057C128.414 86.1906 129.646 84.96 131.162 84.96H157.149C158.666 84.96 159.898 86.1906 159.898 87.7057V119.581Z" fill="#EAEAEA"/>
</g>
<g filter="url(#filter8_d_312_1632)">
<path d="M159.898 119.581C159.898 121.096 158.666 122.326 157.149 122.326H131.241C129.68 122.326 128.414 121.061 128.414 119.502V115.869V87.7057C128.414 86.1906 129.646 84.96 131.162 84.96H157.149C158.666 84.96 159.898 86.1906 159.898 87.7057V119.581Z" fill="#D4E3F8"/>
</g>
<path d="M144.159 105.353C139.933 105.353 136.508 108.564 136.508 112.531V112.57H151.815V112.531C151.815 108.569 148.39 105.353 144.164 105.353H144.159Z" fill="#F7FBFE"/>
<path d="M144.75 102.994C146.718 102.729 148.126 101.062 148.126 99.199V98.1448C148.126 96.2817 146.718 94.6146 144.75 94.3498C142.296 94.0213 140.195 95.7963 140.195 98.0321V99.3167C140.195 101.552 142.301 103.327 144.75 102.999V102.994Z" fill="#F7FBFE"/>
<path d="M306.765 107.726H246.752C245.741 107.726 244.922 108.544 244.922 109.554V142.498C244.922 143.508 245.741 144.327 246.752 144.327H306.765C307.776 144.327 308.596 143.508 308.596 142.498V109.554C308.596 108.544 307.776 107.726 306.765 107.726Z" fill="url(#paint5_linear_312_1632)"/>
<path d="M56.2083 50.4431C56.2083 50.9384 55.8059 51.3355 55.3151 51.3355C54.8243 51.3355 54.4219 50.9334 54.4219 50.4431C54.4219 49.9528 54.8243 49.5508 55.3151 49.5508C55.8059 49.5508 56.2083 49.9528 56.2083 50.4431Z" fill="#D4E3F8"/>
<path d="M60.9505 50.4431C60.9505 50.9384 60.5481 51.3355 60.0573 51.3355C59.5665 51.3355 59.1641 50.9334 59.1641 50.4431C59.1641 49.9528 59.5665 49.5508 60.0573 49.5508C60.5481 49.5508 60.9505 49.9528 60.9505 50.4431Z" fill="#D4E3F8"/>
<path d="M65.6849 50.4431C65.6849 50.9384 65.2824 51.3355 64.7917 51.3355C64.3009 51.3355 63.8984 50.9334 63.8984 50.4431C63.8984 49.9528 64.3009 49.5508 64.7917 49.5508C65.2824 49.5508 65.6849 49.9528 65.6849 50.4431Z" fill="#D4E3F8"/>
<path d="M166.695 94.0264H191.602" stroke="#D4E3F8" stroke-width="4" stroke-miterlimit="10" stroke-linecap="round"/>
<path d="M166.695 99.7041H199.985" stroke="#D4E3F8" stroke-width="4" stroke-miterlimit="10" stroke-linecap="round"/>
<path d="M166.695 110.113H218.272" stroke="#D4E3F8" stroke-width="4" stroke-miterlimit="10" stroke-linecap="round"/>
<path d="M166.695 115.041H218.272" stroke="#D4E3F8" stroke-width="4" stroke-miterlimit="10" stroke-linecap="round"/>
<path d="M166.695 119.969H193.305" stroke="#D4E3F8" stroke-width="4" stroke-miterlimit="10" stroke-linecap="round"/>
<path d="M166.695 88.0938H178.754" stroke="#D4E3F8" stroke-width="4" stroke-miterlimit="10" stroke-linecap="round"/>
<path d="M265.492 117.409H282.969" stroke="#D4E3F8" stroke-width="4" stroke-miterlimit="10" stroke-linecap="round"/>
<path d="M265.492 124.519H301.687" stroke="#D4E3F8" stroke-width="4" stroke-miterlimit="10" stroke-linecap="round"/>
<path d="M265.492 128.75H301.687" stroke="#D4E3F8" stroke-width="4" stroke-miterlimit="10" stroke-linecap="round"/>
<path d="M265.492 132.986H284.166" stroke="#D4E3F8" stroke-width="4" stroke-miterlimit="10" stroke-linecap="round"/>
<path d="M265.492 153.128H282.969" stroke="#D4E3F8" stroke-width="4" stroke-miterlimit="10" stroke-linecap="round"/>
<path d="M265.492 160.237H301.687" stroke="#D4E3F8" stroke-width="4" stroke-miterlimit="10" stroke-linecap="round"/>
<path d="M265.492 164.474H301.687" stroke="#D4E3F8" stroke-width="4" stroke-miterlimit="10" stroke-linecap="round"/>
<path d="M265.492 168.705H284.166" stroke="#D4E3F8" stroke-width="4" stroke-miterlimit="10" stroke-linecap="round"/>
<path d="M72.2734 143.777H108.316" stroke="#D4E3F8" stroke-width="4" stroke-miterlimit="10" stroke-linecap="round"/>
<path d="M72.2734 166.827H108.316" stroke="#D4E3F8" stroke-width="4" stroke-miterlimit="10" stroke-linecap="round"/>
<path d="M126.086 143.777H130.842" stroke="#D4E3F8" stroke-width="4" stroke-miterlimit="10" stroke-linecap="round"/>
<path d="M126.086 166.827H130.842" stroke="#D4E3F8" stroke-width="4" stroke-miterlimit="10" stroke-linecap="round"/>
<g filter="url(#filter9_d_312_1632)">
<path d="M108.302 123.857H67.2332C66.5804 123.205 66.2074 122.832 65.5547 122.18V77.5128C65.5547 76.5861 66.3056 75.8359 67.2332 75.8359H108.302C109.229 75.8359 109.98 76.5861 109.98 77.5128V122.18C109.98 123.106 109.229 123.857 108.302 123.857Z" fill="#EAEAEA"/>
</g>
<g filter="url(#filter10_d_312_1632)">
<path d="M67.2381 75.8359H108.307C109.229 75.8359 109.98 76.5861 109.98 77.5079V122.18C109.98 123.106 109.229 123.857 108.302 123.857H67.2332C66.3056 123.857 65.5547 123.106 65.5547 122.18V77.5128C65.5547 76.5861 66.3056 75.8359 67.2332 75.8359H67.2381Z" fill="url(#paint6_linear_312_1632)"/>
</g>
<path d="M81.8069 104.334V109.374C81.8069 109.878 81.9309 110.266 82.1789 110.538C82.4269 110.81 82.7909 110.946 83.2709 110.946C83.7509 110.946 84.1189 110.81 84.3749 110.538C84.6309 110.266 84.7589 109.878 84.7589 109.374V104.334H86.8109V109.362C86.8109 110.114 86.6509 110.75 86.3309 111.27C86.0109 111.79 85.5789 112.182 85.0349 112.446C84.4989 112.71 83.8989 112.842 83.2349 112.842C82.5709 112.842 81.9749 112.714 81.4469 112.458C80.9269 112.194 80.5149 111.802 80.2109 111.282C79.9069 110.754 79.7549 110.114 79.7549 109.362V104.334H81.8069ZM81.8429 122.334V130.758H79.7909V122.334H81.8429Z" fill="#F7FBFE"/>
<path d="M81.8069 104.334H82.0569V104.084H81.8069V104.334ZM82.1789 110.538L81.9941 110.706L81.9941 110.706L82.1789 110.538ZM84.3749 110.538L84.5569 110.709L84.5569 110.709L84.3749 110.538ZM84.7589 104.334V104.084H84.5089V104.334H84.7589ZM86.8109 104.334H87.0609V104.084H86.8109V104.334ZM86.3309 111.27L86.5438 111.401L86.5438 111.401L86.3309 111.27ZM85.0349 112.446L84.9257 112.221L84.9244 112.222L85.0349 112.446ZM81.4469 112.458L81.3337 112.681L81.3378 112.683L81.4469 112.458ZM80.2109 111.282L79.9942 111.407L79.9951 111.408L80.2109 111.282ZM79.7549 104.334V104.084H79.5049V104.334H79.7549ZM81.5569 104.334V109.374H82.0569V104.334H81.5569ZM81.5569 109.374C81.5569 109.917 81.6908 110.374 81.9941 110.706L82.3636 110.369C82.171 110.158 82.0569 109.839 82.0569 109.374H81.5569ZM81.9941 110.706C82.3028 111.045 82.7432 111.196 83.2709 111.196V110.696C82.8386 110.696 82.5509 110.575 82.3636 110.369L81.9941 110.706ZM83.2709 111.196C83.799 111.196 84.2411 111.045 84.5569 110.709L84.1928 110.366C83.9966 110.575 83.7027 110.696 83.2709 110.696V111.196ZM84.5569 110.709C84.87 110.377 85.0089 109.919 85.0089 109.374H84.5089C84.5089 109.837 84.3918 110.155 84.1928 110.366L84.5569 110.709ZM85.0089 109.374V104.334H84.5089V109.374H85.0089ZM84.7589 104.584H86.8109V104.084H84.7589V104.584ZM86.5609 104.334V109.362H87.0609V104.334H86.5609ZM86.5609 109.362C86.5609 110.078 86.4087 110.666 86.118 111.139L86.5438 111.401C86.8931 110.833 87.0609 110.149 87.0609 109.362H86.5609ZM86.118 111.139C85.8226 111.619 85.4265 111.978 84.9257 112.221L85.144 112.671C85.7313 112.386 86.1991 111.961 86.5438 111.401L86.118 111.139ZM84.9244 112.222C84.4264 112.467 83.8649 112.592 83.2349 112.592V113.092C83.9329 113.092 84.5713 112.953 85.1453 112.67L84.9244 112.222ZM83.2349 112.592C82.6037 112.592 82.0457 112.47 81.5559 112.233L81.3378 112.683C81.904 112.957 82.5381 113.092 83.2349 113.092V112.592ZM81.56 112.235C81.0843 111.993 80.7073 111.636 80.4267 111.156L79.9951 111.408C80.3224 111.968 80.7694 112.394 81.3337 112.681L81.56 112.235ZM80.4275 111.157C80.1499 110.675 80.0049 110.08 80.0049 109.362H79.5049C79.5049 110.147 79.6638 110.833 79.9942 111.407L80.4275 111.157ZM80.0049 109.362V104.334H79.5049V109.362H80.0049ZM79.7549 104.584H81.8069V104.084H79.7549V104.584ZM81.8429 122.334H82.0929V122.084H81.8429V122.334ZM81.8429 130.758V131.008H82.0929V130.758H81.8429ZM79.7909 130.758H79.5409V131.008H79.7909V130.758ZM79.7909 122.334V122.084H79.5409V122.334H79.7909ZM81.5929 122.334V130.758H82.0929V122.334H81.5929ZM81.8429 130.508H79.7909V131.008H81.8429V130.508ZM80.0409 130.758V122.334H79.5409V130.758H80.0409ZM79.7909 122.584H81.8429V122.084H79.7909V122.584Z" fill="#F4F4F4"/>
<g filter="url(#filter11_d_312_1632)">
<path d="M235.677 201.967H194.608C193.955 201.315 193.582 200.942 192.93 200.29V155.623C192.93 154.696 193.681 153.946 194.608 153.946H235.677C236.604 153.946 237.355 154.696 237.355 155.623V200.29C237.355 201.217 236.604 201.967 235.677 201.967Z" fill="#EAEAEA"/>
</g>
<g filter="url(#filter12_d_312_1632)">
<path d="M194.613 153.951H235.682C236.604 153.951 237.355 154.701 237.355 155.623V200.295C237.355 201.222 236.604 201.972 235.677 201.972H194.608C193.681 201.972 192.93 201.222 192.93 200.295V155.628C192.93 154.701 193.681 153.951 194.608 153.951H194.613Z" fill="url(#paint7_linear_312_1632)"/>
</g>
<path d="M205.526 182.445V187.485C205.526 187.989 205.65 188.377 205.898 188.649C206.146 188.921 206.51 189.057 206.99 189.057C207.47 189.057 207.838 188.921 208.094 188.649C208.35 188.377 208.478 187.989 208.478 187.485V182.445H210.53V187.473C210.53 188.225 210.37 188.861 210.05 189.381C209.73 189.901 209.298 190.293 208.754 190.557C208.218 190.821 207.618 190.953 206.954 190.953C206.29 190.953 205.694 190.825 205.166 190.569C204.646 190.305 204.234 189.913 203.93 189.393C203.626 188.865 203.474 188.225 203.474 187.473V182.445H205.526ZM208.67 208.869L206.954 206.289L205.442 208.869H203.114L205.814 204.585L203.054 200.445H205.442L207.134 202.989L208.622 200.445H210.95L208.274 204.693L211.058 208.869H208.67Z" fill="#F7FBFE"/>
<path d="M205.526 182.445H205.776V182.195H205.526V182.445ZM205.898 188.649L205.713 188.818L205.713 188.818L205.898 188.649ZM208.094 188.649L208.276 188.82L208.276 188.82L208.094 188.649ZM208.478 182.445V182.195H208.228V182.445H208.478ZM210.53 182.445H210.78V182.195H210.53V182.445ZM210.05 189.381L210.263 189.512L210.263 189.512L210.05 189.381ZM208.754 190.557L208.644 190.332L208.643 190.333L208.754 190.557ZM205.166 190.569L205.052 190.792L205.057 190.794L205.166 190.569ZM203.93 189.393L203.713 189.518L203.714 189.519L203.93 189.393ZM203.474 182.445V182.195H203.224V182.445H203.474ZM205.276 182.445V187.485H205.776V182.445H205.276ZM205.276 187.485C205.276 188.028 205.41 188.485 205.713 188.818L206.082 188.481C205.89 188.269 205.776 187.95 205.776 187.485H205.276ZM205.713 188.818C206.022 189.156 206.462 189.307 206.99 189.307V188.807C206.557 188.807 206.27 188.686 206.082 188.481L205.713 188.818ZM206.99 189.307C207.518 189.307 207.96 189.156 208.276 188.82L207.912 188.478C207.715 188.686 207.421 188.807 206.99 188.807V189.307ZM208.276 188.82C208.589 188.488 208.728 188.03 208.728 187.485H208.228C208.228 187.948 208.111 188.266 207.912 188.478L208.276 188.82ZM208.728 187.485V182.445H208.228V187.485H208.728ZM208.478 182.695H210.53V182.195H208.478V182.695ZM210.28 182.445V187.473H210.78V182.445H210.28ZM210.28 187.473C210.28 188.19 210.127 188.778 209.837 189.25L210.263 189.512C210.612 188.945 210.78 188.261 210.78 187.473H210.28ZM209.837 189.25C209.541 189.73 209.145 190.089 208.644 190.332L208.863 190.782C209.45 190.497 209.918 190.072 210.263 189.512L209.837 189.25ZM208.643 190.333C208.145 190.578 207.584 190.703 206.954 190.703V191.203C207.652 191.203 208.29 191.064 208.864 190.781L208.643 190.333ZM206.954 190.703C206.322 190.703 205.764 190.582 205.275 190.344L205.057 190.794C205.623 191.069 206.257 191.203 206.954 191.203V190.703ZM205.279 190.346C204.803 190.105 204.426 189.747 204.145 189.267L203.714 189.519C204.041 190.079 204.488 190.506 205.052 190.792L205.279 190.346ZM204.146 189.268C203.869 188.786 203.724 188.192 203.724 187.473H203.224C203.224 188.259 203.383 188.944 203.713 189.518L204.146 189.268ZM203.724 187.473V182.445H203.224V187.473H203.724ZM203.474 182.695H205.526V182.195H203.474V182.695ZM208.67 208.869L208.461 209.008L208.536 209.119H208.67V208.869ZM206.954 206.289L207.162 206.151L206.94 205.818L206.738 206.163L206.954 206.289ZM205.442 208.869V209.119H205.585L205.657 208.996L205.442 208.869ZM203.114 208.869L202.902 208.736L202.661 209.119H203.114V208.869ZM205.814 204.585L206.025 204.718L206.112 204.581L206.022 204.446L205.814 204.585ZM203.054 200.445V200.195H202.586L202.846 200.584L203.054 200.445ZM205.442 200.445L205.65 200.307L205.576 200.195H205.442V200.445ZM207.134 202.989L206.925 203.128L207.147 203.461L207.349 203.115L207.134 202.989ZM208.622 200.445V200.195H208.478L208.406 200.319L208.622 200.445ZM210.95 200.445L211.161 200.578L211.403 200.195H210.95V200.445ZM208.274 204.693L208.062 204.56L207.976 204.697L208.066 204.832L208.274 204.693ZM211.058 208.869V209.119H211.525L211.266 208.73L211.058 208.869ZM208.878 208.731L207.162 206.151L206.745 206.428L208.461 209.008L208.878 208.731ZM206.738 206.163L205.226 208.743L205.657 208.996L207.169 206.416L206.738 206.163ZM205.442 208.619H203.114V209.119H205.442V208.619ZM203.325 209.002L206.025 204.718L205.602 204.452L202.902 208.736L203.325 209.002ZM206.022 204.446L203.262 200.306L202.846 200.584L205.606 204.724L206.022 204.446ZM203.054 200.695H205.442V200.195H203.054V200.695ZM205.233 200.584L206.925 203.128L207.342 202.851L205.65 200.307L205.233 200.584ZM207.349 203.115L208.837 200.571L208.406 200.319L206.918 202.863L207.349 203.115ZM208.622 200.695H210.95V200.195H208.622V200.695ZM210.738 200.312L208.062 204.56L208.485 204.826L211.161 200.578L210.738 200.312ZM208.066 204.832L210.85 209.008L211.266 208.73L208.482 204.554L208.066 204.832ZM211.058 208.619H208.67V209.119H211.058V208.619Z" fill="#F4F4F4"/>
<g filter="url(#filter13_d_312_1632)">
<path d="M258.178 99.1595C258.178 100.155 257.373 100.959 256.377 100.959H244.922V33.7672C244.922 32.7719 245.727 31.9678 246.723 31.9678H256.377C257.373 31.9678 258.178 32.7719 258.178 33.7672V99.1595Z" fill="#EAEAEA"/>
</g>
<g filter="url(#filter14_d_312_1632)">
<path d="M256.377 100.959H246.723C245.727 100.959 244.922 100.155 244.922 99.1595V33.7672C244.922 32.7719 245.727 31.9678 246.723 31.9678H256.377C257.373 31.9678 258.178 32.7719 258.178 33.7672V99.1595C258.178 100.155 257.373 100.959 256.377 100.959Z" fill="#F7FBFE"/>
<path d="M256.377 100.959H246.723C245.727 100.959 244.922 100.155 244.922 99.1595V33.7672C244.922 32.7719 245.727 31.9678 246.723 31.9678H256.377C257.373 31.9678 258.178 32.7719 258.178 33.7672V99.1595C258.178 100.155 257.373 100.959 256.377 100.959Z" stroke="#F4F4F4" stroke-width="0.5" stroke-miterlimit="10"/>
</g>
<path d="M251.547 36.665V95.6" stroke="#4088FF" stroke-width="2" stroke-miterlimit="10" stroke-linecap="round"/>
<g filter="url(#filter15_d_312_1632)">
<path d="M251.629 52.7178H251.463C249.904 52.7178 248.641 53.98 248.641 55.537C248.641 57.0941 249.904 58.3563 251.463 58.3563H251.629C253.188 58.3563 254.451 57.0941 254.451 55.537C254.451 53.98 253.188 52.7178 251.629 52.7178Z" fill="#EAEAEA"/>
</g>
<g filter="url(#filter16_d_312_1632)">
<path d="M251.629 52.7178H251.463C249.904 52.7178 248.641 53.98 248.641 55.537C248.641 57.0941 249.904 58.3563 251.463 58.3563H251.629C253.188 58.3563 254.451 57.0941 254.451 55.537C254.451 53.98 253.188 52.7178 251.629 52.7178Z" fill="#D4E3F8"/>
<path d="M251.629 52.7178H251.463C249.904 52.7178 248.641 53.98 248.641 55.537C248.641 57.0941 249.904 58.3563 251.463 58.3563H251.629C253.188 58.3563 254.451 57.0941 254.451 55.537C254.451 53.98 253.188 52.7178 251.629 52.7178Z" stroke="#F4F4F4" stroke-width="0.5" stroke-miterlimit="10"/>
</g>
<g filter="url(#filter17_d_312_1632)">
<path d="M185.661 201.967H144.593C143.94 201.315 143.567 200.942 142.914 200.29V155.623C142.914 154.696 143.665 153.946 144.593 153.946H185.661C186.589 153.946 187.34 154.696 187.34 155.623V200.29C187.34 201.217 186.589 201.967 185.661 201.967Z" fill="#EAEAEA"/>
</g>
<g filter="url(#filter18_d_312_1632)">
<path d="M144.59 153.951H185.658C186.581 153.951 187.332 154.701 187.332 155.623V200.295C187.332 201.222 186.581 201.972 185.653 201.972H144.585C143.657 201.972 142.906 201.222 142.906 200.295V155.628C142.906 154.701 143.657 153.951 144.585 153.951H144.59Z" fill="#D4E3F8"/>
</g>
<path d="M151.086 167.96H164.892" stroke="#4088FF" stroke-width="4" stroke-miterlimit="10" stroke-linecap="round"/>
<path d="M151.086 173.638H169.534" stroke="#4088FF" stroke-width="4" stroke-miterlimit="10" stroke-linecap="round"/>
<path d="M151.086 184.047H179.674" stroke="#4088FF" stroke-width="4" stroke-miterlimit="10" stroke-linecap="round"/>
<path d="M151.086 188.975H179.674" stroke="#4088FF" stroke-width="4" stroke-miterlimit="10" stroke-linecap="round"/>
<path d="M151.086 193.896H165.834" stroke="#4088FF" stroke-width="4" stroke-miterlimit="10" stroke-linecap="round"/>
<path d="M151.086 162.022H157.77" stroke="#4088FF" stroke-width="4" stroke-miterlimit="10" stroke-linecap="round"/>
<path d="M259.23 119.232H252.094V126.361H259.23V119.232Z" fill="#F7FBFE" stroke="#F4F4F4" stroke-width="0.5" stroke-miterlimit="10"/>
<path d="M257.955 121.621H253.43V118.287C253.43 117.036 254.441 116.026 255.692 116.026C256.944 116.026 257.955 117.036 257.955 118.287V121.621Z" stroke="#F7FBFE" stroke-width="3" stroke-miterlimit="10"/>
<path d="M259.175 158.859V154.888C259.175 153.147 257.889 151.706 256.216 151.451V151.137C256.216 150.848 255.98 150.612 255.691 150.612C255.401 150.612 255.166 150.848 255.166 151.137V151.451C253.492 151.706 252.206 153.142 252.206 154.888V158.859C251.73 159.1 251.406 159.585 251.406 160.154H259.975C259.975 159.585 259.651 159.1 259.175 158.859Z" fill="white"/>
<path d="M255.696 162.336C256.629 162.336 257.379 161.581 257.379 160.654H254.008C254.008 161.586 254.764 162.336 255.691 162.336H255.696Z" fill="white"/>
<g filter="url(#filter19_d_312_1632)">
<path d="M299.297 100.959H273.889C269.271 100.959 265.492 97.1836 265.492 92.5698C265.492 87.9364 269.252 84.1758 273.889 84.1758H299.297C303.935 84.1758 307.695 87.9315 307.695 92.5649C307.695 97.1984 303.935 100.954 299.297 100.954V100.959Z" fill="#EAEAEA"/>
</g>
<g filter="url(#filter20_d_312_1632)">
<path d="M299.297 100.959H273.889C269.271 100.959 265.492 97.1836 265.492 92.5698C265.492 87.9364 269.252 84.1758 273.889 84.1758H299.297C303.935 84.1758 307.695 87.9315 307.695 92.5649C307.695 97.1984 303.935 100.954 299.297 100.954V100.959Z" fill="#F7FBFE"/>
<path d="M299.297 100.959H273.889C269.271 100.959 265.492 97.1836 265.492 92.5698C265.492 87.9364 269.252 84.1758 273.889 84.1758H299.297C303.935 84.1758 307.695 87.9315 307.695 92.5649C307.695 97.1984 303.935 100.954 299.297 100.954V100.959Z" stroke="#F4F4F4" stroke-width="0.5" stroke-miterlimit="10"/>
</g>
<g filter="url(#filter21_d_312_1632)">
<path d="M275.122 86.5049H274.758C271.406 86.5049 268.688 89.2192 268.688 92.5675C268.688 95.9158 271.406 98.6302 274.758 98.6302H275.122C278.475 98.6302 281.193 95.9158 281.193 92.5675C281.193 89.2192 278.475 86.5049 275.122 86.5049Z" fill="url(#paint8_linear_312_1632)"/>
</g>
<path d="M254.984 195.373H300.318" stroke="#4088FF" stroke-miterlimit="10" stroke-linecap="round"/>
<path d="M254.008 186.939H278.36" stroke="#D4E3F8" stroke-width="4" stroke-miterlimit="10" stroke-linecap="round"/>
<path d="M254.008 205.096H278.36" stroke="#D4E3F8" stroke-width="4" stroke-miterlimit="10" stroke-linecap="round"/>
<path d="M294.391 186.939H301.762" stroke="#D4E3F8" stroke-width="4" stroke-miterlimit="10" stroke-linecap="round"/>
<path d="M294.391 205.096H301.762" stroke="#D4E3F8" stroke-width="4" stroke-miterlimit="10" stroke-linecap="round"/>
<path d="M210.052 67.4952V64.2249C210.052 62.2293 208.433 60.6162 206.44 60.6162H89.8795C87.5924 60.6162 85.7422 62.4696 85.7422 64.7495V69.7653" stroke="#D4E3F8" stroke-width="4" stroke-miterlimit="10" stroke-linecap="round"/>
<g filter="url(#filter22_d_312_1632)">
<path d="M114.978 38.6309H100.131C96.9954 38.6309 94.4531 41.1707 94.4531 44.3037V58.3706C94.4531 61.5037 96.9954 64.0435 100.131 64.0435H114.978C118.114 64.0435 120.656 61.5037 120.656 58.3706V44.3037C120.656 41.1707 118.114 38.6309 114.978 38.6309Z" fill="#EAEAEA"/>
</g>
<g filter="url(#filter23_d_312_1632)">
<path d="M114.978 38.6309H100.131C96.9954 38.6309 94.4531 41.1707 94.4531 44.3037V58.3706C94.4531 61.5037 96.9954 64.0435 100.131 64.0435H114.978C118.114 64.0435 120.656 61.5037 120.656 58.3706V44.3037C120.656 41.1707 118.114 38.6309 114.978 38.6309Z" fill="#F7FBFE"/>
<path d="M114.978 38.6309H100.131C96.9954 38.6309 94.4531 41.1707 94.4531 44.3037V58.3706C94.4531 61.5037 96.9954 64.0435 100.131 64.0435H114.978C118.114 64.0435 120.656 61.5037 120.656 58.3706V44.3037C120.656 41.1707 118.114 38.6309 114.978 38.6309Z" stroke="#F4F4F4" stroke-width="0.5" stroke-miterlimit="10"/>
</g>
<path d="M111.762 51.3396C111.762 53.6588 109.882 55.5366 107.56 55.5366C105.239 55.5366 103.359 53.6588 103.359 51.3396C103.359 49.0205 105.239 47.1426 107.56 47.1426C109.882 47.1426 111.762 49.0205 111.762 51.3396Z" fill="url(#paint9_linear_312_1632)"/>
<path d="M107.555 49.6289V53.0464" stroke="#F4F4F4" stroke-width="0.5" stroke-miterlimit="10"/>
<path d="M109.267 51.3398H105.852" stroke="#F4F4F4" stroke-width="0.5" stroke-miterlimit="10"/>
<g filter="url(#filter24_d_312_1632)">
<path d="M146.423 38.6309H131.577C128.441 38.6309 125.898 41.1707 125.898 44.3037V58.3706C125.898 61.5037 128.441 64.0435 131.577 64.0435H146.423C149.559 64.0435 152.101 61.5037 152.101 58.3706V44.3037C152.101 41.1707 149.559 38.6309 146.423 38.6309Z" fill="#EAEAEA"/>
</g>
<g filter="url(#filter25_d_312_1632)">
<path d="M146.423 38.6309H131.577C128.441 38.6309 125.898 41.1707 125.898 44.3037V58.3706C125.898 61.5037 128.441 64.0435 131.577 64.0435H146.423C149.559 64.0435 152.101 61.5037 152.101 58.3706V44.3037C152.101 41.1707 149.559 38.6309 146.423 38.6309Z" fill="#F7FBFE"/>
<path d="M146.423 38.6309H131.577C128.441 38.6309 125.898 41.1707 125.898 44.3037V58.3706C125.898 61.5037 128.441 64.0435 131.577 64.0435H146.423C149.559 64.0435 152.101 61.5037 152.101 58.3706V44.3037C152.101 41.1707 149.559 38.6309 146.423 38.6309Z" stroke="#F4F4F4" stroke-width="0.5" stroke-miterlimit="10"/>
</g>
<path d="M143.199 51.3396C143.199 53.6588 141.319 55.5366 138.998 55.5366C136.677 55.5366 134.797 53.6588 134.797 51.3396C134.797 49.0205 136.677 47.1426 138.998 47.1426C141.319 47.1426 143.199 49.0205 143.199 51.3396Z" fill="url(#paint10_linear_312_1632)"/>
<path d="M137.383 51.7371L138.286 52.6736L140.529 50.1289" stroke="#F4F4F4" stroke-width="0.5" stroke-miterlimit="10"/>
<g filter="url(#filter26_d_312_1632)">
<path d="M177.868 38.6309H163.022C159.886 38.6309 157.344 41.1707 157.344 44.3037V58.3706C157.344 61.5037 159.886 64.0435 163.022 64.0435H177.868C181.004 64.0435 183.547 61.5037 183.547 58.3706V44.3037C183.547 41.1707 181.004 38.6309 177.868 38.6309Z" fill="#EAEAEA"/>
</g>
<g filter="url(#filter27_d_312_1632)">
<path d="M177.868 38.6309H163.022C159.886 38.6309 157.344 41.1707 157.344 44.3037V58.3706C157.344 61.5037 159.886 64.0435 163.022 64.0435H177.868C181.004 64.0435 183.547 61.5037 183.547 58.3706V44.3037C183.547 41.1707 181.004 38.6309 177.868 38.6309Z" fill="#F7FBFE"/>
<path d="M177.868 38.6309H163.022C159.886 38.6309 157.344 41.1707 157.344 44.3037V58.3706C157.344 61.5037 159.886 64.0435 163.022 64.0435H177.868C181.004 64.0435 183.547 61.5037 183.547 58.3706V44.3037C183.547 41.1707 181.004 38.6309 177.868 38.6309Z" stroke="#F4F4F4" stroke-width="0.5" stroke-miterlimit="10"/>
</g>
<path d="M174.644 51.3396C174.644 53.6588 172.765 55.5366 170.443 55.5366C168.122 55.5366 166.242 53.6588 166.242 51.3396C166.242 49.0205 168.122 47.1426 170.443 47.1426C172.765 47.1426 174.644 49.0205 174.644 51.3396Z" fill="url(#paint11_linear_312_1632)"/>
<path d="M171.649 50.1289L169.234 52.5461" stroke="#F4F4F4" stroke-width="0.5" stroke-miterlimit="10"/>
<path d="M171.649 52.5461L169.234 50.1289" stroke="#F4F4F4" stroke-width="0.5" stroke-miterlimit="10"/>
<path d="M101.195 184.243V207.028C101.195 209.788 103.433 212.024 106.196 212.024H236.131" stroke="#F7FBFE" stroke-width="4" stroke-miterlimit="10" stroke-linecap="round"/>
</g>
<path d="M30.8281 275.625H32.3281V283.32C32.3281 284.174 32.138 284.885 31.7578 285.453C31.3776 286.021 30.8724 286.448 30.2422 286.734C29.6172 287.016 28.9375 287.156 28.2031 287.156C27.4323 287.156 26.7344 287.016 26.1094 286.734C25.4896 286.448 24.9974 286.021 24.6328 285.453C24.2734 284.885 24.0938 284.174 24.0938 283.32V275.625H25.5859V283.32C25.5859 283.914 25.6953 284.404 25.9141 284.789C26.1328 285.174 26.4375 285.461 26.8281 285.648C27.224 285.836 27.6823 285.93 28.2031 285.93C28.7292 285.93 29.1875 285.836 29.5781 285.648C29.974 285.461 30.2812 285.174 30.5 284.789C30.7188 284.404 30.8281 283.914 30.8281 283.32V275.625ZM36.3125 275.625V287H34.8047V275.625H36.3125ZM42.4219 282.867V282.688C42.4219 282.078 42.5104 281.513 42.6875 280.992C42.8646 280.466 43.1198 280.01 43.4531 279.625C43.7865 279.234 44.1901 278.932 44.6641 278.719C45.138 278.5 45.6693 278.391 46.2578 278.391C46.8516 278.391 47.3854 278.5 47.8594 278.719C48.3385 278.932 48.7448 279.234 49.0781 279.625C49.4167 280.01 49.6745 280.466 49.8516 280.992C50.0286 281.513 50.1172 282.078 50.1172 282.688V282.867C50.1172 283.477 50.0286 284.042 49.8516 284.562C49.6745 285.083 49.4167 285.539 49.0781 285.93C48.7448 286.315 48.3411 286.617 47.8672 286.836C47.3984 287.049 46.8672 287.156 46.2734 287.156C45.6797 287.156 45.1458 287.049 44.6719 286.836C44.1979 286.617 43.7917 286.315 43.4531 285.93C43.1198 285.539 42.8646 285.083 42.6875 284.562C42.5104 284.042 42.4219 283.477 42.4219 282.867ZM43.8672 282.688V282.867C43.8672 283.289 43.9167 283.688 44.0156 284.062C44.1146 284.432 44.263 284.76 44.4609 285.047C44.6641 285.333 44.9167 285.56 45.2188 285.727C45.5208 285.888 45.8724 285.969 46.2734 285.969C46.6693 285.969 47.0156 285.888 47.3125 285.727C47.6146 285.56 47.8646 285.333 48.0625 285.047C48.2604 284.76 48.4089 284.432 48.5078 284.062C48.612 283.688 48.6641 283.289 48.6641 282.867V282.688C48.6641 282.271 48.612 281.878 48.5078 281.508C48.4089 281.133 48.2578 280.802 48.0547 280.516C47.8568 280.224 47.6068 279.995 47.3047 279.828C47.0078 279.661 46.6589 279.578 46.2578 279.578C45.862 279.578 45.513 279.661 45.2109 279.828C44.9141 279.995 44.6641 280.224 44.4609 280.516C44.263 280.802 44.1146 281.133 44.0156 281.508C43.9167 281.878 43.8672 282.271 43.8672 282.688ZM53.375 280.172V290.25H51.9219V278.547H53.25L53.375 280.172ZM59.0703 282.703V282.867C59.0703 283.482 58.9974 284.052 58.8516 284.578C58.7057 285.099 58.4922 285.552 58.2109 285.938C57.9349 286.323 57.5938 286.622 57.1875 286.836C56.7812 287.049 56.3151 287.156 55.7891 287.156C55.2526 287.156 54.7786 287.068 54.3672 286.891C53.9557 286.714 53.6068 286.456 53.3203 286.117C53.0339 285.779 52.8047 285.372 52.6328 284.898C52.4661 284.424 52.3516 283.891 52.2891 283.297V282.422C52.3516 281.797 52.4688 281.237 52.6406 280.742C52.8125 280.247 53.0391 279.826 53.3203 279.477C53.6068 279.122 53.9531 278.854 54.3594 278.672C54.7656 278.484 55.2344 278.391 55.7656 278.391C56.2969 278.391 56.7682 278.495 57.1797 278.703C57.5911 278.906 57.9375 279.198 58.2188 279.578C58.5 279.958 58.7109 280.414 58.8516 280.945C58.9974 281.471 59.0703 282.057 59.0703 282.703ZM57.6172 282.867V282.703C57.6172 282.281 57.5729 281.885 57.4844 281.516C57.3958 281.141 57.2578 280.812 57.0703 280.531C56.888 280.245 56.6536 280.021 56.3672 279.859C56.0807 279.693 55.7396 279.609 55.3438 279.609C54.9792 279.609 54.6615 279.672 54.3906 279.797C54.125 279.922 53.8984 280.091 53.7109 280.305C53.5234 280.513 53.3698 280.753 53.25 281.023C53.1354 281.289 53.0495 281.565 52.9922 281.852V283.875C53.0964 284.24 53.2422 284.583 53.4297 284.906C53.6172 285.224 53.8672 285.482 54.1797 285.68C54.4922 285.872 54.8854 285.969 55.3594 285.969C55.75 285.969 56.0859 285.888 56.3672 285.727C56.6536 285.56 56.888 285.333 57.0703 285.047C57.2578 284.76 57.3958 284.432 57.4844 284.062C57.5729 283.688 57.6172 283.289 57.6172 282.867ZM64.4531 278.547V279.656H59.8828V278.547H64.4531ZM61.4297 276.492H62.875V284.906C62.875 285.193 62.9193 285.409 63.0078 285.555C63.0964 285.701 63.2109 285.797 63.3516 285.844C63.4922 285.891 63.6432 285.914 63.8047 285.914C63.9245 285.914 64.0495 285.904 64.1797 285.883C64.3151 285.857 64.4167 285.836 64.4844 285.82L64.4922 287C64.3776 287.036 64.2266 287.07 64.0391 287.102C63.8568 287.138 63.6354 287.156 63.375 287.156C63.0208 287.156 62.6953 287.086 62.3984 286.945C62.1016 286.805 61.8646 286.57 61.6875 286.242C61.5156 285.909 61.4297 285.461 61.4297 284.898V276.492ZM67.7188 278.547V287H66.2656V278.547H67.7188ZM66.1562 276.305C66.1562 276.07 66.2266 275.872 66.3672 275.711C66.513 275.549 66.7266 275.469 67.0078 275.469C67.2839 275.469 67.4948 275.549 67.6406 275.711C67.7917 275.872 67.8672 276.07 67.8672 276.305C67.8672 276.529 67.7917 276.721 67.6406 276.883C67.4948 277.039 67.2839 277.117 67.0078 277.117C66.7266 277.117 66.513 277.039 66.3672 276.883C66.2266 276.721 66.1562 276.529 66.1562 276.305ZM71.4766 280.227V287H70.0234V278.547H71.3984L71.4766 280.227ZM71.1797 282.453L70.5078 282.43C70.513 281.852 70.5885 281.318 70.7344 280.828C70.8802 280.333 71.0964 279.904 71.3828 279.539C71.6693 279.174 72.026 278.893 72.4531 278.695C72.8802 278.492 73.375 278.391 73.9375 278.391C74.3333 278.391 74.6979 278.448 75.0312 278.562C75.3646 278.672 75.6536 278.846 75.8984 279.086C76.1432 279.326 76.3333 279.633 76.4688 280.008C76.6042 280.383 76.6719 280.836 76.6719 281.367V287H75.2266V281.438C75.2266 280.995 75.151 280.641 75 280.375C74.8542 280.109 74.6458 279.917 74.375 279.797C74.1042 279.672 73.7865 279.609 73.4219 279.609C72.9948 279.609 72.638 279.685 72.3516 279.836C72.0651 279.987 71.8359 280.195 71.6641 280.461C71.4922 280.727 71.3672 281.031 71.2891 281.375C71.2161 281.714 71.1797 282.073 71.1797 282.453ZM76.6562 281.656L75.6875 281.953C75.6927 281.49 75.7682 281.044 75.9141 280.617C76.0651 280.19 76.2812 279.81 76.5625 279.477C76.849 279.143 77.2005 278.88 77.6172 278.688C78.0339 278.49 78.5104 278.391 79.0469 278.391C79.5 278.391 79.901 278.451 80.25 278.57C80.6042 278.69 80.901 278.875 81.1406 279.125C81.3854 279.37 81.5703 279.685 81.6953 280.07C81.8203 280.456 81.8828 280.914 81.8828 281.445V287H80.4297V281.43C80.4297 280.956 80.3542 280.589 80.2031 280.328C80.0573 280.062 79.849 279.878 79.5781 279.773C79.3125 279.664 78.9948 279.609 78.625 279.609C78.3073 279.609 78.026 279.664 77.7812 279.773C77.5365 279.883 77.3307 280.034 77.1641 280.227C76.9974 280.414 76.8698 280.63 76.7812 280.875C76.6979 281.12 76.6562 281.38 76.6562 281.656ZM85.6406 278.547V287H84.1875V278.547H85.6406ZM84.0781 276.305C84.0781 276.07 84.1484 275.872 84.2891 275.711C84.4349 275.549 84.6484 275.469 84.9297 275.469C85.2057 275.469 85.4167 275.549 85.5625 275.711C85.7135 275.872 85.7891 276.07 85.7891 276.305C85.7891 276.529 85.7135 276.721 85.5625 276.883C85.4167 277.039 85.2057 277.117 84.9297 277.117C84.6484 277.117 84.4349 277.039 84.2891 276.883C84.1484 276.721 84.0781 276.529 84.0781 276.305ZM92.8828 284.758C92.8828 284.549 92.8359 284.357 92.7422 284.18C92.6536 283.997 92.4688 283.833 92.1875 283.688C91.9115 283.536 91.4948 283.406 90.9375 283.297C90.4688 283.198 90.0443 283.081 89.6641 282.945C89.2891 282.81 88.9688 282.646 88.7031 282.453C88.4427 282.26 88.2422 282.034 88.1016 281.773C87.9609 281.513 87.8906 281.208 87.8906 280.859C87.8906 280.526 87.9635 280.211 88.1094 279.914C88.2604 279.617 88.4714 279.354 88.7422 279.125C89.0182 278.896 89.349 278.716 89.7344 278.586C90.1198 278.456 90.5495 278.391 91.0234 278.391C91.7005 278.391 92.2786 278.51 92.7578 278.75C93.237 278.99 93.6042 279.31 93.8594 279.711C94.1146 280.107 94.2422 280.547 94.2422 281.031H92.7969C92.7969 280.797 92.7266 280.57 92.5859 280.352C92.4505 280.128 92.25 279.943 91.9844 279.797C91.724 279.651 91.4036 279.578 91.0234 279.578C90.6224 279.578 90.2969 279.641 90.0469 279.766C89.8021 279.885 89.6224 280.039 89.5078 280.227C89.3984 280.414 89.3438 280.612 89.3438 280.82C89.3438 280.977 89.3698 281.117 89.4219 281.242C89.4792 281.362 89.5781 281.474 89.7188 281.578C89.8594 281.677 90.0573 281.771 90.3125 281.859C90.5677 281.948 90.8932 282.036 91.2891 282.125C91.9818 282.281 92.5521 282.469 93 282.688C93.4479 282.906 93.7812 283.174 94 283.492C94.2188 283.81 94.3281 284.195 94.3281 284.648C94.3281 285.018 94.25 285.357 94.0938 285.664C93.9427 285.971 93.7214 286.237 93.4297 286.461C93.1432 286.68 92.7995 286.852 92.3984 286.977C92.0026 287.096 91.5573 287.156 91.0625 287.156C90.3177 287.156 89.6875 287.023 89.1719 286.758C88.6562 286.492 88.2656 286.148 88 285.727C87.7344 285.305 87.6016 284.859 87.6016 284.391H89.0547C89.0755 284.786 89.1901 285.102 89.3984 285.336C89.6068 285.565 89.862 285.729 90.1641 285.828C90.4661 285.922 90.7656 285.969 91.0625 285.969C91.4583 285.969 91.7891 285.917 92.0547 285.812C92.3255 285.708 92.5312 285.565 92.6719 285.383C92.8125 285.201 92.8828 284.992 92.8828 284.758ZM101.211 285.555V281.203C101.211 280.87 101.143 280.581 101.008 280.336C100.878 280.086 100.68 279.893 100.414 279.758C100.148 279.622 99.8203 279.555 99.4297 279.555C99.0651 279.555 98.7448 279.617 98.4688 279.742C98.1979 279.867 97.9844 280.031 97.8281 280.234C97.6771 280.438 97.6016 280.656 97.6016 280.891H96.1562C96.1562 280.589 96.2344 280.289 96.3906 279.992C96.5469 279.695 96.7708 279.427 97.0625 279.188C97.3594 278.943 97.7135 278.75 98.125 278.609C98.5417 278.464 99.0052 278.391 99.5156 278.391C100.13 278.391 100.672 278.495 101.141 278.703C101.615 278.911 101.984 279.227 102.25 279.648C102.521 280.065 102.656 280.589 102.656 281.219V285.156C102.656 285.438 102.68 285.737 102.727 286.055C102.779 286.372 102.854 286.646 102.953 286.875V287H101.445C101.372 286.833 101.315 286.612 101.273 286.336C101.232 286.055 101.211 285.794 101.211 285.555ZM101.461 281.875L101.477 282.891H100.016C99.6042 282.891 99.237 282.924 98.9141 282.992C98.5911 283.055 98.3203 283.151 98.1016 283.281C97.8828 283.411 97.7161 283.576 97.6016 283.773C97.487 283.966 97.4297 284.193 97.4297 284.453C97.4297 284.719 97.4896 284.961 97.6094 285.18C97.7292 285.398 97.9089 285.573 98.1484 285.703C98.3932 285.828 98.6927 285.891 99.0469 285.891C99.4896 285.891 99.8802 285.797 100.219 285.609C100.557 285.422 100.826 285.193 101.023 284.922C101.227 284.651 101.336 284.388 101.352 284.133L101.969 284.828C101.932 285.047 101.833 285.289 101.672 285.555C101.51 285.82 101.294 286.076 101.023 286.32C100.758 286.56 100.44 286.76 100.07 286.922C99.7057 287.078 99.2943 287.156 98.8359 287.156C98.263 287.156 97.7604 287.044 97.3281 286.82C96.901 286.596 96.5677 286.297 96.3281 285.922C96.0938 285.542 95.9766 285.117 95.9766 284.648C95.9766 284.195 96.0651 283.797 96.2422 283.453C96.4193 283.104 96.6745 282.815 97.0078 282.586C97.3411 282.352 97.7422 282.174 98.2109 282.055C98.6797 281.935 99.2031 281.875 99.7812 281.875H101.461ZM108.469 278.547V279.656H103.898V278.547H108.469ZM105.445 276.492H106.891V284.906C106.891 285.193 106.935 285.409 107.023 285.555C107.112 285.701 107.227 285.797 107.367 285.844C107.508 285.891 107.659 285.914 107.82 285.914C107.94 285.914 108.065 285.904 108.195 285.883C108.331 285.857 108.432 285.836 108.5 285.82L108.508 287C108.393 287.036 108.242 287.07 108.055 287.102C107.872 287.138 107.651 287.156 107.391 287.156C107.036 287.156 106.711 287.086 106.414 286.945C106.117 286.805 105.88 286.57 105.703 286.242C105.531 285.909 105.445 285.461 105.445 284.898V276.492ZM111.734 278.547V287H110.281V278.547H111.734ZM110.172 276.305C110.172 276.07 110.242 275.872 110.383 275.711C110.529 275.549 110.742 275.469 111.023 275.469C111.299 275.469 111.51 275.549 111.656 275.711C111.807 275.872 111.883 276.07 111.883 276.305C111.883 276.529 111.807 276.721 111.656 276.883C111.51 277.039 111.299 277.117 111.023 277.117C110.742 277.117 110.529 277.039 110.383 276.883C110.242 276.721 110.172 276.529 110.172 276.305ZM113.672 282.867V282.688C113.672 282.078 113.76 281.513 113.938 280.992C114.115 280.466 114.37 280.01 114.703 279.625C115.036 279.234 115.44 278.932 115.914 278.719C116.388 278.5 116.919 278.391 117.508 278.391C118.102 278.391 118.635 278.5 119.109 278.719C119.589 278.932 119.995 279.234 120.328 279.625C120.667 280.01 120.924 280.466 121.102 280.992C121.279 281.513 121.367 282.078 121.367 282.688V282.867C121.367 283.477 121.279 284.042 121.102 284.562C120.924 285.083 120.667 285.539 120.328 285.93C119.995 286.315 119.591 286.617 119.117 286.836C118.648 287.049 118.117 287.156 117.523 287.156C116.93 287.156 116.396 287.049 115.922 286.836C115.448 286.617 115.042 286.315 114.703 285.93C114.37 285.539 114.115 285.083 113.938 284.562C113.76 284.042 113.672 283.477 113.672 282.867ZM115.117 282.688V282.867C115.117 283.289 115.167 283.688 115.266 284.062C115.365 284.432 115.513 284.76 115.711 285.047C115.914 285.333 116.167 285.56 116.469 285.727C116.771 285.888 117.122 285.969 117.523 285.969C117.919 285.969 118.266 285.888 118.562 285.727C118.865 285.56 119.115 285.333 119.312 285.047C119.51 284.76 119.659 284.432 119.758 284.062C119.862 283.688 119.914 283.289 119.914 282.867V282.688C119.914 282.271 119.862 281.878 119.758 281.508C119.659 281.133 119.508 280.802 119.305 280.516C119.107 280.224 118.857 279.995 118.555 279.828C118.258 279.661 117.909 279.578 117.508 279.578C117.112 279.578 116.763 279.661 116.461 279.828C116.164 279.995 115.914 280.224 115.711 280.516C115.513 280.802 115.365 281.133 115.266 281.508C115.167 281.878 115.117 282.271 115.117 282.688ZM124.625 280.352V287H123.18V278.547H124.547L124.625 280.352ZM124.281 282.453L123.68 282.43C123.685 281.852 123.771 281.318 123.938 280.828C124.104 280.333 124.339 279.904 124.641 279.539C124.943 279.174 125.302 278.893 125.719 278.695C126.141 278.492 126.607 278.391 127.117 278.391C127.534 278.391 127.909 278.448 128.242 278.562C128.576 278.672 128.859 278.849 129.094 279.094C129.333 279.339 129.516 279.656 129.641 280.047C129.766 280.432 129.828 280.904 129.828 281.461V287H128.375V281.445C128.375 281.003 128.31 280.648 128.18 280.383C128.049 280.112 127.859 279.917 127.609 279.797C127.359 279.672 127.052 279.609 126.688 279.609C126.328 279.609 126 279.685 125.703 279.836C125.411 279.987 125.159 280.195 124.945 280.461C124.737 280.727 124.573 281.031 124.453 281.375C124.339 281.714 124.281 282.073 124.281 282.453ZM140.977 285.555V281.203C140.977 280.87 140.909 280.581 140.773 280.336C140.643 280.086 140.445 279.893 140.18 279.758C139.914 279.622 139.586 279.555 139.195 279.555C138.831 279.555 138.51 279.617 138.234 279.742C137.964 279.867 137.75 280.031 137.594 280.234C137.443 280.438 137.367 280.656 137.367 280.891H135.922C135.922 280.589 136 280.289 136.156 279.992C136.312 279.695 136.536 279.427 136.828 279.188C137.125 278.943 137.479 278.75 137.891 278.609C138.307 278.464 138.771 278.391 139.281 278.391C139.896 278.391 140.438 278.495 140.906 278.703C141.38 278.911 141.75 279.227 142.016 279.648C142.286 280.065 142.422 280.589 142.422 281.219V285.156C142.422 285.438 142.445 285.737 142.492 286.055C142.544 286.372 142.62 286.646 142.719 286.875V287H141.211C141.138 286.833 141.081 286.612 141.039 286.336C140.997 286.055 140.977 285.794 140.977 285.555ZM141.227 281.875L141.242 282.891H139.781C139.37 282.891 139.003 282.924 138.68 282.992C138.357 283.055 138.086 283.151 137.867 283.281C137.648 283.411 137.482 283.576 137.367 283.773C137.253 283.966 137.195 284.193 137.195 284.453C137.195 284.719 137.255 284.961 137.375 285.18C137.495 285.398 137.674 285.573 137.914 285.703C138.159 285.828 138.458 285.891 138.812 285.891C139.255 285.891 139.646 285.797 139.984 285.609C140.323 285.422 140.591 285.193 140.789 284.922C140.992 284.651 141.102 284.388 141.117 284.133L141.734 284.828C141.698 285.047 141.599 285.289 141.438 285.555C141.276 285.82 141.06 286.076 140.789 286.32C140.523 286.56 140.206 286.76 139.836 286.922C139.471 287.078 139.06 287.156 138.602 287.156C138.029 287.156 137.526 287.044 137.094 286.82C136.667 286.596 136.333 286.297 136.094 285.922C135.859 285.542 135.742 285.117 135.742 284.648C135.742 284.195 135.831 283.797 136.008 283.453C136.185 283.104 136.44 282.815 136.773 282.586C137.107 282.352 137.508 282.174 137.977 282.055C138.445 281.935 138.969 281.875 139.547 281.875H141.227ZM146.141 280.352V287H144.695V278.547H146.062L146.141 280.352ZM145.797 282.453L145.195 282.43C145.201 281.852 145.286 281.318 145.453 280.828C145.62 280.333 145.854 279.904 146.156 279.539C146.458 279.174 146.818 278.893 147.234 278.695C147.656 278.492 148.122 278.391 148.633 278.391C149.049 278.391 149.424 278.448 149.758 278.562C150.091 278.672 150.375 278.849 150.609 279.094C150.849 279.339 151.031 279.656 151.156 280.047C151.281 280.432 151.344 280.904 151.344 281.461V287H149.891V281.445C149.891 281.003 149.826 280.648 149.695 280.383C149.565 280.112 149.375 279.917 149.125 279.797C148.875 279.672 148.568 279.609 148.203 279.609C147.844 279.609 147.516 279.685 147.219 279.836C146.927 279.987 146.674 280.195 146.461 280.461C146.253 280.727 146.089 281.031 145.969 281.375C145.854 281.714 145.797 282.073 145.797 282.453ZM158.867 285.359V275H160.32V287H158.992L158.867 285.359ZM153.18 282.867V282.703C153.18 282.057 153.258 281.471 153.414 280.945C153.576 280.414 153.802 279.958 154.094 279.578C154.391 279.198 154.742 278.906 155.148 278.703C155.56 278.495 156.018 278.391 156.523 278.391C157.055 278.391 157.518 278.484 157.914 278.672C158.315 278.854 158.654 279.122 158.93 279.477C159.211 279.826 159.432 280.247 159.594 280.742C159.755 281.237 159.867 281.797 159.93 282.422V283.141C159.872 283.76 159.76 284.318 159.594 284.812C159.432 285.307 159.211 285.729 158.93 286.078C158.654 286.427 158.315 286.695 157.914 286.883C157.513 287.065 157.044 287.156 156.508 287.156C156.013 287.156 155.56 287.049 155.148 286.836C154.742 286.622 154.391 286.323 154.094 285.938C153.802 285.552 153.576 285.099 153.414 284.578C153.258 284.052 153.18 283.482 153.18 282.867ZM154.633 282.703V282.867C154.633 283.289 154.674 283.685 154.758 284.055C154.846 284.424 154.982 284.75 155.164 285.031C155.346 285.312 155.578 285.534 155.859 285.695C156.141 285.852 156.477 285.93 156.867 285.93C157.346 285.93 157.74 285.828 158.047 285.625C158.359 285.422 158.609 285.154 158.797 284.82C158.984 284.487 159.13 284.125 159.234 283.734V281.852C159.172 281.565 159.081 281.289 158.961 281.023C158.846 280.753 158.695 280.513 158.508 280.305C158.326 280.091 158.099 279.922 157.828 279.797C157.562 279.672 157.247 279.609 156.883 279.609C156.487 279.609 156.146 279.693 155.859 279.859C155.578 280.021 155.346 280.245 155.164 280.531C154.982 280.812 154.846 281.141 154.758 281.516C154.674 281.885 154.633 282.281 154.633 282.703ZM167.984 280.352V287H166.539V278.547H167.906L167.984 280.352ZM167.641 282.453L167.039 282.43C167.044 281.852 167.13 281.318 167.297 280.828C167.464 280.333 167.698 279.904 168 279.539C168.302 279.174 168.661 278.893 169.078 278.695C169.5 278.492 169.966 278.391 170.477 278.391C170.893 278.391 171.268 278.448 171.602 278.562C171.935 278.672 172.219 278.849 172.453 279.094C172.693 279.339 172.875 279.656 173 280.047C173.125 280.432 173.188 280.904 173.188 281.461V287H171.734V281.445C171.734 281.003 171.669 280.648 171.539 280.383C171.409 280.112 171.219 279.917 170.969 279.797C170.719 279.672 170.411 279.609 170.047 279.609C169.688 279.609 169.359 279.685 169.062 279.836C168.771 279.987 168.518 280.195 168.305 280.461C168.096 280.727 167.932 281.031 167.812 281.375C167.698 281.714 167.641 282.073 167.641 282.453ZM178.891 287.156C178.302 287.156 177.768 287.057 177.289 286.859C176.815 286.656 176.406 286.372 176.062 286.008C175.724 285.643 175.464 285.211 175.281 284.711C175.099 284.211 175.008 283.664 175.008 283.07V282.742C175.008 282.055 175.109 281.443 175.312 280.906C175.516 280.365 175.792 279.906 176.141 279.531C176.49 279.156 176.885 278.872 177.328 278.68C177.771 278.487 178.229 278.391 178.703 278.391C179.307 278.391 179.828 278.495 180.266 278.703C180.708 278.911 181.07 279.203 181.352 279.578C181.633 279.948 181.841 280.385 181.977 280.891C182.112 281.391 182.18 281.938 182.18 282.531V283.18H175.867V282H180.734V281.891C180.714 281.516 180.635 281.151 180.5 280.797C180.37 280.443 180.161 280.151 179.875 279.922C179.589 279.693 179.198 279.578 178.703 279.578C178.375 279.578 178.073 279.648 177.797 279.789C177.521 279.924 177.284 280.128 177.086 280.398C176.888 280.669 176.734 281 176.625 281.391C176.516 281.781 176.461 282.232 176.461 282.742V283.07C176.461 283.471 176.516 283.849 176.625 284.203C176.74 284.552 176.904 284.859 177.117 285.125C177.336 285.391 177.599 285.599 177.906 285.75C178.219 285.901 178.573 285.977 178.969 285.977C179.479 285.977 179.911 285.872 180.266 285.664C180.62 285.456 180.93 285.177 181.195 284.828L182.07 285.523C181.888 285.799 181.656 286.062 181.375 286.312C181.094 286.562 180.747 286.766 180.336 286.922C179.93 287.078 179.448 287.156 178.891 287.156ZM186.008 285.5L188.18 278.547H189.133L188.945 279.93L186.734 287H185.805L186.008 285.5ZM184.547 278.547L186.398 285.578L186.531 287H185.555L183.102 278.547H184.547ZM191.211 285.523L192.977 278.547H194.414L191.961 287H190.992L191.211 285.523ZM189.344 278.547L191.469 285.383L191.711 287H190.789L188.516 279.914L188.328 278.547H189.344ZM201.312 280.172V290.25H199.859V278.547H201.188L201.312 280.172ZM207.008 282.703V282.867C207.008 283.482 206.935 284.052 206.789 284.578C206.643 285.099 206.43 285.552 206.148 285.938C205.872 286.323 205.531 286.622 205.125 286.836C204.719 287.049 204.253 287.156 203.727 287.156C203.19 287.156 202.716 287.068 202.305 286.891C201.893 286.714 201.544 286.456 201.258 286.117C200.971 285.779 200.742 285.372 200.57 284.898C200.404 284.424 200.289 283.891 200.227 283.297V282.422C200.289 281.797 200.406 281.237 200.578 280.742C200.75 280.247 200.977 279.826 201.258 279.477C201.544 279.122 201.891 278.854 202.297 278.672C202.703 278.484 203.172 278.391 203.703 278.391C204.234 278.391 204.706 278.495 205.117 278.703C205.529 278.906 205.875 279.198 206.156 279.578C206.438 279.958 206.648 280.414 206.789 280.945C206.935 281.471 207.008 282.057 207.008 282.703ZM205.555 282.867V282.703C205.555 282.281 205.51 281.885 205.422 281.516C205.333 281.141 205.195 280.812 205.008 280.531C204.826 280.245 204.591 280.021 204.305 279.859C204.018 279.693 203.677 279.609 203.281 279.609C202.917 279.609 202.599 279.672 202.328 279.797C202.062 279.922 201.836 280.091 201.648 280.305C201.461 280.513 201.307 280.753 201.188 281.023C201.073 281.289 200.987 281.565 200.93 281.852V283.875C201.034 284.24 201.18 284.583 201.367 284.906C201.555 285.224 201.805 285.482 202.117 285.68C202.43 285.872 202.823 285.969 203.297 285.969C203.688 285.969 204.023 285.888 204.305 285.727C204.591 285.56 204.826 285.333 205.008 285.047C205.195 284.76 205.333 284.432 205.422 284.062C205.51 283.688 205.555 283.289 205.555 282.867ZM213.836 285.555V281.203C213.836 280.87 213.768 280.581 213.633 280.336C213.503 280.086 213.305 279.893 213.039 279.758C212.773 279.622 212.445 279.555 212.055 279.555C211.69 279.555 211.37 279.617 211.094 279.742C210.823 279.867 210.609 280.031 210.453 280.234C210.302 280.438 210.227 280.656 210.227 280.891H208.781C208.781 280.589 208.859 280.289 209.016 279.992C209.172 279.695 209.396 279.427 209.688 279.188C209.984 278.943 210.339 278.75 210.75 278.609C211.167 278.464 211.63 278.391 212.141 278.391C212.755 278.391 213.297 278.495 213.766 278.703C214.24 278.911 214.609 279.227 214.875 279.648C215.146 280.065 215.281 280.589 215.281 281.219V285.156C215.281 285.438 215.305 285.737 215.352 286.055C215.404 286.372 215.479 286.646 215.578 286.875V287H214.07C213.997 286.833 213.94 286.612 213.898 286.336C213.857 286.055 213.836 285.794 213.836 285.555ZM214.086 281.875L214.102 282.891H212.641C212.229 282.891 211.862 282.924 211.539 282.992C211.216 283.055 210.945 283.151 210.727 283.281C210.508 283.411 210.341 283.576 210.227 283.773C210.112 283.966 210.055 284.193 210.055 284.453C210.055 284.719 210.115 284.961 210.234 285.18C210.354 285.398 210.534 285.573 210.773 285.703C211.018 285.828 211.318 285.891 211.672 285.891C212.115 285.891 212.505 285.797 212.844 285.609C213.182 285.422 213.451 285.193 213.648 284.922C213.852 284.651 213.961 284.388 213.977 284.133L214.594 284.828C214.557 285.047 214.458 285.289 214.297 285.555C214.135 285.82 213.919 286.076 213.648 286.32C213.383 286.56 213.065 286.76 212.695 286.922C212.331 287.078 211.919 287.156 211.461 287.156C210.888 287.156 210.385 287.044 209.953 286.82C209.526 286.596 209.193 286.297 208.953 285.922C208.719 285.542 208.602 285.117 208.602 284.648C208.602 284.195 208.69 283.797 208.867 283.453C209.044 283.104 209.299 282.815 209.633 282.586C209.966 282.352 210.367 282.174 210.836 282.055C211.305 281.935 211.828 281.875 212.406 281.875H214.086ZM221.094 278.547V279.656H216.523V278.547H221.094ZM218.07 276.492H219.516V284.906C219.516 285.193 219.56 285.409 219.648 285.555C219.737 285.701 219.852 285.797 219.992 285.844C220.133 285.891 220.284 285.914 220.445 285.914C220.565 285.914 220.69 285.904 220.82 285.883C220.956 285.857 221.057 285.836 221.125 285.82L221.133 287C221.018 287.036 220.867 287.07 220.68 287.102C220.497 287.138 220.276 287.156 220.016 287.156C219.661 287.156 219.336 287.086 219.039 286.945C218.742 286.805 218.505 286.57 218.328 286.242C218.156 285.909 218.07 285.461 218.07 284.898V276.492ZM226.328 278.547V279.656H221.758V278.547H226.328ZM223.305 276.492H224.75V284.906C224.75 285.193 224.794 285.409 224.883 285.555C224.971 285.701 225.086 285.797 225.227 285.844C225.367 285.891 225.518 285.914 225.68 285.914C225.799 285.914 225.924 285.904 226.055 285.883C226.19 285.857 226.292 285.836 226.359 285.82L226.367 287C226.253 287.036 226.102 287.07 225.914 287.102C225.732 287.138 225.51 287.156 225.25 287.156C224.896 287.156 224.57 287.086 224.273 286.945C223.977 286.805 223.74 286.57 223.562 286.242C223.391 285.909 223.305 285.461 223.305 284.898V276.492ZM231.531 287.156C230.943 287.156 230.409 287.057 229.93 286.859C229.456 286.656 229.047 286.372 228.703 286.008C228.365 285.643 228.104 285.211 227.922 284.711C227.74 284.211 227.648 283.664 227.648 283.07V282.742C227.648 282.055 227.75 281.443 227.953 280.906C228.156 280.365 228.432 279.906 228.781 279.531C229.13 279.156 229.526 278.872 229.969 278.68C230.411 278.487 230.87 278.391 231.344 278.391C231.948 278.391 232.469 278.495 232.906 278.703C233.349 278.911 233.711 279.203 233.992 279.578C234.273 279.948 234.482 280.385 234.617 280.891C234.753 281.391 234.82 281.938 234.82 282.531V283.18H228.508V282H233.375V281.891C233.354 281.516 233.276 281.151 233.141 280.797C233.01 280.443 232.802 280.151 232.516 279.922C232.229 279.693 231.839 279.578 231.344 279.578C231.016 279.578 230.714 279.648 230.438 279.789C230.161 279.924 229.924 280.128 229.727 280.398C229.529 280.669 229.375 281 229.266 281.391C229.156 281.781 229.102 282.232 229.102 282.742V283.07C229.102 283.471 229.156 283.849 229.266 284.203C229.38 284.552 229.544 284.859 229.758 285.125C229.977 285.391 230.24 285.599 230.547 285.75C230.859 285.901 231.214 285.977 231.609 285.977C232.12 285.977 232.552 285.872 232.906 285.664C233.26 285.456 233.57 285.177 233.836 284.828L234.711 285.523C234.529 285.799 234.297 286.062 234.016 286.312C233.734 286.562 233.388 286.766 232.977 286.922C232.57 287.078 232.089 287.156 231.531 287.156ZM237.953 279.875V287H236.508V278.547H237.914L237.953 279.875ZM240.594 278.5L240.586 279.844C240.466 279.818 240.352 279.802 240.242 279.797C240.138 279.786 240.018 279.781 239.883 279.781C239.549 279.781 239.255 279.833 239 279.938C238.745 280.042 238.529 280.188 238.352 280.375C238.174 280.562 238.034 280.786 237.93 281.047C237.831 281.302 237.766 281.583 237.734 281.891L237.328 282.125C237.328 281.615 237.378 281.135 237.477 280.688C237.581 280.24 237.74 279.844 237.953 279.5C238.167 279.151 238.438 278.88 238.766 278.688C239.099 278.49 239.495 278.391 239.953 278.391C240.057 278.391 240.177 278.404 240.312 278.43C240.448 278.451 240.542 278.474 240.594 278.5ZM243.375 280.352V287H241.93V278.547H243.297L243.375 280.352ZM243.031 282.453L242.43 282.43C242.435 281.852 242.521 281.318 242.688 280.828C242.854 280.333 243.089 279.904 243.391 279.539C243.693 279.174 244.052 278.893 244.469 278.695C244.891 278.492 245.357 278.391 245.867 278.391C246.284 278.391 246.659 278.448 246.992 278.562C247.326 278.672 247.609 278.849 247.844 279.094C248.083 279.339 248.266 279.656 248.391 280.047C248.516 280.432 248.578 280.904 248.578 281.461V287H247.125V281.445C247.125 281.003 247.06 280.648 246.93 280.383C246.799 280.112 246.609 279.917 246.359 279.797C246.109 279.672 245.802 279.609 245.438 279.609C245.078 279.609 244.75 279.685 244.453 279.836C244.161 279.987 243.909 280.195 243.695 280.461C243.487 280.727 243.323 281.031 243.203 281.375C243.089 281.714 243.031 282.073 243.031 282.453ZM255.695 284.758C255.695 284.549 255.648 284.357 255.555 284.18C255.466 283.997 255.281 283.833 255 283.688C254.724 283.536 254.307 283.406 253.75 283.297C253.281 283.198 252.857 283.081 252.477 282.945C252.102 282.81 251.781 282.646 251.516 282.453C251.255 282.26 251.055 282.034 250.914 281.773C250.773 281.513 250.703 281.208 250.703 280.859C250.703 280.526 250.776 280.211 250.922 279.914C251.073 279.617 251.284 279.354 251.555 279.125C251.831 278.896 252.161 278.716 252.547 278.586C252.932 278.456 253.362 278.391 253.836 278.391C254.513 278.391 255.091 278.51 255.57 278.75C256.049 278.99 256.417 279.31 256.672 279.711C256.927 280.107 257.055 280.547 257.055 281.031H255.609C255.609 280.797 255.539 280.57 255.398 280.352C255.263 280.128 255.062 279.943 254.797 279.797C254.536 279.651 254.216 279.578 253.836 279.578C253.435 279.578 253.109 279.641 252.859 279.766C252.615 279.885 252.435 280.039 252.32 280.227C252.211 280.414 252.156 280.612 252.156 280.82C252.156 280.977 252.182 281.117 252.234 281.242C252.292 281.362 252.391 281.474 252.531 281.578C252.672 281.677 252.87 281.771 253.125 281.859C253.38 281.948 253.706 282.036 254.102 282.125C254.794 282.281 255.365 282.469 255.812 282.688C256.26 282.906 256.594 283.174 256.812 283.492C257.031 283.81 257.141 284.195 257.141 284.648C257.141 285.018 257.062 285.357 256.906 285.664C256.755 285.971 256.534 286.237 256.242 286.461C255.956 286.68 255.612 286.852 255.211 286.977C254.815 287.096 254.37 287.156 253.875 287.156C253.13 287.156 252.5 287.023 251.984 286.758C251.469 286.492 251.078 286.148 250.812 285.727C250.547 285.305 250.414 284.859 250.414 284.391H251.867C251.888 284.786 252.003 285.102 252.211 285.336C252.419 285.565 252.674 285.729 252.977 285.828C253.279 285.922 253.578 285.969 253.875 285.969C254.271 285.969 254.602 285.917 254.867 285.812C255.138 285.708 255.344 285.565 255.484 285.383C255.625 285.201 255.695 284.992 255.695 284.758Z" fill="black"/>
<defs>
<filter id="filter0_d_312_1632" x="0" y="0" width="358" height="319" filterUnits="userSpaceOnUse" color-interpolation-filters="sRGB">
<feFlood flood-opacity="0" result="BackgroundImageFix"/>
<feColorMatrix in="SourceAlpha" type="matrix" values="0 0 0 0 0 0 0 0 0 0 0 0 0 0 0 0 0 0 127 0" result="hardAlpha"/>
<feOffset dy="4"/>
<feGaussianBlur stdDeviation="2"/>
<feComposite in2="hardAlpha" operator="out"/>
<feColorMatrix type="matrix" values="0 0 0 0 0 0 0 0 0 0 0 0 0 0 0 0 0 0 0.25 0"/>
<feBlend mode="normal" in2="BackgroundImageFix" result="effect1_dropShadow_312_1632"/>
<feBlend mode="normal" in="SourceGraphic" in2="effect1_dropShadow_312_1632" result="shape"/>
</filter>
<filter id="filter1_d_312_1632" x="109.516" y="65.3359" width="145.867" height="96.9912" filterUnits="userSpaceOnUse" color-interpolation-filters="sRGB">
<feFlood flood-opacity="0" result="BackgroundImageFix"/>
<feColorMatrix in="SourceAlpha" type="matrix" values="0 0 0 0 0 0 0 0 0 0 0 0 0 0 0 0 0 0 127 0" result="hardAlpha"/>
<feOffset dx="4" dy="4"/>
<feGaussianBlur stdDeviation="7"/>
<feColorMatrix type="matrix" values="0 0 0 0 0 0 0 0 0 0 0 0 0 0 0 0 0 0 0.25 0"/>
<feBlend mode="normal" in2="BackgroundImageFix" result="effect1_dropShadow_312_1632"/>
<feBlend mode="normal" in="SourceGraphic" in2="effect1_dropShadow_312_1632" result="shape"/>
</filter>
<filter id="filter2_d_312_1632" x="104.266" y="60.0859" width="138.367" height="89.4912" filterUnits="userSpaceOnUse" color-interpolation-filters="sRGB">
<feFlood flood-opacity="0" result="BackgroundImageFix"/>
<feColorMatrix in="SourceAlpha" type="matrix" values="0 0 0 0 0 0 0 0 0 0 0 0 0 0 0 0 0 0 127 0" result="hardAlpha"/>
<feOffset dx="-5" dy="-5"/>
<feGaussianBlur stdDeviation="5"/>
<feColorMatrix type="matrix" values="0 0 0 0 0.941176 0 0 0 0 0.941176 0 0 0 0 1 0 0 0 0.5 0"/>
<feBlend mode="normal" in2="BackgroundImageFix" result="effect1_dropShadow_312_1632"/>
<feBlend mode="normal" in="SourceGraphic" in2="effect1_dropShadow_312_1632" result="shape"/>
</filter>
<filter id="filter3_d_312_1632" x="55.5625" y="125.648" width="99.2656" height="44.2588" filterUnits="userSpaceOnUse" color-interpolation-filters="sRGB">
<feFlood flood-opacity="0" result="BackgroundImageFix"/>
<feColorMatrix in="SourceAlpha" type="matrix" values="0 0 0 0 0 0 0 0 0 0 0 0 0 0 0 0 0 0 127 0" result="hardAlpha"/>
<feOffset dx="4" dy="4"/>
<feGaussianBlur stdDeviation="7"/>
<feColorMatrix type="matrix" values="0 0 0 0 0 0 0 0 0 0 0 0 0 0 0 0 0 0 0.25 0"/>
<feBlend mode="normal" in2="BackgroundImageFix" result="effect1_dropShadow_312_1632"/>
<feBlend mode="normal" in="SourceGraphic" in2="effect1_dropShadow_312_1632" result="shape"/>
</filter>
<filter id="filter4_d_312_1632" x="50.5625" y="120.644" width="91.2578" height="36.2588" filterUnits="userSpaceOnUse" color-interpolation-filters="sRGB">
<feFlood flood-opacity="0" result="BackgroundImageFix"/>
<feColorMatrix in="SourceAlpha" type="matrix" values="0 0 0 0 0 0 0 0 0 0 0 0 0 0 0 0 0 0 127 0" result="hardAlpha"/>
<feOffset dx="-5" dy="-5"/>
<feGaussianBlur stdDeviation="5"/>
<feColorMatrix type="matrix" values="0 0 0 0 0.941176 0 0 0 0 0.941176 0 0 0 0 1 0 0 0 0.5 0"/>
<feBlend mode="normal" in2="BackgroundImageFix" result="effect1_dropShadow_312_1632"/>
<feBlend mode="normal" in="SourceGraphic" in2="effect1_dropShadow_312_1632" result="shape"/>
</filter>
<filter id="filter5_d_312_1632" x="55.5625" y="148.697" width="99.2656" height="44.2588" filterUnits="userSpaceOnUse" color-interpolation-filters="sRGB">
<feFlood flood-opacity="0" result="BackgroundImageFix"/>
<feColorMatrix in="SourceAlpha" type="matrix" values="0 0 0 0 0 0 0 0 0 0 0 0 0 0 0 0 0 0 127 0" result="hardAlpha"/>
<feOffset dx="4" dy="4"/>
<feGaussianBlur stdDeviation="7"/>
<feColorMatrix type="matrix" values="0 0 0 0 0 0 0 0 0 0 0 0 0 0 0 0 0 0 0.25 0"/>
<feBlend mode="normal" in2="BackgroundImageFix" result="effect1_dropShadow_312_1632"/>
<feBlend mode="normal" in="SourceGraphic" in2="effect1_dropShadow_312_1632" result="shape"/>
</filter>
<filter id="filter6_d_312_1632" x="50.3125" y="143.447" width="91.7578" height="36.7588" filterUnits="userSpaceOnUse" color-interpolation-filters="sRGB">
<feFlood flood-opacity="0" result="BackgroundImageFix"/>
<feColorMatrix in="SourceAlpha" type="matrix" values="0 0 0 0 0 0 0 0 0 0 0 0 0 0 0 0 0 0 127 0" result="hardAlpha"/>
<feOffset dx="-5" dy="-5"/>
<feGaussianBlur stdDeviation="5"/>
<feColorMatrix type="matrix" values="0 0 0 0 0.941176 0 0 0 0 0.941176 0 0 0 0 1 0 0 0 0.5 0"/>
<feBlend mode="normal" in2="BackgroundImageFix" result="effect1_dropShadow_312_1632"/>
<feBlend mode="normal" in="SourceGraphic" in2="effect1_dropShadow_312_1632" result="shape"/>
</filter>
<filter id="filter7_d_312_1632" x="117.414" y="73.96" width="59.4844" height="65.3662" filterUnits="userSpaceOnUse" color-interpolation-filters="sRGB">
<feFlood flood-opacity="0" result="BackgroundImageFix"/>
<feColorMatrix in="SourceAlpha" type="matrix" values="0 0 0 0 0 0 0 0 0 0 0 0 0 0 0 0 0 0 127 0" result="hardAlpha"/>
<feOffset dx="3" dy="3"/>
<feGaussianBlur stdDeviation="7"/>
<feColorMatrix type="matrix" values="0 0 0 0 0 0 0 0 0 0 0 0 0 0 0 0 0 0 0.11 0"/>
<feBlend mode="normal" in2="BackgroundImageFix" result="effect1_dropShadow_312_1632"/>
<feBlend mode="normal" in="SourceGraphic" in2="effect1_dropShadow_312_1632" result="shape"/>
</filter>
<filter id="filter8_d_312_1632" x="113.414" y="69.96" width="51.4844" height="57.3662" filterUnits="userSpaceOnUse" color-interpolation-filters="sRGB">
<feFlood flood-opacity="0" result="BackgroundImageFix"/>
<feColorMatrix in="SourceAlpha" type="matrix" values="0 0 0 0 0 0 0 0 0 0 0 0 0 0 0 0 0 0 127 0" result="hardAlpha"/>
<feOffset dx="-5" dy="-5"/>
<feGaussianBlur stdDeviation="5"/>
<feColorMatrix type="matrix" values="0 0 0 0 0.941176 0 0 0 0 0.941176 0 0 0 0 1 0 0 0 0.5 0"/>
<feBlend mode="normal" in2="BackgroundImageFix" result="effect1_dropShadow_312_1632"/>
<feBlend mode="normal" in="SourceGraphic" in2="effect1_dropShadow_312_1632" result="shape"/>
</filter>
<filter id="filter9_d_312_1632" x="55.5547" y="65.8359" width="72.4219" height="76.0205" filterUnits="userSpaceOnUse" color-interpolation-filters="sRGB">
<feFlood flood-opacity="0" result="BackgroundImageFix"/>
<feColorMatrix in="SourceAlpha" type="matrix" values="0 0 0 0 0 0 0 0 0 0 0 0 0 0 0 0 0 0 127 0" result="hardAlpha"/>
<feOffset dx="4" dy="4"/>
<feGaussianBlur stdDeviation="7"/>
<feColorMatrix type="matrix" values="0 0 0 0 0 0 0 0 0 0 0 0 0 0 0 0 0 0 0.25 0"/>
<feBlend mode="normal" in2="BackgroundImageFix" result="effect1_dropShadow_312_1632"/>
<feBlend mode="normal" in="SourceGraphic" in2="effect1_dropShadow_312_1632" result="shape"/>
</filter>
<filter id="filter10_d_312_1632" x="50.5547" y="60.8359" width="64.4219" height="68.0205" filterUnits="userSpaceOnUse" color-interpolation-filters="sRGB">
<feFlood flood-opacity="0" result="BackgroundImageFix"/>
<feColorMatrix in="SourceAlpha" type="matrix" values="0 0 0 0 0 0 0 0 0 0 0 0 0 0 0 0 0 0 127 0" result="hardAlpha"/>
<feOffset dx="-5" dy="-5"/>
<feGaussianBlur stdDeviation="5"/>
<feColorMatrix type="matrix" values="0 0 0 0 0.941176 0 0 0 0 0.941176 0 0 0 0 1 0 0 0 0.5 0"/>
<feBlend mode="normal" in2="BackgroundImageFix" result="effect1_dropShadow_312_1632"/>
<feBlend mode="normal" in="SourceGraphic" in2="effect1_dropShadow_312_1632" result="shape"/>
</filter>
<filter id="filter11_d_312_1632" x="182.93" y="143.946" width="72.4219" height="76.0205" filterUnits="userSpaceOnUse" color-interpolation-filters="sRGB">
<feFlood flood-opacity="0" result="BackgroundImageFix"/>
<feColorMatrix in="SourceAlpha" type="matrix" values="0 0 0 0 0 0 0 0 0 0 0 0 0 0 0 0 0 0 127 0" result="hardAlpha"/>
<feOffset dx="4" dy="4"/>
<feGaussianBlur stdDeviation="7"/>
<feColorMatrix type="matrix" values="0 0 0 0 0 0 0 0 0 0 0 0 0 0 0 0 0 0 0.25 0"/>
<feBlend mode="normal" in2="BackgroundImageFix" result="effect1_dropShadow_312_1632"/>
<feBlend mode="normal" in="SourceGraphic" in2="effect1_dropShadow_312_1632" result="shape"/>
</filter>
<filter id="filter12_d_312_1632" x="177.93" y="138.951" width="64.4219" height="68.0205" filterUnits="userSpaceOnUse" color-interpolation-filters="sRGB">
<feFlood flood-opacity="0" result="BackgroundImageFix"/>
<feColorMatrix in="SourceAlpha" type="matrix" values="0 0 0 0 0 0 0 0 0 0 0 0 0 0 0 0 0 0 127 0" result="hardAlpha"/>
<feOffset dx="-5" dy="-5"/>
<feGaussianBlur stdDeviation="5"/>
<feColorMatrix type="matrix" values="0 0 0 0 0.941176 0 0 0 0 0.941176 0 0 0 0 1 0 0 0 0.5 0"/>
<feBlend mode="normal" in2="BackgroundImageFix" result="effect1_dropShadow_312_1632"/>
<feBlend mode="normal" in="SourceGraphic" in2="effect1_dropShadow_312_1632" result="shape"/>
</filter>
<filter id="filter13_d_312_1632" x="234.922" y="21.9678" width="41.2578" height="96.9912" filterUnits="userSpaceOnUse" color-interpolation-filters="sRGB">
<feFlood flood-opacity="0" result="BackgroundImageFix"/>
<feColorMatrix in="SourceAlpha" type="matrix" values="0 0 0 0 0 0 0 0 0 0 0 0 0 0 0 0 0 0 127 0" result="hardAlpha"/>
<feOffset dx="4" dy="4"/>
<feGaussianBlur stdDeviation="7"/>
<feColorMatrix type="matrix" values="0 0 0 0 0 0 0 0 0 0 0 0 0 0 0 0 0 0 0.25 0"/>
<feBlend mode="normal" in2="BackgroundImageFix" result="effect1_dropShadow_312_1632"/>
<feBlend mode="normal" in="SourceGraphic" in2="effect1_dropShadow_312_1632" result="shape"/>
</filter>
<filter id="filter14_d_312_1632" x="229.672" y="16.7178" width="33.7578" height="89.4912" filterUnits="userSpaceOnUse" color-interpolation-filters="sRGB">
<feFlood flood-opacity="0" result="BackgroundImageFix"/>
<feColorMatrix in="SourceAlpha" type="matrix" values="0 0 0 0 0 0 0 0 0 0 0 0 0 0 0 0 0 0 127 0" result="hardAlpha"/>
<feOffset dx="-5" dy="-5"/>
<feGaussianBlur stdDeviation="5"/>
<feColorMatrix type="matrix" values="0 0 0 0 0.941176 0 0 0 0 0.941176 0 0 0 0 1 0 0 0 0.5 0"/>
<feBlend mode="normal" in2="BackgroundImageFix" result="effect1_dropShadow_312_1632"/>
<feBlend mode="normal" in="SourceGraphic" in2="effect1_dropShadow_312_1632" result="shape"/>
</filter>
<filter id="filter15_d_312_1632" x="238.641" y="42.7178" width="33.8125" height="33.6387" filterUnits="userSpaceOnUse" color-interpolation-filters="sRGB">
<feFlood flood-opacity="0" result="BackgroundImageFix"/>
<feColorMatrix in="SourceAlpha" type="matrix" values="0 0 0 0 0 0 0 0 0 0 0 0 0 0 0 0 0 0 127 0" result="hardAlpha"/>
<feOffset dx="4" dy="4"/>
<feGaussianBlur stdDeviation="7"/>
<feColorMatrix type="matrix" values="0 0 0 0 0 0 0 0 0 0 0 0 0 0 0 0 0 0 0.25 0"/>
<feBlend mode="normal" in2="BackgroundImageFix" result="effect1_dropShadow_312_1632"/>
<feBlend mode="normal" in="SourceGraphic" in2="effect1_dropShadow_312_1632" result="shape"/>
</filter>
<filter id="filter16_d_312_1632" x="233.391" y="37.4678" width="26.3125" height="26.1387" filterUnits="userSpaceOnUse" color-interpolation-filters="sRGB">
<feFlood flood-opacity="0" result="BackgroundImageFix"/>
<feColorMatrix in="SourceAlpha" type="matrix" values="0 0 0 0 0 0 0 0 0 0 0 0 0 0 0 0 0 0 127 0" result="hardAlpha"/>
<feOffset dx="-5" dy="-5"/>
<feGaussianBlur stdDeviation="5"/>
<feColorMatrix type="matrix" values="0 0 0 0 0.941176 0 0 0 0 0.941176 0 0 0 0 1 0 0 0 0.5 0"/>
<feBlend mode="normal" in2="BackgroundImageFix" result="effect1_dropShadow_312_1632"/>
<feBlend mode="normal" in="SourceGraphic" in2="effect1_dropShadow_312_1632" result="shape"/>
</filter>
<filter id="filter17_d_312_1632" x="132.914" y="143.946" width="72.4219" height="76.0205" filterUnits="userSpaceOnUse" color-interpolation-filters="sRGB">
<feFlood flood-opacity="0" result="BackgroundImageFix"/>
<feColorMatrix in="SourceAlpha" type="matrix" values="0 0 0 0 0 0 0 0 0 0 0 0 0 0 0 0 0 0 127 0" result="hardAlpha"/>
<feOffset dx="4" dy="4"/>
<feGaussianBlur stdDeviation="7"/>
<feColorMatrix type="matrix" values="0 0 0 0 0 0 0 0 0 0 0 0 0 0 0 0 0 0 0.25 0"/>
<feBlend mode="normal" in2="BackgroundImageFix" result="effect1_dropShadow_312_1632"/>
<feBlend mode="normal" in="SourceGraphic" in2="effect1_dropShadow_312_1632" result="shape"/>
</filter>
<filter id="filter18_d_312_1632" x="127.906" y="138.951" width="64.4219" height="68.0205" filterUnits="userSpaceOnUse" color-interpolation-filters="sRGB">
<feFlood flood-opacity="0" result="BackgroundImageFix"/>
<feColorMatrix in="SourceAlpha" type="matrix" values="0 0 0 0 0 0 0 0 0 0 0 0 0 0 0 0 0 0 127 0" result="hardAlpha"/>
<feOffset dx="-5" dy="-5"/>
<feGaussianBlur stdDeviation="5"/>
<feColorMatrix type="matrix" values="0 0 0 0 0.941176 0 0 0 0 0.941176 0 0 0 0 1 0 0 0 0.5 0"/>
<feBlend mode="normal" in2="BackgroundImageFix" result="effect1_dropShadow_312_1632"/>
<feBlend mode="normal" in="SourceGraphic" in2="effect1_dropShadow_312_1632" result="shape"/>
</filter>
<filter id="filter19_d_312_1632" x="255.492" y="74.1758" width="70.2031" height="44.7832" filterUnits="userSpaceOnUse" color-interpolation-filters="sRGB">
<feFlood flood-opacity="0" result="BackgroundImageFix"/>
<feColorMatrix in="SourceAlpha" type="matrix" values="0 0 0 0 0 0 0 0 0 0 0 0 0 0 0 0 0 0 127 0" result="hardAlpha"/>
<feOffset dx="4" dy="4"/>
<feGaussianBlur stdDeviation="7"/>
<feColorMatrix type="matrix" values="0 0 0 0 0 0 0 0 0 0 0 0 0 0 0 0 0 0 0.25 0"/>
<feBlend mode="normal" in2="BackgroundImageFix" result="effect1_dropShadow_312_1632"/>
<feBlend mode="normal" in="SourceGraphic" in2="effect1_dropShadow_312_1632" result="shape"/>
</filter>
<filter id="filter20_d_312_1632" x="250.242" y="68.9258" width="62.7031" height="37.2832" filterUnits="userSpaceOnUse" color-interpolation-filters="sRGB">
<feFlood flood-opacity="0" result="BackgroundImageFix"/>
<feColorMatrix in="SourceAlpha" type="matrix" values="0 0 0 0 0 0 0 0 0 0 0 0 0 0 0 0 0 0 127 0" result="hardAlpha"/>
<feOffset dx="-5" dy="-5"/>
<feGaussianBlur stdDeviation="5"/>
<feColorMatrix type="matrix" values="0 0 0 0 0.941176 0 0 0 0 0.941176 0 0 0 0 1 0 0 0 0.5 0"/>
<feBlend mode="normal" in2="BackgroundImageFix" result="effect1_dropShadow_312_1632"/>
<feBlend mode="normal" in="SourceGraphic" in2="effect1_dropShadow_312_1632" result="shape"/>
</filter>
<filter id="filter21_d_312_1632" x="253.688" y="71.5049" width="32.5078" height="32.125" filterUnits="userSpaceOnUse" color-interpolation-filters="sRGB">
<feFlood flood-opacity="0" result="BackgroundImageFix"/>
<feColorMatrix in="SourceAlpha" type="matrix" values="0 0 0 0 0 0 0 0 0 0 0 0 0 0 0 0 0 0 127 0" result="hardAlpha"/>
<feOffset dx="-5" dy="-5"/>
<feGaussianBlur stdDeviation="5"/>
<feColorMatrix type="matrix" values="0 0 0 0 0.941176 0 0 0 0 0.941176 0 0 0 0 1 0 0 0 0.5 0"/>
<feBlend mode="normal" in2="BackgroundImageFix" result="effect1_dropShadow_312_1632"/>
<feBlend mode="normal" in="SourceGraphic" in2="effect1_dropShadow_312_1632" result="shape"/>
</filter>
<filter id="filter22_d_312_1632" x="84.4531" y="28.6309" width="54.2031" height="53.4131" filterUnits="userSpaceOnUse" color-interpolation-filters="sRGB">
<feFlood flood-opacity="0" result="BackgroundImageFix"/>
<feColorMatrix in="SourceAlpha" type="matrix" values="0 0 0 0 0 0 0 0 0 0 0 0 0 0 0 0 0 0 127 0" result="hardAlpha"/>
<feOffset dx="4" dy="4"/>
<feGaussianBlur stdDeviation="7"/>
<feColorMatrix type="matrix" values="0 0 0 0 0 0 0 0 0 0 0 0 0 0 0 0 0 0 0.25 0"/>
<feBlend mode="normal" in2="BackgroundImageFix" result="effect1_dropShadow_312_1632"/>
<feBlend mode="normal" in="SourceGraphic" in2="effect1_dropShadow_312_1632" result="shape"/>
</filter>
<filter id="filter23_d_312_1632" x="79.2031" y="23.3809" width="46.7031" height="45.9131" filterUnits="userSpaceOnUse" color-interpolation-filters="sRGB">
<feFlood flood-opacity="0" result="BackgroundImageFix"/>
<feColorMatrix in="SourceAlpha" type="matrix" values="0 0 0 0 0 0 0 0 0 0 0 0 0 0 0 0 0 0 127 0" result="hardAlpha"/>
<feOffset dx="-5" dy="-5"/>
<feGaussianBlur stdDeviation="5"/>
<feColorMatrix type="matrix" values="0 0 0 0 0.941176 0 0 0 0 0.941176 0 0 0 0 1 0 0 0 0.5 0"/>
<feBlend mode="normal" in2="BackgroundImageFix" result="effect1_dropShadow_312_1632"/>
<feBlend mode="normal" in="SourceGraphic" in2="effect1_dropShadow_312_1632" result="shape"/>
</filter>
<filter id="filter24_d_312_1632" x="115.898" y="28.6309" width="54.2031" height="53.4131" filterUnits="userSpaceOnUse" color-interpolation-filters="sRGB">
<feFlood flood-opacity="0" result="BackgroundImageFix"/>
<feColorMatrix in="SourceAlpha" type="matrix" values="0 0 0 0 0 0 0 0 0 0 0 0 0 0 0 0 0 0 127 0" result="hardAlpha"/>
<feOffset dx="4" dy="4"/>
<feGaussianBlur stdDeviation="7"/>
<feColorMatrix type="matrix" values="0 0 0 0 0 0 0 0 0 0 0 0 0 0 0 0 0 0 0.25 0"/>
<feBlend mode="normal" in2="BackgroundImageFix" result="effect1_dropShadow_312_1632"/>
<feBlend mode="normal" in="SourceGraphic" in2="effect1_dropShadow_312_1632" result="shape"/>
</filter>
<filter id="filter25_d_312_1632" x="110.648" y="23.3809" width="46.7031" height="45.9131" filterUnits="userSpaceOnUse" color-interpolation-filters="sRGB">
<feFlood flood-opacity="0" result="BackgroundImageFix"/>
<feColorMatrix in="SourceAlpha" type="matrix" values="0 0 0 0 0 0 0 0 0 0 0 0 0 0 0 0 0 0 127 0" result="hardAlpha"/>
<feOffset dx="-5" dy="-5"/>
<feGaussianBlur stdDeviation="5"/>
<feColorMatrix type="matrix" values="0 0 0 0 0.941176 0 0 0 0 0.941176 0 0 0 0 1 0 0 0 0.5 0"/>
<feBlend mode="normal" in2="BackgroundImageFix" result="effect1_dropShadow_312_1632"/>
<feBlend mode="normal" in="SourceGraphic" in2="effect1_dropShadow_312_1632" result="shape"/>
</filter>
<filter id="filter26_d_312_1632" x="147.344" y="28.6309" width="54.2031" height="53.4131" filterUnits="userSpaceOnUse" color-interpolation-filters="sRGB">
<feFlood flood-opacity="0" result="BackgroundImageFix"/>
<feColorMatrix in="SourceAlpha" type="matrix" values="0 0 0 0 0 0 0 0 0 0 0 0 0 0 0 0 0 0 127 0" result="hardAlpha"/>
<feOffset dx="4" dy="4"/>
<feGaussianBlur stdDeviation="7"/>
<feColorMatrix type="matrix" values="0 0 0 0 0 0 0 0 0 0 0 0 0 0 0 0 0 0 0.25 0"/>
<feBlend mode="normal" in2="BackgroundImageFix" result="effect1_dropShadow_312_1632"/>
<feBlend mode="normal" in="SourceGraphic" in2="effect1_dropShadow_312_1632" result="shape"/>
</filter>
<filter id="filter27_d_312_1632" x="142.094" y="23.3809" width="46.7031" height="45.9131" filterUnits="userSpaceOnUse" color-interpolation-filters="sRGB">
<feFlood flood-opacity="0" result="BackgroundImageFix"/>
<feColorMatrix in="SourceAlpha" type="matrix" values="0 0 0 0 0 0 0 0 0 0 0 0 0 0 0 0 0 0 127 0" result="hardAlpha"/>
<feOffset dx="-5" dy="-5"/>
<feGaussianBlur stdDeviation="5"/>
<feColorMatrix type="matrix" values="0 0 0 0 0.941176 0 0 0 0 0.941176 0 0 0 0 1 0 0 0 0.5 0"/>
<feBlend mode="normal" in2="BackgroundImageFix" result="effect1_dropShadow_312_1632"/>
<feBlend mode="normal" in="SourceGraphic" in2="effect1_dropShadow_312_1632" result="shape"/>
</filter>
<linearGradient id="paint0_linear_312_1632" x1="6.5" y1="3.5" x2="354" y2="252" gradientUnits="userSpaceOnUse">
<stop stop-color="#A8D7FF"/>
<stop offset="1" stop-color="#D4E3F8"/>
</linearGradient>
<linearGradient id="paint1_linear_312_1632" x1="283.932" y1="71.624" x2="312.189" y2="22.6334" gradientUnits="userSpaceOnUse">
<stop stop-color="#4088FF"/>
<stop offset="0.57" stop-color="#40A2FF"/>
<stop offset="1" stop-color="#40B2FF"/>
</linearGradient>
<linearGradient id="paint2_linear_312_1632" x1="39.7723" y1="214.798" x2="79.1543" y2="146.52" gradientUnits="userSpaceOnUse">
<stop stop-color="#4088FF"/>
<stop offset="0.57" stop-color="#40A2FF"/>
<stop offset="1" stop-color="#40B2FF"/>
</linearGradient>
<linearGradient id="paint3_linear_312_1632" x1="106.789" y1="222.61" x2="223.171" y2="20.8339" gradientUnits="userSpaceOnUse">
<stop stop-color="white"/>
<stop offset="0.18" stop-color="white" stop-opacity="0.96"/>
<stop offset="0.48" stop-color="white" stop-opacity="0.84"/>
<stop offset="0.89" stop-color="white" stop-opacity="0.66"/>
<stop offset="1" stop-color="white" stop-opacity="0.6"/>
</linearGradient>
<linearGradient id="paint4_linear_312_1632" x1="89.0709" y1="164.753" x2="113.28" y2="122.777" gradientUnits="userSpaceOnUse">
<stop stop-color="#4088FF"/>
<stop offset="0.57" stop-color="#40A2FF"/>
<stop offset="1" stop-color="#40B2FF"/>
</linearGradient>
<linearGradient id="paint5_linear_312_1632" x1="261.201" y1="152.947" x2="292.272" y2="99.08" gradientUnits="userSpaceOnUse">
<stop stop-color="#4088FF"/>
<stop offset="0.57" stop-color="#40A2FF"/>
<stop offset="1" stop-color="#40B2FF"/>
</linearGradient>
<linearGradient id="paint6_linear_312_1632" x1="72.1164" y1="126.931" x2="103.378" y2="72.7355" gradientUnits="userSpaceOnUse">
<stop stop-color="#4088FF"/>
<stop offset="0.57" stop-color="#40A2FF"/>
<stop offset="1" stop-color="#40B2FF"/>
</linearGradient>
<linearGradient id="paint7_linear_312_1632" x1="199.491" y1="205.041" x2="230.753" y2="150.851" gradientUnits="userSpaceOnUse">
<stop stop-color="#4088FF"/>
<stop offset="0.57" stop-color="#40A2FF"/>
<stop offset="1" stop-color="#40B2FF"/>
</linearGradient>
<linearGradient id="paint8_linear_312_1632" x1="268.688" y1="92.5651" x2="281.188" y2="92.5651" gradientUnits="userSpaceOnUse">
<stop stop-color="#4088FF"/>
<stop offset="0.57" stop-color="#40A2FF"/>
<stop offset="1" stop-color="#40B2FF"/>
</linearGradient>
<linearGradient id="paint9_linear_312_1632" x1="103.359" y1="51.3396" x2="111.762" y2="51.3396" gradientUnits="userSpaceOnUse">
<stop stop-color="#4088FF"/>
<stop offset="0.57" stop-color="#40A2FF"/>
<stop offset="1" stop-color="#40B2FF"/>
</linearGradient>
<linearGradient id="paint10_linear_312_1632" x1="134.792" y1="51.3396" x2="143.199" y2="51.3396" gradientUnits="userSpaceOnUse">
<stop stop-color="#4088FF"/>
<stop offset="0.57" stop-color="#40A2FF"/>
<stop offset="1" stop-color="#40B2FF"/>
</linearGradient>
<linearGradient id="paint11_linear_312_1632" x1="166.242" y1="51.3396" x2="174.644" y2="51.3396" gradientUnits="userSpaceOnUse">
<stop stop-color="#4088FF"/>
<stop offset="0.57" stop-color="#40A2FF"/>
<stop offset="1" stop-color="#40B2FF"/>
</linearGradient>
<clipPath id="clip0_312_1632">
<rect width="304" height="194" fill="white" transform="translate(27 22)"/>
</clipPath>
</defs>
</svg>
